<?xml version="1.0" encoding="UTF-8" standalone="no"?>
<svg
   xmlns:dc="http://purl.org/dc/elements/1.1/"
   xmlns:cc="http://creativecommons.org/ns#"
   xmlns:rdf="http://www.w3.org/1999/02/22-rdf-syntax-ns#"
   xmlns:svg="http://www.w3.org/2000/svg"
   xmlns="http://www.w3.org/2000/svg"
   xmlns:sodipodi="http://sodipodi.sourceforge.net/DTD/sodipodi-0.dtd"
   xmlns:inkscape="http://www.inkscape.org/namespaces/inkscape"
   id="70093593-85a2-447b-b81e-208691c845a3"
   data-name="Layer 1"
   width="825.71002"
   height="825.71002"
   viewBox="0 0 825.70999 825.71"
   version="1.1"
   sodipodi:docname="undraw_startup_life_2du2.svg"
   inkscape:version="0.92.2 2405546, 2018-03-11">
  <metadata
     id="metadata384">
    <rdf:RDF>
      <cc:Work
         rdf:about="">
        <dc:format>image/svg+xml</dc:format>
        <dc:type
           rdf:resource="http://purl.org/dc/dcmitype/StillImage" />
        <dc:title>startup life</dc:title>
      </cc:Work>
    </rdf:RDF>
  </metadata>
  <sodipodi:namedview
     pagecolor="#ffffff"
     bordercolor="#666666"
     borderopacity="1"
     objecttolerance="10"
     gridtolerance="10"
     guidetolerance="10"
     inkscape:pageopacity="0"
     inkscape:pageshadow="2"
     inkscape:window-width="1366"
     inkscape:window-height="717"
     id="namedview382"
     showgrid="false"
     inkscape:zoom="0.28581462"
     inkscape:cx="44.330032"
     inkscape:cy="412.85501"
     inkscape:window-x="0"
     inkscape:window-y="22"
     inkscape:window-maximized="1"
     inkscape:current-layer="70093593-85a2-447b-b81e-208691c845a3" />
  <defs
     id="defs9">
    <linearGradient
       id="38c043cc-bff7-4144-86c9-76214eedfc2b"
       x1="879.53003"
       y1="603.57001"
       x2="879.53003"
       y2="231.44"
       gradientTransform="matrix(-1,0,0,1,1191.18,0)"
       gradientUnits="userSpaceOnUse">
      <stop
         offset="0"
         stop-color="gray"
         stop-opacity="0.25"
         id="stop2" />
      <stop
         offset="0.54"
         stop-color="gray"
         stop-opacity="0.12"
         id="stop4" />
      <stop
         offset="1"
         stop-color="gray"
         stop-opacity="0.1"
         id="stop6" />
    </linearGradient>
  </defs>
  <title
     id="title11">startup life</title>
  <path
     d="m 344.36051,202.03321 c -31.17562,-12.67393 -64.1123,-23.25441 -97.73501,-21.92478 -49.43684,1.94494 -96.85095,31.68484 -120.12658,75.34345 -19.72523,36.98922 -22.15816,80.3437 -30.652247,121.39255 -10.481462,50.58259 -30.524953,98.63322 -51.940518,145.63712 -11.499901,25.24885 -23.636319,51.0423 -25.517607,78.7241 -2.623907,38.41787 15.743404,76.70844 44.556808,102.26848 28.813403,25.56005 67.061534,39.04733 105.458194,41.9895 20.43247,1.56302 41.78438,0.11315 59.93951,-9.39937 19.19479,-10.05711 33.19836,-28.24053 52.47095,-38.15619 17.86516,-9.19426 38.76442,-10.48853 58.82206,-9.28621 a 263.57121,263.57121 0 0 1 76.79326,16.32335 c 28.03549,10.53097 54.10478,25.77223 82.07651,36.45172 27.97183,10.67949 59.22523,16.62747 87.81938,7.72318 26.8331,-8.36678 48.09301,-28.6861 67.18886,-49.2671 a 862.03281,862.03281 0 0 0 85.69755,-108.42158 c 17.26395,-25.85709 33.33278,-53.14283 40.971,-83.28586 14.59065,-57.62681 -5.49527,-122.64439 -50.04506,-161.96047 -36.89016,-32.62548 -86.42598,-46.77051 -134.91515,-55.38482 -44.21731,-7.82927 -95.34451,-8.31727 -136.04679,-28.72853 -38.81391,-19.46356 -74.13402,-43.48886 -114.81512,-60.03854 z"
     id="path13"
     inkscape:connector-curvature="0"
     style="opacity:0.1;fill:#6c63ff;stroke-width:0.70725095" />
  <polygon
     points="935.65,572.86 933.59,572.86 934.03,576.92 935.7,578.6 936.45,575.71 "
     id="polygon15"
     style="fill:#464a5f"
     transform="matrix(0.72984193,0,0,0.72984193,-140,120.00272)" />
  <polygon
     points="935.65,572.86 933.59,572.86 934.03,576.92 935.7,578.6 936.45,575.71 "
     id="polygon17"
     style="opacity:0.1"
     transform="matrix(0.72984193,0,0,0.72984193,-140,120.00272)" />
  <polygon
     points="932.29,579.9 931.86,579.06 934.03,576.92 935.65,578.65 934.03,580.55 "
     id="polygon19"
     style="fill:#9c9ca1"
     transform="matrix(0.72984193,0,0,0.72984193,-140,120.00272)" />
  <polygon
     points="932.29,579.9 931.86,579.06 934.03,576.92 935.65,578.65 934.03,580.55 "
     id="polygon21"
     style="opacity:0.1"
     transform="matrix(0.72984193,0,0,0.72984193,-140,120.00272)" />
  <path
     d="M 317.03431,319.35175 183.56082,452.82524 a 12.830621,12.830621 0 0 0 -0.0365,18.10738 l 204.58929,206.21683 a 12.830621,12.830621 0 0 0 18.11467,0.0949 l 135.46597,-133.5246 z"
     id="path23"
     inkscape:connector-curvature="0"
     style="fill:#9c9ca1;stroke-width:0.72984195" />
  <path
     d="M 317.03431,319.35175 183.56082,452.82524 a 12.830621,12.830621 0 0 0 -0.0365,18.10738 l 204.58929,206.21683 a 12.830621,12.830621 0 0 0 18.11467,0.0949 l 135.46597,-133.5246 z"
     id="path25"
     inkscape:connector-curvature="0"
     style="opacity:0.1;stroke-width:0.72984195" />
  <path
     d="M 317.03431,316.70242 183.56082,450.17591 a 12.830621,12.830621 0 0 0 -0.0365,18.10738 l 204.58929,206.20954 a 12.830621,12.830621 0 0 0 18.11467,0.10218 L 541.69425,541.03393 Z"
     id="path27"
     inkscape:connector-curvature="0"
     style="fill:#9c9ca1;stroke-width:0.72984195" />
  <path
     d="m 331.04728,222.88124 -12.24675,92.93807 224.65994,224.36071 12.90361,-94.47074 A 13.662641,13.662641 0 0 0 552.39374,434.0829 L 335.63068,221.29019 a 2.715012,2.715012 0 0 0 -4.5834,1.59105 z"
     id="path29"
     inkscape:connector-curvature="0"
     style="fill:#464a5f;stroke-width:0.72984195" />
  <path
     d="m 331.04728,222.88124 -12.24675,92.93807 224.65994,224.36071 12.90361,-94.47074 A 13.662641,13.662641 0 0 0 552.39374,434.0829 L 335.63068,221.29019 a 2.715012,2.715012 0 0 0 -4.5834,1.59105 z"
     id="path31"
     inkscape:connector-curvature="0"
     style="opacity:0.1;stroke-width:0.72984195" />
  <path
     d="m 329.28106,223.76435 -12.24675,92.93807 224.65994,224.36071 12.90361,-94.47074 a 13.662641,13.662641 0 0 0 -3.97034,-11.62638 L 333.86447,222.17329 a 2.715012,2.715012 0 0 0 -4.58341,1.59106 z"
     id="path33"
     inkscape:connector-curvature="0"
     style="fill:#464a5f;stroke-width:0.72984195" />
  <g
     id="g121"
     style="opacity:0.1"
     transform="matrix(0.72984193,0,0,0.72984193,-140,120.00272)">
    <path
       d="M 670.13,365.17 659,376.4 a 3.53,3.53 0 0 0 0,5 l 11.28,11.57 a 3.54,3.54 0 0 0 5,0.1 l 11.08,-10.46 a 3.53,3.53 0 0 0 0.18,-4.95 l -11.28,-12.34 a 3.53,3.53 0 0 0 -5.13,-0.15 z"
       transform="translate(-43.1,-37.14)"
       id="path35"
       inkscape:connector-curvature="0" />
    <path
       d="m 690.87,385.92 -11.09,11.22 a 3.53,3.53 0 0 0 0,4.95 l 11.28,11.57 a 3.53,3.53 0 0 0 5,0.1 l 11.08,-10.45 a 3.55,3.55 0 0 0 0.18,-5 L 696,386 a 3.53,3.53 0 0 0 -5.13,-0.08 z"
       transform="translate(-43.1,-37.14)"
       id="path37"
       inkscape:connector-curvature="0" />
    <path
       d="m 712.65,407.69 -11.09,11.23 a 3.54,3.54 0 0 0 0,4.95 l 11.29,11.57 a 3.54,3.54 0 0 0 5,0.1 l 11.08,-10.46 a 3.53,3.53 0 0 0 0.18,-4.95 l -11.28,-12.34 a 3.53,3.53 0 0 0 -5.18,-0.1 z"
       transform="translate(-43.1,-37.14)"
       id="path39"
       inkscape:connector-curvature="0" />
    <path
       d="M 734.67,429.72 723.59,441 a 3.54,3.54 0 0 0 0,4.95 l 11.29,11.57 a 3.54,3.54 0 0 0 5,0.1 l 11.07,-10.46 a 3.52,3.52 0 0 0 0.19,-4.95 L 739.8,429.82 a 3.54,3.54 0 0 0 -5.13,-0.1 z"
       transform="translate(-43.1,-37.14)"
       id="path41"
       inkscape:connector-curvature="0" />
    <path
       d="M 756.7,451.75 745.62,463 a 3.54,3.54 0 0 0 0,5 l 11.29,11.57 a 3.54,3.54 0 0 0 5,0.1 l 11.07,-10.46 a 3.52,3.52 0 0 0 0.19,-4.95 l -11.28,-12.34 a 3.54,3.54 0 0 0 -5.19,-0.17 z"
       transform="translate(-43.1,-37.14)"
       id="path43"
       inkscape:connector-curvature="0" />
    <path
       d="m 780.12,472.37 -13.77,13.95 a 1.66,1.66 0 0 0 0,2.32 l 13.87,14.21 a 1.66,1.66 0 0 0 2.32,0 l 13.77,-13 a 1.65,1.65 0 0 0 0.08,-2.32 l -13.86,-15.16 a 1.66,1.66 0 0 0 -2.41,0 z"
       transform="translate(-43.1,-37.14)"
       id="path45"
       inkscape:connector-curvature="0" />
    <path
       d="m 802.15,494.4 -13.77,14 a 1.65,1.65 0 0 0 0,2.31 l 13.87,14.22 a 1.66,1.66 0 0 0 2.32,0 l 13.77,-13 a 1.65,1.65 0 0 0 0.08,-2.32 l -13.86,-15.16 a 1.66,1.66 0 0 0 -2.41,-0.05 z"
       transform="translate(-43.1,-37.14)"
       id="path47"
       inkscape:connector-curvature="0" />
    <path
       d="m 821.65,513.9 -13.77,14 a 1.65,1.65 0 0 0 0,2.31 l 13.87,14.22 a 1.66,1.66 0 0 0 2.32,0 l 13.77,-13 a 1.65,1.65 0 0 0 0.08,-2.32 L 824.05,514 a 1.66,1.66 0 0 0 -2.4,-0.1 z"
       transform="translate(-43.1,-37.14)"
       id="path49"
       inkscape:connector-curvature="0" />
    <path
       d="m 843.49,535.74 -13.77,13.94 a 1.65,1.65 0 0 0 0,2.32 l 13.87,14.21 a 1.65,1.65 0 0 0 2.32,0 l 13.77,-13 a 1.66,1.66 0 0 0 0.08,-2.32 L 845.9,535.73 a 1.66,1.66 0 0 0 -2.41,0.01 z"
       transform="translate(-43.1,-37.14)"
       id="path51"
       inkscape:connector-curvature="0" />
    <path
       d="m 864.64,556.89 -13.77,13.94 a 1.65,1.65 0 0 0 0,2.32 l 13.87,14.22 a 1.66,1.66 0 0 0 2.32,0 l 13.77,-13 a 1.66,1.66 0 0 0 0.08,-2.32 L 867,556.94 a 1.66,1.66 0 0 0 -2.36,-0.05 z"
       transform="translate(-43.1,-37.14)"
       id="path53"
       inkscape:connector-curvature="0" />
    <path
       d="M 885.79,578 872,592 a 1.65,1.65 0 0 0 0,2.31 l 13.87,14.22 a 1.66,1.66 0 0 0 2.32,0 l 13.77,-13 a 1.65,1.65 0 0 0 0.08,-2.32 L 888.18,578.05 A 1.66,1.66 0 0 0 885.79,578 Z"
       transform="translate(-43.1,-37.14)"
       id="path55"
       inkscape:connector-curvature="0" />
    <path
       d="m 906.94,599.19 -13.77,13.95 a 1.66,1.66 0 0 0 0,2.32 L 907,629.67 a 1.66,1.66 0 0 0 2.32,0.05 l 13.77,-13 a 1.65,1.65 0 0 0 0.08,-2.32 l -13.86,-15.16 a 1.66,1.66 0 0 0 -2.37,-0.05 z"
       transform="translate(-43.1,-37.14)"
       id="path57"
       inkscape:connector-curvature="0" />
    <path
       d="m 650,385.31 -11.08,11.22 a 3.53,3.53 0 0 0 0,5 l 11.29,11.57 a 3.53,3.53 0 0 0 5,0.1 l 11.07,-10.45 a 3.54,3.54 0 0 0 0.19,-5 L 655.12,385.4 A 3.54,3.54 0 0 0 650,385.31 Z"
       transform="translate(-43.1,-37.14)"
       id="path59"
       inkscape:connector-curvature="0" />
    <path
       d="m 606,429.3 -11.09,11.22 a 3.54,3.54 0 0 0 0,5 L 606.19,457 a 3.53,3.53 0 0 0 4.95,0.11 l 11.08,-10.46 a 3.52,3.52 0 0 0 0.18,-4.95 L 611.12,429.4 A 3.53,3.53 0 0 0 606,429.3 Z"
       transform="translate(-43.1,-37.14)"
       id="path61"
       inkscape:connector-curvature="0" />
    <path
       d="m 670.74,406.05 -11.09,11.22 a 3.53,3.53 0 0 0 0,5 l 11.28,11.57 a 3.54,3.54 0 0 0 5,0.11 L 687,423.44 a 3.55,3.55 0 0 0 0.18,-5 L 675.9,406.11 a 3.52,3.52 0 0 0 -5.16,-0.06 z"
       transform="translate(-43.1,-37.14)"
       id="path63"
       inkscape:connector-curvature="0" />
    <path
       d="m 692.51,427.83 -11.08,11.22 a 3.53,3.53 0 0 0 0,4.95 l 11.29,11.57 a 3.53,3.53 0 0 0 5,0.1 l 11.07,-10.45 a 3.54,3.54 0 0 0 0.19,-5 L 697.7,427.88 a 3.54,3.54 0 0 0 -5.19,-0.05 z"
       transform="translate(-43.1,-37.14)"
       id="path65"
       inkscape:connector-curvature="0" />
    <path
       d="m 714.54,449.85 -11.08,11.23 a 3.53,3.53 0 0 0 0,4.95 l 11.29,11.57 a 3.52,3.52 0 0 0 4.95,0.1 l 11.08,-10.45 a 3.54,3.54 0 0 0 0.19,-5 L 719.67,450 a 3.55,3.55 0 0 0 -5.13,-0.15 z"
       transform="translate(-43.1,-37.14)"
       id="path67"
       inkscape:connector-curvature="0" />
    <path
       d="m 627.45,449.34 -11.09,11.22 a 3.53,3.53 0 0 0 0,4.95 l 11.28,11.57 a 3.53,3.53 0 0 0 5,0.1 l 11.08,-10.45 a 3.55,3.55 0 0 0 0.18,-5 L 632.62,449.4 a 3.52,3.52 0 0 0 -5.17,-0.06 z"
       transform="translate(-43.1,-37.14)"
       id="path69"
       inkscape:connector-curvature="0" />
    <path
       d="m 649.22,471.11 -11.08,11.23 a 3.53,3.53 0 0 0 0,5 l 11.29,11.57 a 3.53,3.53 0 0 0 5,0.1 l 11.07,-10.45 a 3.54,3.54 0 0 0 0.19,-5 l -11.28,-12.34 a 3.54,3.54 0 0 0 -5.19,-0.11 z"
       transform="translate(-43.1,-37.14)"
       id="path71"
       inkscape:connector-curvature="0" />
    <path
       d="m 671.25,493.14 -11.08,11.23 a 3.53,3.53 0 0 0 0,4.95 l 11.29,11.57 a 3.54,3.54 0 0 0 5,0.1 l 11.07,-10.46 a 3.52,3.52 0 0 0 0.19,-4.95 l -11.28,-12.34 a 3.54,3.54 0 0 0 -5.19,-0.1 z"
       transform="translate(-43.1,-37.14)"
       id="path73"
       inkscape:connector-curvature="0" />
    <path
       d="m 736.57,471.88 -11.08,11.23 a 3.53,3.53 0 0 0 0,4.95 l 11.29,11.57 a 3.53,3.53 0 0 0 5,0.1 l 11.08,-10.45 a 3.53,3.53 0 0 0 0.18,-5 L 741.69,472 a 3.53,3.53 0 0 0 -5.12,-0.12 z"
       transform="translate(-43.1,-37.14)"
       id="path75"
       inkscape:connector-curvature="0" />
    <path
       d="m 758.6,493.91 -11.09,11.23 a 3.53,3.53 0 0 0 0,4.95 l 11.29,11.57 a 3.53,3.53 0 0 0 5,0.1 l 11.08,-10.46 a 3.52,3.52 0 0 0 0.18,-4.95 L 763.72,494 a 3.53,3.53 0 0 0 -5.12,-0.09 z"
       transform="translate(-43.1,-37.14)"
       id="path77"
       inkscape:connector-curvature="0" />
    <path
       d="m 782,514.53 -13.77,14 a 1.65,1.65 0 0 0 0,2.32 L 782.11,545 a 1.65,1.65 0 0 0 2.32,0 l 13.77,-13 a 1.66,1.66 0 0 0 0.08,-2.32 l -13.86,-15.16 a 1.66,1.66 0 0 0 -2.42,0.01 z"
       transform="translate(-43.1,-37.14)"
       id="path79"
       inkscape:connector-curvature="0" />
    <path
       d="m 801.52,534 -13.77,14 a 1.65,1.65 0 0 0 0,2.32 l 13.87,14.21 a 1.65,1.65 0 0 0 2.32,0 l 13.77,-13 a 1.66,1.66 0 0 0 0.08,-2.32 L 803.93,534.05 A 1.66,1.66 0 0 0 801.52,534 Z"
       transform="translate(-43.1,-37.14)"
       id="path81"
       inkscape:connector-curvature="0" />
    <path
       d="m 823.36,555.87 -13.78,14 a 1.65,1.65 0 0 0 0,2.31 l 13.86,14.22 a 1.66,1.66 0 0 0 2.32,0 l 13.77,-13 a 1.65,1.65 0 0 0 0.09,-2.32 l -13.86,-15.16 a 1.66,1.66 0 0 0 -2.4,-0.05 z"
       transform="translate(-43.1,-37.14)"
       id="path83"
       inkscape:connector-curvature="0" />
    <path
       d="m 844.51,577 -13.77,14 a 1.65,1.65 0 0 0 0,2.32 l 13.86,14.21 a 1.67,1.67 0 0 0 2.33,0 l 13.76,-13 a 1.65,1.65 0 0 0 0.09,-2.32 L 846.92,577.05 A 1.66,1.66 0 0 0 844.51,577 Z"
       transform="translate(-43.1,-37.14)"
       id="path85"
       inkscape:connector-curvature="0" />
    <path
       d="M 671.58,448.76 660.49,460 a 3.53,3.53 0 0 0 0,4.95 l 11.29,11.57 a 3.52,3.52 0 0 0 5,0.1 l 11.08,-10.45 a 3.54,3.54 0 0 0 0.18,-5 L 676.7,448.86 a 3.52,3.52 0 0 0 -5.12,-0.1 z"
       transform="translate(-43.1,-37.14)"
       id="path87"
       inkscape:connector-curvature="0" />
    <path
       d="M 693.61,470.79 682.52,482 a 3.53,3.53 0 0 0 0,4.95 l 11.29,11.57 a 3.52,3.52 0 0 0 5,0.1 l 11.08,-10.45 a 3.55,3.55 0 0 0 0.18,-5 l -11.28,-12.33 a 3.52,3.52 0 0 0 -5.18,-0.05 z"
       transform="translate(-43.1,-37.14)"
       id="path89"
       inkscape:connector-curvature="0" />
    <path
       d="M 715.64,492.82 704.55,504 a 3.53,3.53 0 0 0 0,4.95 l 11.28,11.57 a 3.53,3.53 0 0 0 5,0.1 l 11.08,-10.45 a 3.55,3.55 0 0 0 0.18,-5 l -11.28,-12.34 a 3.53,3.53 0 0 0 -5.17,-0.01 z"
       transform="translate(-43.1,-37.14)"
       id="path91"
       inkscape:connector-curvature="0" />
    <path
       d="m 737.67,514.85 -11.09,11.22 a 3.53,3.53 0 0 0 0,4.95 l 11.28,11.57 a 3.53,3.53 0 0 0 5,0.1 l 11.08,-10.45 a 3.55,3.55 0 0 0 0.18,-5 L 742.84,514.9 a 3.53,3.53 0 0 0 -5.17,-0.05 z"
       transform="translate(-43.1,-37.14)"
       id="path93"
       inkscape:connector-curvature="0" />
    <path
       d="m 761.09,535.47 -13.78,13.94 a 1.66,1.66 0 0 0 0,2.32 l 13.86,14.21 a 1.65,1.65 0 0 0 2.32,0 l 13.77,-13 a 1.65,1.65 0 0 0 0.09,-2.32 l -13.86,-15.17 a 1.65,1.65 0 0 0 -2.4,0.02 z"
       transform="translate(-43.1,-37.14)"
       id="path95"
       inkscape:connector-curvature="0" />
    <path
       d="m 780.59,555 -13.78,13.94 a 1.66,1.66 0 0 0 0,2.32 l 13.86,14.21 a 1.65,1.65 0 0 0 2.32,0 l 13.77,-13 a 1.65,1.65 0 0 0 0.09,-2.32 L 783,555 a 1.65,1.65 0 0 0 -2.41,0 z"
       transform="translate(-43.1,-37.14)"
       id="path97"
       inkscape:connector-curvature="0" />
    <path
       d="m 802.42,576.8 -13.77,14 a 1.66,1.66 0 0 0 0,2.32 l 13.86,14.21 a 1.65,1.65 0 0 0 2.32,0.05 l 13.77,-13 a 1.65,1.65 0 0 0 0.09,-2.32 L 804.82,576.9 a 1.66,1.66 0 0 0 -2.4,-0.1 z"
       transform="translate(-43.1,-37.14)"
       id="path99"
       inkscape:connector-curvature="0" />
    <path
       d="m 823.58,598 -13.78,13.9 a 1.66,1.66 0 0 0 0,2.32 l 13.86,14.21 a 1.65,1.65 0 0 0 2.32,0.05 l 13.77,-13 a 1.65,1.65 0 0 0 0.09,-2.32 L 826,598 a 1.64,1.64 0 0 0 -2.42,0 z"
       transform="translate(-43.1,-37.14)"
       id="path101"
       inkscape:connector-curvature="0" />
    <path
       d="m 865.66,598.17 -13.77,14 a 1.65,1.65 0 0 0 0,2.32 l 13.87,14.21 a 1.65,1.65 0 0 0 2.32,0.05 l 13.77,-13 a 1.66,1.66 0 0 0 0.08,-2.32 l -13.86,-15.16 a 1.66,1.66 0 0 0 -2.41,-0.1 z"
       transform="translate(-43.1,-37.14)"
       id="path103"
       inkscape:connector-curvature="0" />
    <path
       d="M 886.81,619.33 873,633.27 a 1.65,1.65 0 0 0 0,2.32 l 13.9,14.21 a 1.65,1.65 0 0 0 2.32,0.05 l 13.77,-13 a 1.66,1.66 0 0 0 0.08,-2.32 l -13.86,-15.16 a 1.65,1.65 0 0 0 -2.4,-0.04 z"
       transform="translate(-43.1,-37.14)"
       id="path105"
       inkscape:connector-curvature="0" />
    <path
       d="m 779.66,599.57 -13,13.13 a 2.22,2.22 0 0 0 0,3.11 l 13.09,13.42 a 2.22,2.22 0 0 0 3.11,0.06 l 13,-12.23 A 2.23,2.23 0 0 0 796,614 l -13.09,-14.32 a 2.23,2.23 0 0 0 -3.25,-0.11 z"
       transform="translate(-43.1,-37.14)"
       id="path107"
       inkscape:connector-curvature="0" />
    <path
       d="m 800.81,620.72 -13,13.13 a 2.22,2.22 0 0 0 0,3.11 l 13.09,13.42 a 2.22,2.22 0 0 0 3.11,0.06 l 13,-12.23 a 2.22,2.22 0 0 0 0.12,-3.11 L 804,620.78 a 2.23,2.23 0 0 0 -3.19,-0.06 z"
       transform="translate(-43.1,-37.14)"
       id="path109"
       inkscape:connector-curvature="0" />
    <path
       d="M 822,641.87 809,655 a 2.22,2.22 0 0 0 0,3.11 l 13.09,13.42 a 2.22,2.22 0 0 0 3.11,0.07 l 13,-12.24 a 2.21,2.21 0 0 0 0.12,-3.11 L 825.23,641.94 A 2.21,2.21 0 0 0 822,641.87 Z"
       transform="translate(-43.1,-37.14)"
       id="path111"
       inkscape:connector-curvature="0" />
    <path
       d="m 843.53,662.6 -13.77,13.95 a 1.66,1.66 0 0 0 0,2.32 l 13.87,14.21 a 1.65,1.65 0 0 0 2.32,0 l 13.77,-13 a 1.65,1.65 0 0 0 0.08,-2.32 L 845.94,662.6 a 1.66,1.66 0 0 0 -2.41,0 z"
       transform="translate(-43.1,-37.14)"
       id="path113"
       inkscape:connector-curvature="0" />
    <path
       d="M 628.2,405.94 616.38,418 a 3.53,3.53 0 0 0 0,5 l 33,32.67 a 3.54,3.54 0 0 0 4.91,0.06 l 12.32,-11.59 a 3.54,3.54 0 0 0 0.07,-5.09 l -33.5,-33.14 a 3.53,3.53 0 0 0 -4.98,0.03 z"
       transform="translate(-43.1,-37.14)"
       id="path115"
       inkscape:connector-curvature="0" />
    <path
       d="M 844.21,619.28 829.76,634 a 1.68,1.68 0 0 0 0,2.34 l 35.61,35.25 a 1.65,1.65 0 0 0 2.3,0 l 15.06,-14.17 a 1.65,1.65 0 0 0 0,-2.38 L 846.5,619.2 a 1.66,1.66 0 0 0 -2.29,0.08 z"
       transform="translate(-43.1,-37.14)"
       id="path117"
       inkscape:connector-curvature="0" />
    <path
       d="m 694,513.82 -13.79,13.66 a 1.64,1.64 0 0 0 0,2.33 L 757,608.52 a 1.66,1.66 0 0 0 2.32,0 l 15,-14.15 a 1.65,1.65 0 0 0 0,-2.37 l -78,-78.21 a 1.66,1.66 0 0 0 -2.32,0.03 z"
       transform="translate(-43.1,-37.14)"
       id="path119"
       inkscape:connector-curvature="0" />
  </g>
  <path
     d="m 317.63278,357.64655 -8.12314,8.21072 a 2.576342,2.576342 0 0 0 0,3.61272 l 8.23262,8.44427 a 2.5836404,2.5836404 0 0 0 3.64921,0.073 l 8.08665,-7.63415 a 2.576342,2.576342 0 0 0 0.13137,-3.61272 l -8.23262,-9.00625 a 2.576342,2.576342 0 0 0 -3.74409,-0.0876 z"
     id="path123"
     inkscape:connector-curvature="0"
     style="fill:#464a5f;stroke-width:0.72984195" />
  <path
     d="m 332.7697,372.79077 -8.09394,8.18883 a 2.576342,2.576342 0 0 0 0,3.61272 l 8.23261,8.44427 a 2.576342,2.576342 0 0 0 3.64921,0.073 l 8.08665,-7.62685 a 2.5909388,2.5909388 0 0 0 0.13137,-3.64921 l -8.26181,-8.97705 a 2.576342,2.576342 0 0 0 -3.74409,-0.0657 z"
     id="path125"
     inkscape:connector-curvature="0"
     style="fill:#464a5f;stroke-width:0.72984195" />
  <path
     d="m 348.66566,388.67943 -8.09395,8.19613 a 2.5836404,2.5836404 0 0 0 0,3.61271 l 8.22532,8.42968 a 2.5836404,2.5836404 0 0 0 3.64921,0.073 l 8.08665,-7.63414 a 2.576342,2.576342 0 0 0 0.13137,-3.64921 l -8.23261,-9.00625 a 2.576342,2.576342 0 0 0 -3.76599,-0.0219 z"
     id="path127"
     inkscape:connector-curvature="0"
     style="fill:#464a5f;stroke-width:0.72984195" />
  <path
     d="m 364.73678,404.75785 -8.08665,8.18883 a 2.5909388,2.5909388 0 0 0 0,3.6492 l 8.23992,8.44428 a 2.5836404,2.5836404 0 0 0 3.64921,0.073 l 8.07935,-7.63415 a 2.5690436,2.5690436 0 0 0 0.13867,-3.61271 l -8.27641,-9.03545 a 2.5836404,2.5836404 0 0 0 -3.74409,-0.073 z"
     id="path129"
     inkscape:connector-curvature="0"
     style="fill:#464a5f;stroke-width:0.72984195" />
  <path
     d="m 380.8152,420.83627 -8.08665,8.18882 a 2.5836404,2.5836404 0 0 0 0,3.64921 l 8.23992,8.43697 a 2.5836404,2.5836404 0 0 0 3.6492,0.0803 l 8.07935,-7.63415 a 2.5690436,2.5690436 0 0 0 0.13867,-3.64921 l -8.23261,-9.00625 a 2.5836404,2.5836404 0 0 0 -3.78788,-0.0657 z"
     id="path131"
     inkscape:connector-curvature="0"
     style="fill:#464a5f;stroke-width:0.72984195" />
  <path
     d="m 397.9081,435.9221 -10.04993,10.1448 a 1.2042392,1.2042392 0 0 0 0,1.68594 l 10.12291,10.37835 a 1.2115376,1.2115376 0 0 0 1.69323,0.0365 l 10.04993,-9.48794 a 1.2042392,1.2042392 0 0 0 0.0584,-1.69324 l -10.1229,-11.0644 a 1.2115376,1.2115376 0 0 0 -1.75162,0 z"
     id="path133"
     inkscape:connector-curvature="0"
     style="fill:#464a5f;stroke-width:0.72984195" />
  <path
     d="m 413.98651,451.97862 -10.04992,10.1813 a 1.2042392,1.2042392 0 0 0 0,1.68593 l 10.12291,10.37835 a 1.2115376,1.2115376 0 0 0 1.69323,0 l 10.04992,-9.48794 a 1.2042392,1.2042392 0 0 0 0.0584,-1.69324 l -10.12291,-11.0644 a 1.2115376,1.2115376 0 0 0 -1.75162,0 z"
     id="path135"
     inkscape:connector-curvature="0"
     style="fill:#464a5f;stroke-width:0.72984195" />
  <path
     d="m 428.21843,466.19594 -10.04992,10.1813 a 1.2042392,1.2042392 0 0 0 0,1.68593 l 10.11561,10.40755 a 1.2115376,1.2115376 0 0 0 1.69323,0 l 10.04992,-9.48795 a 1.2042392,1.2042392 0 0 0 0.0584,-1.69323 l -10.11561,-11.0644 a 1.2115376,1.2115376 0 0 0 -1.75162,-0.0292 z"
     id="path137"
     inkscape:connector-curvature="0"
     style="fill:#464a5f;stroke-width:0.72984195" />
  <path
     d="m 444.15818,482.13569 -10.04992,10.174 a 1.2042392,1.2042392 0 0 0 0,1.69323 l 10.1229,10.37105 a 1.2042392,1.2042392 0 0 0 1.69324,0.0365 l 10.04992,-9.48795 a 1.2115376,1.2115376 0 0 0 0.0584,-1.69323 L 445.9171,482.15758 a 1.2115376,1.2115376 0 0 0 -1.75892,-0.0219 z"
     id="path139"
     inkscape:connector-curvature="0"
     style="fill:#464a5f;stroke-width:0.72984195" />
  <path
     d="m 459.59434,497.57185 -10.04993,10.17399 a 1.2042392,1.2042392 0 0 0 0,1.69324 l 10.11561,10.41484 a 1.2115376,1.2115376 0 0 0 1.69323,0 l 10.04993,-9.48794 a 1.2115376,1.2115376 0 0 0 0.0584,-1.69324 l -10.14481,-11.0644 a 1.2115376,1.2115376 0 0 0 -1.72242,-0.0365 z"
     id="path141"
     inkscape:connector-curvature="0"
     style="fill:#464a5f;stroke-width:0.72984195" />
  <path
     d="m 475.03049,513.008 -10.04992,10.21779 a 1.2042392,1.2042392 0 0 0 0,1.68593 l 10.12291,10.37836 a 1.2115376,1.2115376 0 0 0 1.69323,0 l 10.04992,-9.48795 a 1.2042392,1.2042392 0 0 0 0.0584,-1.69323 l -10.11561,-11.0644 a 1.2115376,1.2115376 0 0 0 -1.75892,-0.0365 z"
     id="path143"
     inkscape:connector-curvature="0"
     style="fill:#464a5f;stroke-width:0.72984195" />
  <path
     d="m 490.46665,528.44416 -10.04992,10.21779 a 1.2115376,1.2115376 0 0 0 0,1.69323 l 10.09371,10.33456 a 1.2115376,1.2115376 0 0 0 1.69323,0 l 10.04993,-9.48794 a 1.2042392,1.2042392 0 0 0 0.0584,-1.69324 l -10.11561,-11.0644 a 1.2115376,1.2115376 0 0 0 -1.72972,0 z"
     id="path145"
     inkscape:connector-curvature="0"
     style="fill:#464a5f;stroke-width:0.72984195" />
  <path
     d="m 302.94106,372.34557 -8.08664,8.18883 a 2.576342,2.576342 0 0 0 0,3.61271 l 8.23991,8.44427 a 2.576342,2.576342 0 0 0 3.64921,0.073 l 8.07935,-7.62685 a 2.5836404,2.5836404 0 0 0 0.13867,-3.64921 l -8.2837,-8.96246 a 2.5836404,2.5836404 0 0 0 -3.7368,-0.0803 z"
     id="path147"
     inkscape:connector-curvature="0"
     style="fill:#464a5f;stroke-width:0.72984195" />
  <path
     d="m 270.82802,404.45132 -8.09395,8.18882 a 2.5836404,2.5836404 0 0 0 0,3.64921 l 8.23992,8.43697 a 2.576342,2.576342 0 0 0 3.61272,0.0803 l 8.08664,-7.63415 a 2.5836404,2.5836404 0 0 0 0.13138,-3.64921 l -8.23992,-8.98435 a 2.5690436,2.5690436 0 0 0 -3.73679,-0.0876 z"
     id="path149"
     inkscape:connector-curvature="0"
     style="fill:#464a5f;stroke-width:0.72984195" />
  <path
     d="m 318.07799,387.48249 -8.09395,8.18883 a 2.576342,2.576342 0 0 0 0,3.61271 l 8.23262,8.44428 a 2.576342,2.576342 0 0 0 3.64921,0.073 l 8.07935,-7.64145 a 2.5909388,2.5909388 0 0 0 0.13137,-3.64921 l -8.23262,-8.99895 a 2.5690436,2.5690436 0 0 0 -3.76598,-0.0292 z"
     id="path151"
     inkscape:connector-curvature="0"
     style="fill:#464a5f;stroke-width:0.72984195" />
  <path
     d="m 333.96665,403.37115 -8.08665,8.19612 a 2.576342,2.576342 0 0 0 0,3.61272 l 8.23991,8.44427 a 2.576342,2.576342 0 0 0 3.64921,0.073 l 8.07935,-7.62685 a 2.5836404,2.5836404 0 0 0 0.13867,-3.64921 l -8.27641,-8.97706 a 2.5909388,2.5909388 0 0 0 -3.74408,-0.073 z"
     id="path153"
     inkscape:connector-curvature="0"
     style="fill:#464a5f;stroke-width:0.72984195" />
  <path
     d="m 350.04506,419.44957 -8.08665,8.19612 a 2.576342,2.576342 0 0 0 0,3.61272 l 8.23992,8.44427 a 2.576342,2.576342 0 0 0 3.61272,0.073 l 8.08665,-7.62684 a 2.5836404,2.5836404 0 0 0 0.13867,-3.64921 l -8.23262,-9.00625 a 2.5836404,2.5836404 0 0 0 -3.75869,-0.0438 z"
     id="path155"
     inkscape:connector-curvature="0"
     style="fill:#464a5f;stroke-width:0.72984195" />
  <path
     d="m 286.48313,419.07735 -8.09395,8.18882 a 2.576342,2.576342 0 0 0 0,3.61272 l 8.23262,8.44427 a 2.576342,2.576342 0 0 0 3.64921,0.073 l 8.08665,-7.62685 a 2.5909388,2.5909388 0 0 0 0.13137,-3.64921 l -8.26911,-8.98436 a 2.5690436,2.5690436 0 0 0 -3.73679,-0.0584 z"
     id="path157"
     inkscape:connector-curvature="0"
     style="fill:#464a5f;stroke-width:0.72984195" />
  <path
     d="m 302.37179,434.96601 -8.08665,8.19612 a 2.576342,2.576342 0 0 0 0,3.61272 l 8.23992,8.44427 a 2.5836404,2.5836404 0 0 0 3.6492,0.073 l 8.07935,-7.62684 a 2.5836404,2.5836404 0 0 0 0.13867,-3.64921 l -8.23261,-9.00625 a 2.5836404,2.5836404 0 0 0 -3.78788,-0.0438 z"
     id="path159"
     inkscape:connector-curvature="0"
     style="fill:#464a5f;stroke-width:0.72984195" />
  <path
     d="m 318.45021,451.04442 -8.08665,8.23262 a 2.576342,2.576342 0 0 0 0,3.61272 l 8.23991,8.44427 a 2.5836404,2.5836404 0 0 0 3.64921,0.073 l 8.07935,-7.63414 a 2.5690436,2.5690436 0 0 0 0.13867,-3.61272 l -8.23261,-9.00625 a 2.5836404,2.5836404 0 0 0 -3.78788,-0.10948 z"
     id="path161"
     inkscape:connector-curvature="0"
     style="fill:#464a5f;stroke-width:0.72984195" />
  <path
     d="m 366.12348,435.52798 -8.08665,8.19613 a 2.576342,2.576342 0 0 0 0,3.61272 l 8.23992,8.44427 a 2.576342,2.576342 0 0 0 3.64921,0.073 l 8.08665,-7.63414 a 2.5690436,2.5690436 0 0 0 0.13137,-3.64921 l -8.23262,-9.00625 a 2.576342,2.576342 0 0 0 -3.78788,-0.0365 z"
     id="path163"
     inkscape:connector-curvature="0"
     style="fill:#464a5f;stroke-width:0.72984195" />
  <path
     d="m 382.2019,451.6064 -8.09395,8.19613 a 2.576342,2.576342 0 0 0 0,3.61271 l 8.23992,8.44428 a 2.576342,2.576342 0 0 0 3.64921,0.073 l 8.08664,-7.63415 a 2.5690436,2.5690436 0 0 0 0.13138,-3.61271 l -8.23262,-9.00625 a 2.576342,2.576342 0 0 0 -3.78058,-0.073 z"
     id="path165"
     inkscape:connector-curvature="0"
     style="fill:#464a5f;stroke-width:0.72984195" />
  <path
     d="m 399.2802,466.65574 -10.04992,10.1813 a 1.2042392,1.2042392 0 0 0 0,1.69323 l 10.1229,10.37105 a 1.2042392,1.2042392 0 0 0 1.69324,0 l 10.04992,-9.48794 a 1.2115376,1.2115376 0 0 0 0.0584,-1.69323 l -10.11561,-11.06441 a 1.2115376,1.2115376 0 0 0 -1.75892,0 z"
     id="path167"
     inkscape:connector-curvature="0"
     style="fill:#464a5f;stroke-width:0.72984195" />
  <path
     d="m 413.52671,480.88766 -10.04992,10.18129 a 1.2042392,1.2042392 0 0 0 0,1.69324 l 10.12291,10.37105 a 1.2042392,1.2042392 0 0 0 1.69323,0 l 10.04992,-9.48794 a 1.2115376,1.2115376 0 0 0 0.0584,-1.69324 l -10.11561,-11.0644 a 1.2115376,1.2115376 0 0 0 -1.75892,0 z"
     id="path169"
     inkscape:connector-curvature="0"
     style="fill:#464a5f;stroke-width:0.72984195" />
  <path
     d="m 429.46646,496.82741 -10.05722,10.18129 a 1.2042392,1.2042392 0 0 0 0,1.68594 l 10.11561,10.37835 a 1.2115376,1.2115376 0 0 0 1.69323,0 l 10.04993,-9.48795 a 1.2042392,1.2042392 0 0 0 0.0657,-1.69323 L 431.21808,496.8639 a 1.2115376,1.2115376 0 0 0 -1.75162,-0.0365 z"
     id="path171"
     inkscape:connector-curvature="0"
     style="fill:#464a5f;stroke-width:0.72984195" />
  <path
     d="m 444.90262,512.26356 -10.04993,10.1813 a 1.2042392,1.2042392 0 0 0 0,1.69323 l 10.11561,10.37106 a 1.218836,1.218836 0 0 0 1.70054,0 l 10.04262,-9.48795 a 1.2042392,1.2042392 0 0 0 0.0657,-1.69323 l -10.11561,-11.06441 a 1.2115376,1.2115376 0 0 0 -1.75892,0 z"
     id="path173"
     inkscape:connector-curvature="0"
     style="fill:#464a5f;stroke-width:0.72984195" />
  <path
     d="m 318.69105,418.65404 -8.09394,8.18883 a 2.576342,2.576342 0 0 0 0,3.61271 l 8.23991,8.44427 a 2.5690436,2.5690436 0 0 0 3.64921,0.073 l 8.08665,-7.62685 a 2.5836404,2.5836404 0 0 0 0.13137,-3.64921 l -8.27641,-8.96976 a 2.5690436,2.5690436 0 0 0 -3.73679,-0.073 z"
     id="path175"
     inkscape:connector-curvature="0"
     style="fill:#464a5f;stroke-width:0.72984195" />
  <path
     d="m 334.76947,434.73246 -8.09395,8.18882 a 2.576342,2.576342 0 0 0 0,3.64921 l 8.23992,8.44427 a 2.5690436,2.5690436 0 0 0 3.64921,0.073 l 8.08665,-7.62685 a 2.5909388,2.5909388 0 0 0 0.13137,-3.64921 l -8.23262,-8.99895 a 2.5690436,2.5690436 0 0 0 -3.78058,-0.0803 z"
     id="path177"
     inkscape:connector-curvature="0"
     style="fill:#464a5f;stroke-width:0.72984195" />
  <path
     d="m 350.84789,450.81087 -8.09395,8.18883 a 2.576342,2.576342 0 0 0 0,3.61272 l 8.23262,8.44427 a 2.576342,2.576342 0 0 0 3.64921,0.073 l 8.08665,-7.62684 a 2.5909388,2.5909388 0 0 0 0.13137,-3.64921 l -8.23262,-9.00625 a 2.576342,2.576342 0 0 0 -3.77328,-0.0365 z"
     id="path179"
     inkscape:connector-curvature="0"
     style="fill:#464a5f;stroke-width:0.72984195" />
  <path
     d="m 366.92631,466.88199 -8.09395,8.19613 a 2.576342,2.576342 0 0 0 0,3.64921 l 8.23262,8.44427 a 2.576342,2.576342 0 0 0 3.64921,0.073 l 8.08664,-7.62685 a 2.5909388,2.5909388 0 0 0 0.13138,-3.6492 l -8.23262,-9.00625 a 2.5836404,2.5836404 0 0 0 -3.77328,-0.0803 z"
     id="path181"
     inkscape:connector-curvature="0"
     style="fill:#464a5f;stroke-width:0.72984195" />
  <path
     d="m 384.0192,481.93863 -10.05722,10.1813 a 1.2115376,1.2115376 0 0 0 0,1.69323 l 10.11561,10.37105 a 1.2042392,1.2042392 0 0 0 1.69324,0.0365 l 10.04992,-9.48795 a 1.2115376,1.2115376 0 0 0 0.0657,-1.70053 l -10.1156,-11.0644 a 1.2042392,1.2042392 0 0 0 -1.75163,-0.0292 z"
     id="path183"
     inkscape:connector-curvature="0"
     style="fill:#464a5f;stroke-width:0.72984195" />
  <path
     d="m 398.25112,496.17055 -10.05722,10.174 a 1.2115376,1.2115376 0 0 0 0,1.69323 l 10.11561,10.35646 a 1.2042392,1.2042392 0 0 0 1.69323,0.0365 l 10.04993,-9.48795 a 1.2115376,1.2115376 0 0 0 0.0657,-1.70053 l -10.10831,-11.04251 a 1.2042392,1.2042392 0 0 0 -1.75892,-0.0292 z"
     id="path185"
     inkscape:connector-curvature="0"
     style="fill:#464a5f;stroke-width:0.72984195" />
  <path
     d="m 414.18357,512.103 -10.04992,10.21779 a 1.2115376,1.2115376 0 0 0 0,1.69323 l 10.11561,10.37105 a 1.2042392,1.2042392 0 0 0 1.69323,0 l 10.04992,-9.48794 a 1.2042392,1.2042392 0 0 0 0.0657,-1.69324 l -10.12291,-11.0644 a 1.2115376,1.2115376 0 0 0 -1.75162,-0.0365 z"
     id="path187"
     inkscape:connector-curvature="0"
     style="fill:#464a5f;stroke-width:0.72984195" />
  <path
     d="m 429.62703,527.54645 -10.05723,10.174 a 1.2115376,1.2115376 0 0 0 0,1.69323 l 10.11561,10.36376 a 1.2042392,1.2042392 0 0 0 1.69324,0 l 10.04992,-9.48795 a 1.2042392,1.2042392 0 0 0 0.0657,-1.69323 l -10.10102,-11.02061 a 1.1969408,1.1969408 0 0 0 -1.76621,-0.0292 z"
     id="path189"
     inkscape:connector-curvature="0"
     style="fill:#464a5f;stroke-width:0.72984195" />
  <path
     d="m 460.33877,527.69972 -10.04992,10.21779 a 1.2042392,1.2042392 0 0 0 0,1.69323 l 10.12291,10.37106 a 1.2042392,1.2042392 0 0 0 1.69323,0 l 10.04993,-9.48795 a 1.2115376,1.2115376 0 0 0 0.0584,-1.69323 l -10.1229,-11.06441 a 1.2115376,1.2115376 0 0 0 -1.75163,-0.0365 z"
     id="path191"
     inkscape:connector-curvature="0"
     style="fill:#464a5f;stroke-width:0.72984195" />
  <path
     d="m 475.77493,543.13588 -10.04992,10.21778 a 1.2042392,1.2042392 0 0 0 0,1.69324 l 10.12291,10.37105 a 1.2042392,1.2042392 0 0 0 1.69323,0 l 10.04992,-9.48794 a 1.2115376,1.2115376 0 0 0 0.0584,-1.69324 l -10.12291,-11.02791 a 1.2115376,1.2115376 0 0 0 -1.75162,-0.073 z"
     id="path193"
     inkscape:connector-curvature="0"
     style="fill:#464a5f;stroke-width:0.72984195" />
  <path
     d="m 397.57237,528.7215 -9.48795,9.58282 a 1.6202491,1.6202491 0 0 0 0,2.26981 l 9.55363,9.79448 a 1.6202491,1.6202491 0 0 0 2.26981,0.0438 l 9.48795,-8.92596 a 1.6275475,1.6275475 0 0 0 0.0876,-2.26981 l -9.55363,-10.45134 a 1.6275475,1.6275475 0 0 0 -2.35739,-0.0438 z"
     id="path195"
     inkscape:connector-curvature="0"
     style="fill:#464a5f;stroke-width:0.72984195" />
  <path
     d="m 413.00853,544.15766 -9.48795,9.58282 a 1.6202491,1.6202491 0 0 0 0,2.26981 l 9.57553,9.82367 a 1.6202491,1.6202491 0 0 0 2.24061,0 l 9.48795,-8.92597 a 1.6202491,1.6202491 0 0 0 0.0876,-2.2698 l -9.57553,-10.43674 a 1.6275475,1.6275475 0 0 0 -2.32819,-0.0438 z"
     id="path197"
     inkscape:connector-curvature="0"
     style="fill:#464a5f;stroke-width:0.72984195" />
  <path
     d="m 428.47388,559.59381 -9.48795,9.58283 a 1.6202491,1.6202491 0 0 0 0,2.26981 l 9.55363,9.79447 a 1.6129507,1.6129507 0 0 0 2.26981,0.0438 l 9.48795,-8.92597 a 1.6129507,1.6129507 0 0 0 0.0876,-2.26981 l -9.55363,-10.45134 a 1.6202491,1.6202491 0 0 0 -2.35739,-0.0438 z"
     id="path199"
     inkscape:connector-curvature="0"
     style="fill:#464a5f;stroke-width:0.72984195" />
  <path
     d="m 444.18737,574.72344 -10.04992,10.21778 a 1.2115376,1.2115376 0 0 0 0,1.69324 l 10.12291,10.37105 a 1.2115376,1.2115376 0 0 0 1.69323,0.0365 l 10.04992,-9.48794 a 1.2042392,1.2042392 0 0 0 0.0584,-1.69324 l -10.11561,-11.0644 a 1.2115376,1.2115376 0 0 0 -1.75892,-0.073 z"
     id="path201"
     inkscape:connector-curvature="0"
     style="fill:#464a5f;stroke-width:0.72984195" />
  <path
     d="m 287.03051,387.40221 -8.62673,8.80919 a 2.576342,2.576342 0 0 0 0,3.64921 l 24.08478,23.84394 a 2.5836404,2.5836404 0 0 0 3.58353,0.0438 l 8.99165,-8.45887 a 2.5836404,2.5836404 0 0 0 0.0511,-3.7149 l -24.44971,-24.18696 a 2.576342,2.576342 0 0 0 -3.63461,0.0146 z"
     id="path203"
     inkscape:connector-curvature="0"
     style="fill:#464a5f;stroke-width:0.72984195" />
  <path
     d="m 444.68367,543.10668 -10.54622,10.76517 a 1.2261344,1.2261344 0 0 0 0,1.70783 l 25.98967,25.72693 a 1.2042392,1.2042392 0 0 0 1.67864,0 l 10.99142,-10.34186 a 1.2042392,1.2042392 0 0 0 0,-1.73702 L 446.355,543.07019 a 1.2042392,1.2042392 0 0 0 -1.67133,0.0365 z"
     id="path205"
     inkscape:connector-curvature="0"
     style="fill:#464a5f;stroke-width:0.72984195" />
  <path
     d="m 335.05411,466.13755 -10.06452,9.96965 a 1.1969408,1.1969408 0 0 0 0,1.70053 l 56.04456,57.44586 a 1.2115376,1.2115376 0 0 0 1.69323,0 l 10.94763,-10.32727 a 1.2042392,1.2042392 0 0 0 0,-1.72972 l -56.92767,-57.08094 a 1.2115376,1.2115376 0 0 0 -1.69323,0.0219 z"
     id="path207"
     inkscape:connector-curvature="0"
     style="fill:#464a5f;stroke-width:0.72984195" />
  <path
     d="m 295.51857,473.14404 -44.25031,43.95838 a 6.5685773,6.5685773 0 0 0 -0.073,9.2398 l 81.84448,84.04859 a 6.5685773,6.5685773 0 0 0 9.31278,0.10218 l 45.56403,-44.81959 a 6.5685773,6.5685773 0 0 0 0.0365,-9.32008 l -83.15819,-83.20928 a 6.5685773,6.5685773 0 0 0 -9.27629,0 z"
     id="path209"
     inkscape:connector-curvature="0"
     style="opacity:0.1;stroke-width:0.72984195" />
  <path
     d="m 295.51857,471.34133 -44.25031,43.99487 a 6.5685773,6.5685773 0 0 0 -0.073,9.2398 l 81.84448,84.04859 a 6.5685773,6.5685773 0 0 0 9.31278,0.10218 l 45.56403,-44.81959 a 6.5685773,6.5685773 0 0 0 0.0365,-9.32008 l -83.15819,-83.20198 a 6.5685773,6.5685773 0 0 0 -9.27629,-0.0438 z"
     id="path211"
     inkscape:connector-curvature="0"
     style="fill:#939498;stroke-width:0.72984195" />
  <path
     d="m 338.02457,240.66019 -11.20308,78.32664 207.58164,206.91748 10.56811,-77.64058 a 13.721028,13.721028 0 0 0 -3.90465,-11.5534 L 342.62987,239.11293 a 2.715012,2.715012 0 0 0 -4.6053,1.54726 z"
     id="path213"
     inkscape:connector-curvature="0"
     style="fill:#6c63ff;stroke-width:0.72984195" />
  <ellipse
     cx="215.36905"
     cy="618.01764"
     rx="16.866648"
     ry="2.3135989"
     id="ellipse215"
     style="opacity:0.1;fill:#6c63ff;stroke-width:0.72984195" />
  <ellipse
     cx="150.74886"
     cy="624.57166"
     rx="16.866648"
     ry="2.3135989"
     id="ellipse217"
     style="opacity:0.1;fill:#6c63ff;stroke-width:0.72984195" />
  <ellipse
     cx="74.64093"
     cy="615.7041"
     rx="16.866648"
     ry="2.3135989"
     id="ellipse219"
     style="opacity:0.1;fill:#6c63ff;stroke-width:0.72984195" />
  <ellipse
     cx="176.61446"
     cy="643.22644"
     rx="11.991303"
     ry="1.6494428"
     id="ellipse221"
     style="opacity:0.1;fill:#6c63ff;stroke-width:0.72984195" />
  <ellipse
     cx="109.54928"
     cy="641.57697"
     rx="11.991303"
     ry="1.6494428"
     id="ellipse223"
     style="opacity:0.1;fill:#6c63ff;stroke-width:0.72984195" />
  <path
     d="m 150.39123,624.05345 c 0,0 23.65417,-77.553 -3.7076,-108.57858 -20.43557,-23.23817 -43.69564,-20.43558 -54.103182,-17.58189 a 19.224036,19.224036 0 0 0 -12.407312,10.30536 c -3.64921,7.8531 -2.977755,20.58885 22.698084,35.45573 43.00229,24.8949 45.67351,59.04421 45.67351,59.04421 z"
     id="path225"
     inkscape:connector-curvature="0"
     style="fill:#6c63ff;stroke-width:0.72984195" />
  <path
     d="m 96.26615,508.8552 c 0,0 69.74369,21.80038 54.11048,115.19825"
     stroke-miterlimit="10"
     id="path227"
     inkscape:connector-curvature="0"
     style="fill:none;stroke:#565987;stroke-width:0.72984195;stroke-miterlimit:10" />
  <path
     d="m 137.01322,516.67181 c 0,0 -9.59742,6.4664 -6.56857,16.19519"
     stroke-miterlimit="10"
     id="path229"
     inkscape:connector-curvature="0"
     style="fill:none;stroke:#565987;stroke-width:0.72984195;stroke-miterlimit:10" />
  <path
     d="m 103.27993,522.43026 c 0,0 5.83874,-5.9701 13.01308,-2.67852"
     stroke-miterlimit="10"
     id="path231"
     inkscape:connector-curvature="0"
     style="fill:none;stroke:#565987;stroke-width:0.72984195;stroke-miterlimit:10" />
  <path
     d="m 130.84606,552.46326 c 0,0 10.30537,-5.23297 12.97659,1.32101"
     stroke-miterlimit="10"
     id="path233"
     inkscape:connector-curvature="0"
     style="fill:none;stroke:#565987;stroke-width:0.72984195;stroke-miterlimit:10" />
  <path
     d="m 156.35404,563.3671 c 0,0 -7.74363,-0.61307 -7.8823,3.08723"
     stroke-miterlimit="10"
     id="path235"
     inkscape:connector-curvature="0"
     style="fill:none;stroke:#565987;stroke-width:0.72984195;stroke-miterlimit:10" />
  <path
     d="m 151.34732,624.67382 c 0,0 -27.73399,-56.36569 -35.32435,-55.13226 -3.61272,0.58387 -5.27676,4.1382 -6.02849,7.71443 a 22.741874,22.741874 0 0 0 1.50347,13.72103 c 3.93385,9.02084 14.49466,26.15023 39.84937,33.6968 z"
     id="path237"
     inkscape:connector-curvature="0"
     style="fill:#6c63ff;stroke-width:0.72984195" />
  <path
     d="m 116.23463,580.23374 c 0,0 29.0769,42.17757 34.69668,44.02407"
     stroke-miterlimit="10"
     id="path239"
     inkscape:connector-curvature="0"
     style="fill:none;stroke:#565987;stroke-width:0.72984195;stroke-miterlimit:10" />
  <line
     x1="113.5561"
     y1="586.81689"
     x2="120.34364"
     y2="586.81689"
     stroke-miterlimit="10"
     id="line241"
     style="fill:none;stroke:#565987;stroke-width:0.72984195;stroke-miterlimit:10" />
  <line
     x1="121.68654"
     y1="602.24579"
     x2="132.32764"
     y2="602.69824"
     stroke-miterlimit="10"
     id="line243"
     style="fill:none;stroke:#565987;stroke-width:0.72984195;stroke-miterlimit:10" />
  <line
     x1="128.16025"
     y1="589.90417"
     x2="127.0071"
     y2="595.4436"
     stroke-miterlimit="10"
     id="line245"
     style="fill:none;stroke:#565987;stroke-width:0.72984195;stroke-miterlimit:10" />
  <line
     x1="139.48009"
     y1="606.77081"
     x2="139.26845"
     y2="611.8067"
     stroke-miterlimit="10"
     id="line247"
     style="fill:none;stroke:#565987;stroke-width:0.72984195;stroke-miterlimit:10" />
  <path
     d="m 150.5226,624.67382 c 0,0 27.73399,-56.36569 35.31705,-55.13226 3.64921,0.58387 5.28406,4.1382 6.03579,7.71443 a 22.683487,22.683487 0 0 1 -1.51077,13.72103 c -3.92655,9.02084 -14.48736,26.15023 -39.84207,33.6968 z"
     id="path249"
     inkscape:connector-curvature="0"
     style="fill:#6c63ff;stroke-width:0.72984195" />
  <path
     d="m 185.63529,580.23374 c 0,0 -29.0842,42.17757 -34.70398,44.02407"
     stroke-miterlimit="10"
     id="path251"
     inkscape:connector-curvature="0"
     style="fill:none;stroke:#565987;stroke-width:0.72984195;stroke-miterlimit:10" />
  <line
     x1="188.30652"
     y1="586.81689"
     x2="181.519"
     y2="586.81689"
     stroke-miterlimit="10"
     id="line253"
     style="fill:none;stroke:#565987;stroke-width:0.72984195;stroke-miterlimit:10" />
  <line
     x1="180.17607"
     y1="602.24579"
     x2="169.53497"
     y2="602.69824"
     stroke-miterlimit="10"
     id="line255"
     style="fill:none;stroke:#565987;stroke-width:0.72984195;stroke-miterlimit:10" />
  <line
     x1="173.70238"
     y1="589.90417"
     x2="174.85553"
     y2="595.4436"
     stroke-miterlimit="10"
     id="line257"
     style="fill:none;stroke:#565987;stroke-width:0.72984195;stroke-miterlimit:10" />
  <line
     x1="162.38983"
     y1="606.77081"
     x2="162.59418"
     y2="611.8067"
     stroke-miterlimit="10"
     id="line259"
     style="fill:none;stroke:#565987;stroke-width:0.72984195;stroke-miterlimit:10" />
  <path
     d="m 102.9442,637.83287 a 4.7804646,4.7804646 0 0 1 -1.57645,-2.37929 2.1165416,2.1165416 0 0 1 1.10206,-2.42307 c 1.01448,-0.38682 2.09464,0.31383 2.91936,1.02178 0.82473,0.70794 1.76622,1.51807 2.83909,1.3721 a 4.3060674,4.3060674 0 0 1 -1.33561,-4.03603 1.6421443,1.6421443 0 0 1 0.37222,-0.82472 c 0.56198,-0.59847 1.57646,-0.34302 2.24791,0.13137 2.14574,1.50348 2.73691,4.37906 2.75151,7.02838 a 13.239333,13.239333 0 0 0 0.0365,-2.91937 2.9850535,2.9850535 0 0 1 1.08746,-2.56174 3.3207808,3.3207808 0 0 1 1.65674,-0.38682 3.4156602,3.4156602 0 0 1 2.69312,0.72984 c 0.81742,0.87581 0.60577,2.3355 -0.10948,3.29889 a 10.378352,10.378352 0 0 1 -2.78069,2.23332 6.1160753,6.1160753 0 0 0 -1.99247,1.89759 2.0216621,2.0216621 0 0 0 -0.14597,0.33572 h -6.0285 a 16.822856,16.822856 0 0 1 -3.73679,-2.51795 z"
     id="path261"
     inkscape:connector-curvature="0"
     style="fill:#6c63ff;stroke-width:0.72984195" />
  <path
     d="m 208.53044,615.13478 a 4.8242551,4.8242551 0 0 1 -1.58376,-2.37928 2.12384,2.12384 0 0 1 1.10206,-2.42308 c 1.01448,-0.38681 2.09465,0.31384 2.91937,1.02178 0.82472,0.70795 1.75892,1.51807 2.83178,1.36481 a 4.3206642,4.3206642 0 0 1 -1.33561,-4.03603 1.7151285,1.7151285 0 0 1 0.37222,-0.81742 c 0.56198,-0.60577 1.57646,-0.34303 2.25521,0.13137 2.13844,1.50347 2.73691,4.37905 2.74421,7.02108 a 13.180945,13.180945 0 0 0 0.0438,-2.91937 2.9193677,2.9193677 0 0 1 1.08746,-2.56174 3.2113045,3.2113045 0 0 1 1.65675,-0.38682 3.4302571,3.4302571 0 0 1 2.68581,0.72984 c 0.81743,0.87581 0.60577,2.34279 -0.10217,3.30619 a 10.385651,10.385651 0 0 1 -2.788,2.18952 6.3204311,6.3204311 0 0 0 -1.98517,1.89759 1.6202491,1.6202491 0 0 0 -0.14597,0.34303 h -6.03579 a 16.786364,16.786364 0 0 1 -3.72219,-2.48147 z"
     id="path263"
     inkscape:connector-curvature="0"
     style="fill:#6c63ff;stroke-width:0.72984195" />
  <path
     d="m 173.33746,637.83287 a 4.7804646,4.7804646 0 0 1 -1.57646,-2.37929 2.1165416,2.1165416 0 0 1 1.10206,-2.42307 c 1.01448,-0.38682 2.09465,0.31383 2.91937,1.02178 0.82472,0.70794 1.76622,1.51807 2.83908,1.3721 a 4.3060674,4.3060674 0 0 1 -1.33561,-4.03603 1.6421443,1.6421443 0 0 1 0.37222,-0.82472 c 0.56198,-0.59847 1.57646,-0.34302 2.24791,0.13137 2.13844,1.50348 2.73691,4.37906 2.75151,7.02838 a 13.239333,13.239333 0 0 0 0.0365,-2.91937 2.9850535,2.9850535 0 0 1 1.08017,-2.55444 3.3207808,3.3207808 0 0 1 1.65674,-0.38682 3.4156602,3.4156602 0 0 1 2.69311,0.72984 c 0.81743,0.87581 0.60577,2.3355 -0.10947,3.29889 a 10.378352,10.378352 0 0 1 -2.7807,2.23331 6.1160753,6.1160753 0 0 0 -1.99247,1.89759 2.0216621,2.0216621 0 0 0 -0.14597,0.33573 h -6.02849 a 16.822856,16.822856 0 0 1 -3.72949,-2.52525 z"
     id="path265"
     inkscape:connector-curvature="0"
     style="fill:#6c63ff;stroke-width:0.72984195" />
  <path
     d="m 73.546171,591.94771 c 0,0 -2.26251,2.95586 1.043674,7.41519 3.306184,4.45933 6.028494,8.23262 4.926433,11.01331 0,0 -4.984821,-8.291 -9.042742,-8.40048 -4.057921,-0.10947 -1.393998,-5.0432 3.072635,-10.02802 z"
     id="path267"
     inkscape:connector-curvature="0"
     style="fill:#6c63ff;stroke-width:0.72984195" />
  <path
     d="m 73.546171,591.94771 a 3.7221938,3.7221938 0 0 0 -0.459801,0.9269 c -3.963041,4.64909 -6.072284,8.99165 -2.262509,9.10112 3.539733,0.0949 7.794711,6.43721 8.809192,8.02827 a 3.0361424,3.0361424 0 0 1 -0.116775,0.36492 c 0,0 -4.984821,-8.29101 -9.042742,-8.40048 -4.057921,-0.10948 -1.393998,-5.03591 3.072635,-10.02073 z"
     id="path269"
     inkscape:connector-curvature="0"
     style="opacity:0.1;stroke-width:0.72984195" />
  <path
     d="m 69.342281,595.71369 c 0,1.04367 0.116775,1.88299 0.262743,1.88299 0.145969,0 0.262744,-0.83932 0.262744,-1.88299 0,-1.04367 -0.145969,-0.54738 -0.291937,-0.54738 -0.145969,0 -0.23355,-0.49629 -0.23355,0.54738 z"
     id="path271"
     inkscape:connector-curvature="0"
     style="fill:#ffd037;stroke-width:0.72984195" />
  <path
     d="m 67.904493,596.95442 c 0.912302,0.49629 1.70783,0.80283 1.773516,0.67146 0.06569,-0.13138 -0.613068,-0.62767 -1.52537,-1.13126 -0.912302,-0.50359 -0.55468,-0.13137 -0.620366,0 -0.06569,0.13137 -0.540083,-0.007 0.37222,0.4598 z"
     id="path273"
     inkscape:connector-curvature="0"
     style="fill:#ffd037;stroke-width:0.72984195" />
  <path
     d="m 85.486385,591.94771 c 0,0 2.255211,2.95586 -1.043674,7.41519 -3.298886,4.45933 -6.028494,8.23262 -4.926433,11.01331 0,0 4.98482,-8.291 9.042741,-8.40048 4.057921,-0.10947 1.3867,-5.0432 -3.072634,-10.02802 z"
     id="path275"
     inkscape:connector-curvature="0"
     style="fill:#6c63ff;stroke-width:0.72984195" />
  <path
     d="m 85.486385,591.94771 a 3.7221938,3.7221938 0 0 1 0.4598,0.9269 c 3.955743,4.64909 6.064987,8.99165 2.26251,9.10112 -3.547032,0.0949 -7.794712,6.43721 -8.81649,8.02827 a 3.0653361,3.0653361 0 0 0 0.124073,0.36492 c 0,0 4.98482,-8.29101 9.042741,-8.40048 4.057921,-0.10948 1.3867,-5.03591 -3.072634,-10.02073 z"
     id="path277"
     inkscape:connector-curvature="0"
     style="opacity:0.1;stroke-width:0.72984195" />
  <path
     d="m 89.697573,595.71369 c 0,1.04367 -0.116775,1.88299 -0.255445,1.88299 -0.13867,0 -0.262743,-0.83932 -0.262743,-1.88299 0,-1.04367 0.145968,-0.54738 0.291937,-0.54738 0.145968,0 0.226251,-0.49629 0.226251,0.54738 z"
     id="path279"
     inkscape:connector-curvature="0"
     style="fill:#ffd037;stroke-width:0.72984195" />
  <path
     d="m 91.157257,596.95442 c -0.912303,0.49629 -1.707831,0.80283 -1.780815,0.67146 -0.07298,-0.13138 0.620366,-0.62767 1.532668,-1.13126 0.912303,-0.50359 0.55468,-0.13137 0.620366,0 0.06569,0.13137 0.510889,-0.007 -0.372219,0.4598 z"
     id="path281"
     inkscape:connector-curvature="0"
     style="fill:#ffd037;stroke-width:0.72984195" />
  <path
     d="m 88.967731,609.9894 c 0,0 -6.320431,-0.19706 -8.225319,-1.54727 -1.904887,-1.3502 -9.721494,-2.97775 -10.217787,-0.80282 -0.496292,2.17493 -9.487945,10.81625 -2.357389,10.87464 7.130556,0.0584 16.57471,-1.10936 18.479597,-2.26981 1.904888,-1.16045 2.320898,-6.25474 2.320898,-6.25474 z"
     id="path283"
     inkscape:connector-curvature="0"
     style="fill:#a8a8a8;stroke-width:0.72984195" />
  <path
     d="m 68.05776,617.75492 c 7.137854,0.0584 16.582008,-1.10936 18.479597,-2.26981 1.459684,-0.88311 2.021662,-4.04333 2.189526,-5.50301 h 0.240848 c 0,0 -0.401413,5.10889 -2.299002,6.25475 -1.897589,1.14585 -11.349042,2.32819 -18.479598,2.2698 -2.058154,0 -2.773399,-0.72984 -2.736907,-1.8319 0.291937,0.65686 1.072868,1.06557 2.605536,1.08017 z"
     id="path285"
     inkscape:connector-curvature="0"
     style="opacity:0.2;stroke-width:0.72984195" />
  <path
     d="m 212.23803,470.95451 c 0,0 -6.4737,3.57623 -5.24756,7.03568 1.22613,3.45945 5.24756,-7.03568 5.24756,-7.03568 z"
     id="path325"
     inkscape:connector-curvature="0"
     style="opacity:0.1;stroke-width:0.72984195" />
  <circle
     cx="15.78648"
     cy="197.16658"
     r="15.78648"
     id="circle369"
     style="opacity:0.1;fill:#6c63ff;stroke-width:0.72984195" />
  <circle
     cx="444.28397"
     cy="150.64877"
     r="15.78648"
     id="circle371"
     style="opacity:0.1;fill:#6c63ff;stroke-width:0.72984195" />
  <circle
     cx="694.72925"
     cy="213.01378"
     r="15.78648"
     id="circle373"
     style="opacity:0.1;fill:#6c63ff;stroke-width:0.72984195" />
  <circle
     cx="47.352142"
     cy="284.25861"
     r="26.45677"
     id="circle375"
     style="opacity:0.1;fill:#6c63ff;stroke-width:0.72984195" />
  <circle
     cx="350.49698"
     cy="736.19098"
     r="26.45677"
     id="circle377"
     style="opacity:0.1;fill:#6c63ff;stroke-width:0.72984195" />
  <circle
     cx="722.94489"
     cy="680.93732"
     r="26.45677"
     id="circle379"
     style="opacity:0.1;fill:#6c63ff;stroke-width:0.72984195" />
</svg>
