<svg
   xmlns:dc="http://purl.org/dc/elements/1.1/"
   xmlns:cc="http://creativecommons.org/ns#"
   xmlns:rdf="http://www.w3.org/1999/02/22-rdf-syntax-ns#"
   xmlns:svg="http://www.w3.org/2000/svg"
   xmlns="http://www.w3.org/2000/svg"
   version="1.1"
   viewBox="0 0 787.26998 787.27"
   height="787.27002"
   width="787.27002"
   data-name="Layer 1"
   id="b759170a-51c3-4e2f-999d-77dec9fd6d11">
  <metadata
     id="metadata324">
    <rdf:RDF>
      <cc:Work
         rdf:about="">
        <dc:format>image/svg+xml</dc:format>
        <dc:type
           rdf:resource="http://purl.org/dc/dcmitype/StillImage" />
        <dc:title>maker launch</dc:title>
      </cc:Work>
    </rdf:RDF>
  </metadata>
  <defs
     id="defs9">
    <linearGradient
       gradientUnits="userSpaceOnUse"
       y2="338.32999"
       x2="852.39001"
       y1="835.88"
       x1="852.39001"
       id="c518dc33-18b9-48bc-b516-0f83ad79191e">
      <stop
         id="stop2"
         stop-opacity="0.25"
         stop-color="gray"
         offset="0" />
      <stop
         id="stop4"
         stop-opacity="0.12"
         stop-color="gray"
         offset="0.54" />
      <stop
         id="stop6"
         stop-opacity="0.1"
         stop-color="gray"
         offset="1" />
    </linearGradient>
  </defs>
  <title
     id="title11">maker launch</title>
  <path
     style="opacity:0.1;fill:#6c63ff;stroke-width:0.72406149"
     id="path13"
     d="m 9.647742,533.67462 c 14.59708,-23.84333 47.607043,-19.68723 71.015947,-7.24061 23.408911,12.44662 46.767131,31.02604 72.529241,27.45642 21.72184,-3.0121 39.53375,-21.95355 49.15654,-43.80573 9.62277,-21.85217 12.44661,-46.49198 15.1546,-70.62495 q 5.10463,-45.4783 10.20203,-91.01453 c 1.24538,-11.09986 2.71522,-22.81517 8.95663,-31.59804 8.24707,-11.58498 23.36547,-15.14736 36.29721,-11.66464 12.93173,3.48274 23.95919,12.82313 33.39371,23.24238 30.22233,33.36476 47.34639,78.46655 73.76739,115.59641 5.37977,7.55921 11.45465,15.03152 19.49173,18.6808 11.58498,5.24944 24.88599,1.53501 36.20308,-4.30817 36.92713,-19.03558 61.73347,-57.88148 86.11262,-94.12799 11.86013,-17.61642 26.31964,-36.4565 46.05032,-38.37526 20.75884,-2.06358 38.78073,15.62525 50.98117,34.35671 39.15724,60.27088 47.54911,142.55323 94.85204,195.12009 5.87215,6.51655 12.3525,12.54075 19.81757,16.58825 a 51.154943,51.154943 0 0 0 7.67505,3.36689 c 41.27151,14.28573 55.02867,71.6314 24.50224,105.63333 -0.6589,0.72405 -1.33227,1.44812 -2.01289,2.17218 -4.53263,4.78604 -9.66622,9.31143 -15.79178,10.73783 -5.69837,1.31779 -11.58498,-0.20274 -17.23267,-1.84636 -36.1017,-10.53509 -71.76897,-26.63822 -109.09434,-25.85624 -36.31892,0.72407 -70.76977,17.50057 -106.68322,23.53924 -24.14745,4.06199 -48.71485,3.25104 -73.13021,2.37493 Q 319.88636,687.68974 197.96165,681.8683 C 157.61694,680.0147 117.25776,678.24799 76.920298,676.18441 45.843575,674.56975 26.047734,671.01461 22.441909,634.94911 19.285,603.36555 -9.0692474,564.25898 9.647742,533.67462 Z" />
  <path
     style="fill:#6c63ff"
     id="path17"
     d="m 165.38878,610.10589 c 0,0 13.2,-3 21.85,5.87 0,0 -5.56,5 -18.64,-0.54 z" />
  <path
     style="fill:#6c63ff"
     id="path19"
     d="m 163.92878,609.97589 c 0,0 -7.82,11.08 -2.86,22.45 0,0 6.76,-3.25 6.57,-17.45 z" />
  <path
     style="fill:#6c63ff"
     id="path21"
     d="m 155.12878,593.27589 c 0,0 4.69,-10.15 27,2.12 0,0 -2.4,6.78 -11.88,6.88 -9.48,0.1 -12.32,-4.01 -15.12,-9 z" />
  <path
     style="fill:#6c63ff"
     id="path23"
     d="m 153.70878,592.65589 c 0,0 -11.17,-0.52 -10.54,24.92 0,0 7.13,1 11.58,-7.38 4.45,-8.38 2.09,-12.71 -1.04,-17.54 z" />
  <path
     style="fill:#6c63ff"
     id="path25"
     d="m 145.92878,572.85589 c 0,0 5,-17.68 28.47,-6.88 0,0 -4.1,16.19 -25.8,12.64 z" />
  <path
     style="fill:#6c63ff"
     id="path27"
     d="m 137.21877,547.51589 c 0,0 10.58001,-18.24 32.49001,-3.44 0,0 -6.19,16.87 -30.29001,9.55 z" />
  <path
     style="fill:#6c63ff"
     id="path29"
     d="m 133.07877,523.11589 c 0,0 12.63001,-16.95 34.36001,-2.31 0,0 -12.06,14.94 -34.09001,6.4 z" />
  <path
     style="fill:#6c63ff"
     id="path31"
     d="m 129.33877,499.39589 c 0,0 12.76001,-17.66 33.59001,-3.15 0,0 -14.68,15.83 -33.33001,7.07 z" />
  <path
     style="fill:#6c63ff"
     id="path33"
     d="m 129.15878,478.13589 c 0,0 13.15,-22.53 32.65,-9.17 0,0 -14.42,19.57 -32.37,13.26 z" />
  <path
     style="fill:#6c63ff"
     id="path35"
     d="m 130.92878,453.15589 c 0,0 14,-22.4 33.09,-7.18 0,0 -17.1,19.75 -32.87,11.15 z" />
  <path
     style="fill:#6c63ff"
     id="path37"
     d="m 134.55877,430.69589 c 0,0 17.00001,-21.31 33.55001,-14.37 0,0 -17.68,22.6 -34.00001,19.76 z" />
  <path
     style="fill:#6c63ff"
     id="path39"
     d="m 139.55877,409.29589 c 0,0 19.54001,-26 32.37001,-18.62 0,0 -14.31,20.09 -33.58001,23.35 z" />
  <path
     style="fill:#6c63ff"
     id="path41"
     d="m 147.17878,384.35589 c 0,0 17.17,-21.32 31,-17.24 0,0 -14.45,21.89 -33.1,23.68 z" />
  <path
     style="fill:#6c63ff"
     id="path43"
     d="m 154.02878,361.04589 c 0,0 19.18,-20.6 28.31,-17.82 0,0 -13.35,22.36 -28.92,22.15 z" />
  <path
     style="fill:#6c63ff"
     id="path45"
     d="m 160.79878,339.48589 c 0,0 16.09,-24.15 25.82,-23 0,0 -9.31,21.19 -25.66,25.33 z" />
  <path
     style="fill:#6c63ff"
     id="path47"
     d="m 167.78878,310.57589 c 0,0 14.39,-18.66 22.81,-19.18 0,0 -10.71,24.34 -23.07,25 z" />
  <path
     style="fill:#6c63ff"
     id="path49"
     d="m 171.78878,291.36589 12.58,-37.69 c 0,0 3,33.1 -14,44.62 z" />
  <path
     style="fill:#6c63ff"
     id="path51"
     d="m 175.17878,250.50589 c 0,0 0.44,-30.79 -1.33,-33.17 0,0 12.47,24.74 2.14,46.71 z" />
  <path
     style="fill:#6c63ff"
     id="path53"
     d="m 145.28878,572.48589 c 0,0 -16.26001,-8.62 -24.77,15.73 0,0 14.5,8.28 27,-9.81 z" />
  <path
     style="fill:#6c63ff"
     id="path55"
     d="m 136.64878,546.56589 c 0,0 -19.72,-7.45 -27.35,17.88 0,0 15.47,9.15 29.51,-11.76 z" />
  <path
     style="fill:#6c63ff"
     id="path57"
     d="m 132.28878,524.64589 c 0,0 -14.79001,-15.11 -34.360005,2.33 0,0 13.940005,13.19 34.629995,1.79 z" />
  <path
     style="fill:#6c63ff"
     id="path59"
     d="m 128.86878,499.43589 c 0,0 -15,-15.81 -33.710005,1.36 0,0 16.659995,13.73 33.999995,2.55 z" />
  <path
     style="fill:#6c63ff"
     id="path61"
     d="m 129.19877,478.73589 c 0,0 -11.36,-23.47 -31.829995,-11.67 0,0 12.860005,20.63 31.239995,15.74 z" />
  <path
     style="fill:#6c63ff"
     id="path63"
     d="m 132.09878,452.97589 c 0,0 -11.33,-23.9 -32.06,-11.07 0,0 14.66,21.61 31.34,14.93 z" />
  <path
     style="fill:#6c63ff"
     id="path65"
     d="m 136.62878,430.67589 c 0,0 -5.64,-26.65 -23.55,-27.87 0,0 5.68,28.13 21.51,32.88 z" />
  <path
     style="fill:#6c63ff"
     id="path67"
     d="m 140.01878,409.31589 c 0,0 -3.67,-32.31 -18.46,-32.46 0,0 2.15,24.57 17.11,37.15 z" />
  <path
     style="fill:#6c63ff"
     id="path69"
     d="m 148.64878,383.32589 c 0,0 -6.21,-26.66 -20.47,-29 0,0 3.5,26 19.53,35.72 z" />
  <path
     style="fill:#6c63ff"
     id="path71"
     d="m 155.70878,361.12589 c 0,0 -2,-28.07 -10.9,-31.62 0,0 -3.61,25.78 8.65,35.38 z" />
  <path
     style="fill:#6c63ff"
     id="path73"
     d="m 161.43878,339.13589 c 0,0 -3.15,-28.85 -12.31,-32.32 0,0 -1.5,23.09 11.1,34.3 z" />
  <path
     style="fill:#6c63ff"
     id="path75"
     d="m 169.18878,312.79589 c 0,0 -1.64,-23.51 -8.35,-28.61 0,0 -4.58,26.19 5.35,33.56 z" />
  <path
     style="fill:#6c63ff"
     id="path77"
     d="m 170.92878,290.25589 -8.8,-38.74 c 0,0 -6.23,32.64 9.57,45.78 z" />
  <path
     style="fill:#6c63ff"
     id="path79"
     d="m 169.55878,251.25589 c 0,0 -17.63,-25.28 -17.49,-28.22 0,0 3.54,27.48 24.41,39.89 z" />
  <path
     style="fill:#6c63ff"
     id="path81"
     d="m 170.92878,243.36589 c 0,0 -17.46,-36.39 -24.43,-39 0,0 22.09,9.43 25.61,37.8 z" />
  <path
     style="fill:#444053"
     id="path83"
     d="m 167.46878,316.58589 -1,-0.25 c 9.85,-42 11.24,-68.48 3.9,-74.56 l 0.68,-0.82 c 7.74,6.44 6.52,32.6 -3.58,75.63 z" />
  <path
     style="fill:#444053"
     id="path85"
     d="m 139.18878,415.24589 -1.55,-0.43 c 1.09,-3.86 2.27,-7.79 3.53,-11.66 11,-33.72 20.14,-65 25.75,-88.94 l 1.27,-0.75 c -5.62,24 -14.51,56.43 -25.49,90.18 -1.25,3.86 -2.43,7.76 -3.51,11.6 z" />
  <path
     style="fill:#444053"
     id="path87"
     d="m 186.23878,639.64589 c -0.22,-0.21 -22.22,-21.87 -39.12,-60.24 a 232.37,232.37 0 0 1 -18.61001,-70.77 c -3,-30.53 1.1,-65.13 10,-96.9 l 1.28,1.32 c -20,71.31 -6.19,130.34 9.23001,165.4 16.73,38 38.48,59.45 38.7,59.66 z" />
  <path
     style="fill:#6c63ff"
     id="path89"
     d="m 210.45878,525.43589 c 0,0 8,-1.83 13.22,3.55 0,0 -3.37,3 -11.27,-0.33 z" />
  <path
     style="fill:#6c63ff"
     id="path91"
     d="m 209.58878,525.36589 c 0,0 -4.72,6.7 -1.72,13.57 0,0 4.08,-2 4,-10.55 z" />
  <path
     style="fill:#6c63ff"
     id="path93"
     d="m 204.26878,515.25589 c 0,0 2.83,-6.13 16.3,1.29 0,0 -1.45,4.09 -7.18,4.15 -5.73,0.06 -7.41,-2.42 -9.12,-5.44 z" />
  <path
     style="fill:#6c63ff"
     id="path95"
     d="m 203.40878,514.88589 c 0,0 -6.76,-0.31 -6.38,15.06 0,0 4.31,0.6 7,-4.46 2.69,-5.06 1.27,-7.68 -0.62,-10.6 z" />
  <path
     style="fill:#6c63ff"
     id="path97"
     d="m 198.67878,502.91589 c 0,0 3.07,-10.69 17.23,-4.18 0,0 -2.47,9.79 -15.59,7.64 z" />
  <path
     style="fill:#6c63ff"
     id="path99"
     d="m 193.43878,487.59589 c 0,0 6.39,-11 19.64,-2.08 0,0 -3.75,10.2 -18.31,5.77 z" />
  <path
     style="fill:#6c63ff"
     id="path101"
     d="m 190.92878,472.84589 c 0,0 7.64,-10.25 20.77,-1.4 0,0 -7.28,9 -20.6,3.87 z" />
  <path
     style="fill:#6c63ff"
     id="path103"
     d="m 188.66878,458.50589 c 0,0 7.72,-10.68 20.31,-1.9 0,0 -8.87,9.57 -20.15,4.27 z" />
  <path
     style="fill:#6c63ff"
     id="path105"
     d="m 188.56878,445.64589 c 0,0 8,-13.61 19.73,-5.54 0,0 -8.72,11.83 -19.57,8 z" />
  <path
     style="fill:#6c63ff"
     id="path107"
     d="m 189.60878,430.55589 c 0,0 8.49,-13.55 20,-4.38 0,0 -10.34,11.94 -19.88,6.74 z" />
  <path
     style="fill:#6c63ff"
     id="path109"
     d="m 191.82878,416.97589 c 0,0 10.27,-12.88 20.28,-8.68 0,0 -10.69,13.66 -20.53,11.94 z" />
  <path
     style="fill:#6c63ff"
     id="path111"
     d="m 194.84878,404.03589 c 0,0 11.81,-15.71 19.57,-11.26 0,0 -8.65,12.15 -20.3,14.12 z" />
  <path
     style="fill:#6c63ff"
     id="path113"
     d="m 199.45878,388.97589 c 0,0 10.38,-12.89 18.76,-10.42 0,0 -8.73,13.23 -20,14.31 z" />
  <path
     style="fill:#6c63ff"
     id="path115"
     d="m 203.59878,374.86589 c 0,0 11.59,-12.45 17.11,-10.77 0,0 -8.06,13.51 -17.48,13.39 z" />
  <path
     style="fill:#6c63ff"
     id="path117"
     d="m 207.68878,361.83589 c 0,0 9.73,-14.6 15.61,-13.92 0,0 -5.62,12.81 -15.51,15.32 z" />
  <path
     style="fill:#6c63ff"
     id="path119"
     d="m 211.92878,344.35589 c 0,0 8.7,-11.28 13.79,-11.6 0,0 -6.48,14.72 -13.95,15.09 z" />
  <path
     style="fill:#6c63ff"
     id="path121"
     d="m 214.33878,332.73589 7.59,-22.76 c 0,0 1.8,20 -8.49,27 z" />
  <path
     style="fill:#6c63ff"
     id="path123"
     d="m 297.75164,263.64745 c 0,0 4.394,-18.0857 3.67121,-19.72767 0,0 4.0248,16.25285 -5.02543,27.81918 z" />
  <path
     style="fill:#6c63ff"
     id="path125"
     d="m 198.30878,502.69589 c 0,0 -9.82,-5.22 -15,9.5 0,0 8.77,5 16.33,-5.92 z" />
  <path
     style="fill:#6c63ff"
     id="path127"
     d="m 193.09878,486.97589 c 0,0 -11.93,-4.5 -16.54,10.81 0,0 9.35,5.53 17.84,-7.1 z" />
  <path
     style="fill:#6c63ff"
     id="path129"
     d="m 190.44878,473.76589 c 0,0 -8.93,-9.13 -20.77,1.4 0,0 8.43,8 20.94,1.08 z" />
  <path
     style="fill:#6c63ff"
     id="path131"
     d="m 188.38878,458.52589 c 0,0 -9.07,-9.55 -20.38,0.83 0,0 10.07,8.29 20.54,1.54 z" />
  <path
     style="fill:#6c63ff"
     id="path133"
     d="m 188.58878,445.97589 c 0,0 -6.87,-14.19 -19.25,-7.06 0,0 7.78,12.47 18.89,9.52 z" />
  <path
     style="fill:#6c63ff"
     id="path135"
     d="m 190.33878,430.42589 c 0,0 -6.85,-14.45 -19.41,-6.69 0,0 8.86,13.07 18.95,9 z" />
  <path
     style="fill:#6c63ff"
     id="path137"
     d="m 193.07878,416.97589 c 0,0 -3.41,-16.12 -14.24,-16.85 0,0 3.43,17 13,19.87 z" />
  <path
     style="fill:#6c63ff"
     id="path139"
     d="m 195.12878,404.04589 c 0,0 -2.2,-19.53 -11.2,-19.63 0,0 1.3,14.86 10.34,22.47 z" />
  <path
     style="fill:#6c63ff"
     id="path141"
     d="m 200.33878,388.33589 c 0,0 -3.75,-16.12 -12.37,-17.54 0,0 2.12,15.71 11.81,21.59 z" />
  <path
     style="fill:#6c63ff"
     id="path143"
     d="m 204.60878,374.91589 c 0,0 -1.23,-17 -6.58,-19.12 0,0 -2.19,15.59 5.22,21.39 z" />
  <path
     style="fill:#6c63ff"
     id="path145"
     d="m 208.07878,361.61589 c 0,0 -1.9,-17.44 -7.44,-19.54 0,0 -0.91,14 6.71,20.74 z" />
  <path
     style="fill:#6c63ff"
     id="path147"
     d="m 212.75878,345.69589 c 0,0 -1,-14.21 -5,-17.3 0,0 -2.77,15.84 3.23,20.29 z" />
  <path
     style="fill:#6c63ff"
     id="path149"
     d="m 213.83878,332.06589 -5.32,-23.42 c 0,0 -3.77,19.74 5.78,27.68 z" />
  <path
     style="fill:#6c63ff"
     id="path151"
     d="m 212.98878,308.49589 c 0,0 -10.65,-15.27 -10.57,-17.06 0,0 2.13,16.61 14.75,24.11 z" />
  <path
     style="fill:#6c63ff"
     id="path153"
     d="m 213.78878,303.71589 c 0,0 -10.56,-22 -14.77,-23.55 0,0 13.36,5.7 15.48,22.86 z" />
  <path
     style="fill:#444053"
     id="path155"
     d="m 211.71878,347.97589 -0.63,-0.15 c 6,-25.39 6.8,-41.4 2.36,-45.07 l 0.41,-0.5 c 4.71,3.9 3.97,19.72 -2.14,45.72 z" />
  <path
     style="fill:#444053"
     id="path157"
     d="m 194.62878,407.63589 -0.94,-0.27 c 0.66,-2.33 1.38,-4.7 2.14,-7 6.63,-20.39 12.17,-39.3 15.56,-53.77 l 0.77,-0.46 c -3.4,14.5 -8.77,34.12 -15.41,54.53 -0.76,2.31 -1.47,4.64 -2.12,6.97 z" />
  <path
     style="fill:#444053"
     id="path159"
     d="m 223.06878,543.29589 c -0.13,-0.13 -13.43,-13.22 -23.65,-36.42 a 140.72,140.72 0 0 1 -11.25,-42.78 c -1.83,-18.46 0.67,-39.38 6.06,-58.59 l 0.77,0.8 c -12.09,43.11 -3.74,78.8 5.58,100 10.12,23 23.26,35.93 23.4,36.06 z" />
  <path
     style="fill:#afc0e0"
     id="path161"
     d="m 270.12302,549.93616 a 38.24,38.24 0 0 0 -7.78814,0.41769 c -57.38042,8.99904 -87.87394,146.66514 -87.87394,146.66514 l -15.48197,-3.53312 c 0,0 8.58814,-60.10578 6.55178,-149.11997 -1.85725,-80.09067 92.12225,-130.04332 110.9993,-139.27476 2.12094,-1.02378 3.28891,-1.55729 3.28891,-1.55729 72.42732,47.09471 -9.69594,146.40231 -9.69594,146.40231 z" />
  <path
     style="opacity:0.2;fill:#ffffff"
     id="path163"
     d="m 285.02598,407.23513 c -1.63179,-1.2545 -3.33097,-2.48335 -5.16272,-3.67066 0,0 -1.14848,0.53796 -3.28892,1.55729 -18.87704,9.23145 -112.85655,59.18409 -110.99929,139.27476 2.03636,89.0142 -6.59608,149.08935 -6.59608,149.08935 l 8.70617,1.98682 c 0,0 8.63689,-60.09465 6.55178,-149.11996 -1.85936,-79.7219 91.30185,-129.5946 110.78906,-139.1176 z" />
  <path
     style="fill:#afc0e0"
     id="path165"
     d="M 526.98352,626.87323 C 486.48346,706.18022 468.22841,764.0594 468.22841,764.0594 l -15.51122,-3.5398 c 0,0 33.76093,-143.44396 -18.86213,-172.32594 a 31.53,31.53 0 0 0 -3.51649,-1.71537 c 0,0 -30.93997,-125.10966 54.77249,-136.09491 0,0 0.66373,0.77715 1.84187,2.2666 11.97673,15.07249 76.86402,102.039 40.03059,174.22325 z" />
  <path
     style="opacity:0.1"
     id="path167"
     d="m 270.12302,549.93616 a 38.24,38.24 0 0 0 -7.78814,0.41769 979.21,979.21 0 0 1 14.19072,-145.24322 c 2.12094,-1.02377 3.28891,-1.55728 3.28891,-1.55728 72.43177,47.07521 -9.69149,146.38281 -9.69149,146.38281 z" />
  <path
     style="opacity:0.1"
     id="path169"
     d="m 486.97773,452.67616 a 901,901 0 0 1 -53.10678,135.58267 31.53,31.53 0 0 0 -3.51648,-1.71537 c 0,0 -30.93998,-125.10966 54.77249,-136.09491 -0.0204,-0.0457 0.64338,0.73148 1.85077,2.22761 z" />
  <path
     style="fill:#e3e8f4"
     id="path171"
     d="m 421.34568,606.82752 q -15.56274,30.44044 -34.32573,61.91478 c 0,0 -43.1035,28.33003 -118.94209,-27.14367 0,0 -2.99746,-25.60878 -3.04882,-67.99255 -0.13821,-93.19671 13.96979,-267.51714 105.51942,-428.98552 A 661.75,661.75 0 0 1 469.96529,10.928758 c 0,0 32.77964,61.135462 43.10587,166.186002 10.32622,105.05055 -1.84441,254.02678 -91.72548,429.71276 z" />
  <circle
     transform="rotate(12.855271)"
     style="fill:#afc0e0"
     id="circle173"
     r="71.629997"
     cy="199.6927"
     cx="467.86728" />
  <path
     style="fill:#6c63ff"
     id="path175"
     d="m 461.22858,310.12421 a 50.8,50.8 0 0 1 -89.66121,19.83861 51.33,51.33 0 0 1 -6.98307,-12.18917 50,50 0 0 1 -1.99857,-5.98467 50.7,50.7 0 0 1 -0.40081,-24.26743 c 0.0912,-0.39972 0.18021,-0.7897 0.26921,-1.17967 a 50.86,50.86 0 0 1 46.68978,-38.29181 52.53,52.53 0 0 1 12.34704,0.90988 l 1.4819,0.33819 a 50.8,50.8 0 0 1 38.25573,60.82607 z" />
  <path
     style="fill:#afc0e0"
     id="path177"
     d="M 513.06141,177.11254 C 425.17138,196.96558 370.50639,144.58019 370.50639,144.58019 a 661.75,661.75 0 0 1 99.4589,-133.651432 c 0,0 32.77964,61.135462 43.09612,166.183782 z" />
  <path
     style="fill:#afc0e0"
     id="path179"
     d="m 421.34568,606.82752 q -10.54978,20.60936 -22.5383,41.68018 -5.69974,10.05387 -11.79051,20.20313 c 0,0 -43.1035,28.33003 -118.94209,-27.14367 0,0 -0.97438,-8.31521 -1.85859,-23.31798 -0.63616,-11.32541 -1.19759,-26.43914 -1.21947,-44.68124 0,0 28.26459,20.51271 72.71188,30.65598 a 214.11,214.11 0 0 0 83.63708,2.6036 z" />
  <path
     style="fill:#e3e8f4"
     id="path181"
     d="m 398.80738,648.5077 q -5.69974,10.05387 -11.79051,20.20313 c 0,0 -43.1035,28.33003 -118.94209,-27.14367 0,0 -0.97438,-8.31521 -1.85859,-23.31798 -0.01,-0.002 80.09708,44.22933 132.59119,30.25852 z" />
  <path
     style="opacity:0.2;fill:#ffffff"
     id="path183"
     d="m 409.18873,247.9885 -0.12504,0.0535 -46.57449,38.23606 c -0.089,0.38998 -0.17799,0.77995 -0.26921,1.17967 a 50.7,50.7 0 0 0 0.40081,24.26744 l 58.93447,-62.82236 z" />
  <path
     style="opacity:0.2;fill:#ffffff"
     id="path185"
     d="m 411.10644,292.53163 -39.53017,37.3922 a 51.33,51.33 0 0 1 -6.98307,-12.18918 l 43.69464,-29.66189 z" />
  <path
     style="opacity:0.2;fill:#ffffff"
     id="path187"
     d="m 286.89856,645.87317 c 0,0 -2.99524,-25.61853 -3.04882,-67.99255 -0.13599,-93.20645 13.97202,-267.52689 105.52164,-428.99527 A 664.18,664.18 0 0 1 477.46984,27.350034 C 472.98095,16.591648 469.93382,10.931833 469.93382,10.931833 A 661.68,661.68 0 0 0 370.50639,144.58019 C 278.95676,306.04857 264.84875,480.369 264.98474,573.57546 c 0.0536,42.37402 3.04882,67.99255 3.04882,67.99255 29.96718,21.90645 54.81546,30.73624 73.9186,33.41359 -15.73033,-4.87194 -34.14041,-13.82233 -55.0536,-29.10843 z" />
  <path
     style="fill:none;stroke:#535461;stroke-width:2;stroke-miterlimit:10"
     id="path189"
     stroke-miterlimit="10"
     d="m 559.99377,612.15851 c 0,0 46.74,-58.16 43.64,-116.41 a 113.05,113.05 0 0 1 18.54,-69.06 190.19,190.19 0 0 1 22,-27" />
  <path
     style="fill:#6c63ff"
     id="path191"
     d="m 642.40377,363.00851 c -3.34,8.11 1.66,37.68 1.66,37.68 0,0 24.37,-17.48 27.71,-25.59 a 15.880531,15.880531 0 0 0 -29.37,-12.09 z" />
  <path
     style="fill:#6c63ff"
     id="path193"
     d="m 599.62377,397.94851 c 1.61,8.62 21.88,30.72 21.88,30.72 0,0 11,-27.91 9.35,-36.54 a 15.883838,15.883838 0 0 0 -31.23,5.82 z" />
  <path
     style="fill:#6c63ff"
     id="path195"
     d="m 569.08377,475.16851 c 5.74,6.63 34.4,15.48 34.4,15.48 0,0 -4.64,-29.63 -10.38,-36.27 a 15.88,15.88 0 0 0 -24,20.79 z" />
  <path
     style="fill:#6c63ff"
     id="path197"
     d="m 559.13377,538.79851 c 4.53,7.51 31.28,21.07 31.28,21.07 0,0 0.44,-30 -4.09,-37.5 a 15.884277,15.884277 0 1 0 -27.19,16.43 z" />
  <path
     style="fill:#6c63ff"
     id="path199"
     d="m 651.69377,442.93851 c -8.14,3.25 -37.66,-2.05 -37.66,-2.05 0,0 17.72,-24.19 25.87,-27.45 a 15.88438,15.88438 0 0 1 11.79,29.5 z" />
  <path
     style="fill:#6c63ff"
     id="path201"
     d="m 639.11377,517.20851 c -8.74,0.67 -35.32,-13.22 -35.32,-13.22 0,0 24.14,-17.79 32.89,-18.46 a 15.89,15.89 0 0 1 2.43,31.68 z" />
  <path
     style="fill:#6c63ff"
     id="path203"
     d="m 616.98377,587.70851 c -8.51,2.14 -37.05,-7.06 -37.05,-7.06 0,0 20.79,-21.61 29.3,-23.74 a 15.880039,15.880039 0 1 1 7.75,30.8 z" />
  <path
     style="opacity:0.25"
     id="path205"
     d="m 642.40377,363.00851 c -3.34,8.11 1.66,37.68 1.66,37.68 0,0 24.37,-17.48 27.71,-25.59 a 15.880531,15.880531 0 0 0 -29.37,-12.09 z" />
  <path
     style="opacity:0.25"
     id="path207"
     d="m 599.62377,397.94851 c 1.61,8.62 21.88,30.72 21.88,30.72 0,0 11,-27.91 9.35,-36.54 a 15.883838,15.883838 0 0 0 -31.23,5.82 z" />
  <path
     style="opacity:0.25"
     id="path209"
     d="m 569.08377,475.16851 c 5.74,6.63 34.4,15.48 34.4,15.48 0,0 -4.64,-29.63 -10.38,-36.27 a 15.88,15.88 0 0 0 -24,20.79 z" />
  <path
     style="opacity:0.25"
     id="path211"
     d="m 559.13377,538.79851 c 4.53,7.51 31.28,21.07 31.28,21.07 0,0 0.44,-30 -4.09,-37.5 a 15.884277,15.884277 0 1 0 -27.19,16.43 z" />
  <path
     style="opacity:0.25"
     id="path213"
     d="m 651.69377,442.93851 c -8.14,3.25 -37.66,-2.05 -37.66,-2.05 0,0 17.72,-24.19 25.87,-27.45 a 15.88438,15.88438 0 0 1 11.79,29.5 z" />
  <path
     style="opacity:0.25"
     id="path215"
     d="m 639.11377,517.20851 c -8.74,0.67 -35.32,-13.22 -35.32,-13.22 0,0 24.14,-17.79 32.89,-18.46 a 15.89,15.89 0 0 1 2.43,31.68 z" />
  <path
     style="opacity:0.25"
     id="path217"
     d="m 616.98377,587.70851 c -8.51,2.14 -37.05,-7.06 -37.05,-7.06 0,0 20.79,-21.61 29.3,-23.74 a 15.880039,15.880039 0 1 1 7.75,30.8 z" />
  <path
     style="fill:none;stroke:#535461;stroke-width:2;stroke-miterlimit:10"
     id="path219"
     stroke-miterlimit="10"
     d="m 560.41377,609.72851 c 0,0 66.3,-34.24 87.07,-88.74 a 113,113 0 0 1 44.94,-55.63 189.91,189.91 0 0 1 31,-15.76" />
  <path
     style="fill:#6c63ff"
     id="path221"
     d="m 736.71377,415.32851 c -6.34,6.07 -13.75,35.13 -13.75,35.13 0,0 29.36,-6.11 35.7,-12.17 a 15.89656,15.89656 0 0 0 -21.95,-23 z" />
  <path
     style="fill:#6c63ff"
     id="path223"
     d="m 683.45377,429.93851 c -2,8.54 7.55,37 7.55,37 0,0 21.29,-21.07 23.35,-29.66 a 15.88,15.88 0 0 0 -30.9,-7.34 z" />
  <path
     style="fill:#6c63ff"
     id="path225"
     d="m 624.23377,488.15851 c 2.56,8.39 25.18,28.09 25.18,28.09 0,0 7.77,-29 5.21,-37.35 a 15.884739,15.884739 0 0 0 -30.39,9.26 z" />
  <path
     style="fill:#6c63ff"
     id="path227"
     d="m 589.35377,542.29851 c 1.1,8.71 20.06,31.94 20.06,31.94 0,0 12.56,-27.23 11.45,-35.94 a 15.881436,15.881436 0 0 0 -31.51,4 z" />
  <path
     style="fill:#6c63ff"
     id="path229"
     d="m 712.82377,492.16851 c -8.77,-0.32 -33.6,-17.13 -33.6,-17.13 0,0 26,-14.93 34.77,-14.61 a 15.880778,15.880778 0 1 1 -1.17,31.74 z" />
  <path
     style="fill:#6c63ff"
     id="path231"
     d="m 671.22377,554.96851 c -8.27,-2.93 -26.94,-26.4 -26.94,-26.4 0,0 29.29,-6.47 37.55,-3.54 a 15.882189,15.882189 0 1 1 -10.61,29.94 z" />
  <path
     style="fill:#6c63ff"
     id="path233"
     d="m 622.41377,610.45851 c -8.64,-1.49 -31,-21.47 -31,-21.47 0,0 27.77,-11.32 36.41,-9.83 a 15.8812,15.8812 0 1 1 -5.4,31.3 z" />
</svg>
