<svg version="1.1" viewBox="0 0 825.98 825.98" height="825.97998" width="825.97998" data-name="Layer 1" id="96adce4c-eb60-42ce-a2b3-116be577c7f4">
  <title
     id="title108">creativity</title>
  <ellipse
     style="opacity:0.1;fill:#6c63ff;stroke-width:0.70073086"
     id="ellipse110"
     ry="18.597399"
     rx="137.09799"
     cy="658.47357"
     cx="560.37286" />
  <ellipse
     style="opacity:0.1;fill:#6c63ff;stroke-width:0.70073086"
     id="ellipse112"
     ry="7.8411784"
     rx="57.789276"
     cy="618.15344"
     cx="728.71649" />
  <ellipse
     style="opacity:0.1;fill:#6c63ff;stroke-width:0.70073086"
     id="ellipse114"
     ry="3.3985448"
     rx="25.072149"
     cy="695.38806"
     cx="745.69519" />
  <ellipse
     style="opacity:0.1;fill:#6c63ff;stroke-width:0.70073086"
     id="ellipse116"
     ry="7.8411784"
     rx="57.789276"
     cy="649.50421"
     cx="307.90637" />
  <ellipse
     style="opacity:0.1;fill:#6c63ff;stroke-width:0.70073086"
     id="ellipse118"
     ry="7.8411784"
     rx="57.789276"
     cy="614.70593"
     cx="207.58981" />
  <path
     style="opacity:0.1;fill:#6c63ff;stroke-width:0.70073086"
     id="path120"
     d="m 507.24336,181.89247 c -34.81231,21.82777 -79.98142,20.41229 -119.53068,9.06045 C 348.16343,179.60108 311.80251,159.37798 273.24829,145.013 A 406.88639,406.88639 0 0 0 172.68641,121.53151 c -49.12825,-5.04526 -103.995495,1.10015 -138.233206,36.38195 -38.140781,39.28998 -35.19070395,110.15489 6.040301,146.22852 20.972875,18.34513 48.434515,27.3285 72.385515,41.67246 23.95099,14.34396 46.12211,38.11276 44.08298,65.7636 -1.89197,25.59069 -23.82485,45.23218 -46.55656,57.55803 -17.560322,9.52293 -39.191894,19.92178 -41.308101,39.64735 -2.046134,19.08791 16.116811,34.04852 33.501961,42.54838 56.64709,27.74895 126.43288,27.48267 182.89076,-0.70073 20.132,-10.05549 38.6383,-23.42543 59.75133,-31.26661 55.43482,-20.57346 116.51753,0.14015 175.21775,7.70804 a 389.8236,389.8236 0 0 0 148.99641,-9.69811 c 29.06632,-7.70804 58.24475,-19.44529 78.66405,-41.34313 14.71535,-15.78746 23.90193,-35.77231 32.51391,-55.50489 q 13.78338,-31.53289 26.48763,-63.57731 c 5.0803,-12.80936 10.09052,-25.87099 11.40089,-39.57728 2.38249,-24.83391 -7.64497,-49.38752 -21.30222,-70.34638 -32.41581,-49.75189 -87.00975,-84.78843 -146.10939,-93.65268 -59.09965,-8.86424 -121.70995,8.47184 -167.56578,46.5005" />
  <polygon
     transform="matrix(0.81243961,0,0,0.81243961,80.906748,49.332864)"
     style="fill:url(#linearGradient1722)"
     id="polygon122"
     points="109.49,8.65 109.49,29.28 109.49,540.35 726.89,540.35 726.89,29.28 726.89,8.65 " />
  <rect
     style="fill:#f6f7f9;stroke-width:0.81243956"
     id="rect124"
     height="16.468151"
     width="494.36951"
     y="60.146439"
     x="173.47612" />
  <rect
     style="fill:#534d72;stroke-width:0.81243956"
     id="rect126"
     height="16.468151"
     width="494.36951"
     y="60.146439"
     x="173.47612" />
  <rect
     style="fill:#f6f7f9;stroke-width:0.81243956"
     id="rect128"
     height="407.92593"
     width="494.36951"
     y="76.614586"
     x="173.47612" />
  <ellipse
     style="fill:#f6f7f9;stroke-width:0.81243956"
     id="ellipse130"
     ry="2.7947924"
     rx="3.7047246"
     cy="68.384567"
     cx="184.13531" />
  <ellipse
     style="fill:#f6f7f9;stroke-width:0.81243956"
     id="ellipse132"
     ry="2.7947924"
     rx="3.7047246"
     cy="68.384567"
     cx="194.17708" />
  <ellipse
     style="fill:#f6f7f9;stroke-width:0.81243956"
     id="ellipse134"
     ry="2.7947924"
     rx="3.7047246"
     cy="68.384567"
     cx="204.21069" />
  <g
     transform="matrix(0.81243961,0,0,0.81243961,80.906748,49.332864)"
     style="opacity:0.2"
     id="g138">
    <rect
       style="fill:#6c63ff"
       id="rect136"
       height="9.46"
       width="320.54999"
       y="64.540001"
       x="257.92001" />
  </g>
  <rect
     style="fill:#6c63ff;stroke-width:0.81243956"
     id="rect140"
     height="7.685679"
     width="34.601803"
     y="101.76771"
     x="516.27686" />
  <path
     style="fill:url(#linearGradient1724);stroke-width:0.81243956"
     id="path142"
     d="m 519.90038,386.35719 v 0 c 0,0 -0.0162,-0.0487 0,0 z" />
  <path
     style="fill:url(#324d97de-38ce-46a9-a16b-73fa50900cb8);stroke-width:0.81243956"
     id="path144"
     d="m 506.84449,429.66022 -3.80222,2.56731 c 0,-1.7955 6.68637,-8.93684 6.68637,-8.93684 -1.73049,-0.97493 -7.85628,3.80222 -7.85628,3.80222 0.72307,-3.1279 6.13391,-6.91386 6.13391,-6.91386 -0.47121,-0.24373 -4.64716,1.86861 -4.64716,1.86861 1.36491,-2.88417 6.99512,-7.0601 6.99512,-7.0601 -0.6987,-0.44684 -4.81778,1.3324 -5.01276,1.41364 0.21935,-0.15436 7.07635,-4.96401 6.49951,-5.11024 -0.57683,-0.14624 -5.80081,0.9343 -5.80081,0.9343 -0.40622,-1.83611 8.12439,-10.48859 8.12439,-10.48859 0,0 1.0643,-1.50302 0.68246,-1.10492 -0.38186,0.3981 -4.33843,1.77112 -4.33843,1.77112 0.0568,-2.70543 8.30312,-6.89761 8.30312,-6.89761 l -3.75346,-0.14624 2.43732,-2.65668 c -0.11374,0.0894 -3.98096,3.05478 -4.0622,2.18547 -0.0813,-0.86932 3.63973,-4.36281 4.43592,-4.87465 0.79619,-0.51183 3.24976,-0.0975 3.24976,-0.0975 0,0 -1.07242,-3.09539 -1.27554,-3.54223 0.59309,0.48745 9.00996,4.06219 9.00996,4.06219 l 0.7312,0.14624 c 1.9661,0.38185 7.31195,1.4624 8.1244,2.0311 0.81244,0.56871 4.87463,1.34052 7.21446,1.79549 l 1.62488,0.30873 -5.91456,37.46159 c -0.55246,0 -1.10492,0 -1.62489,0 -0.9668,0 -1.92548,-0.0813 -2.88415,-0.16248 q -2.26671,-0.20312 -4.50905,-0.61746 c -3.00602,-0.56058 -6.95447,-1.30804 -10.00112,-1.90111 -1.88486,-0.3656 -3.42037,-0.68245 -4.17594,-0.85307 -3.01415,-0.70681 -6.77575,1.62489 -7.63694,1.62489 -0.86119,0 -6.04455,4.31405 -6.04455,4.31405 0.0406,-0.85306 3.08728,-4.92338 3.08728,-4.92338 z" />
  <g
     transform="matrix(0.81243961,0,0,0.81243961,80.906748,49.332864)"
     style="opacity:0.1"
     id="g148">
    <path
       style="fill:url(#eee737d7-b20b-417c-a3fa-aee7cf179088)"
       id="path146"
       transform="translate(-21.14,-37.01)"
       d="m 545.37,505.06 c 0.08,0 7.28,-2.95 9.68,-3.89 2.4,-0.94 31.19,1.13 32.41,1.22 v 0.18 c -0.3,0 -29.94,-2.16 -32.33,-1.22 -2.39,0.94 -9.6,3.85 -9.67,3.88 z" />
  </g>
  <path
     style="fill:url(#c3921df2-9812-4dc7-9d17-147517e1c049);stroke-width:0.81243956"
     id="path150"
     d="m 519.90038,386.35719 v 0 c 0,0 -0.0162,-0.0487 0,0 z" />
  <g
     transform="matrix(0.81243961,0,0,0.81243961,80.906748,49.332864)"
     style="opacity:0.1"
     id="g154">
    <path
       style="fill:url(#7a4bf5f6-0a2d-4d46-9148-34580b38aa0c)"
       id="path152"
       transform="translate(-21.14,-37.01)"
       d="m 553.5,462.27 a 55.92,55.92 0 0 1 6.12,-4.32 c 1.64,-0.91 4.85,-0.26 7.19,0.21 a 16.15,16.15 0 0 0 2.08,0.34 c 1.43,0 9.26,2.22 9.59,2.32 0.08,0 8.56,2 9.63,1.94 a 32.35,32.35 0 0 1 5,0.91 v 0.19 a 32.82,32.82 0 0 0 -5,-0.92 c -1.1,0.07 -9.34,-1.86 -9.69,-1.94 -0.08,0 -8.13,-2.31 -9.54,-2.32 a 13.82,13.82 0 0 1 -2.11,-0.34 c -2.19,-0.44 -5.49,-1.1 -7.07,-0.23 a 59.1,59.1 0 0 0 -6.1,4.3 z" />
  </g>
  <g
     transform="matrix(0.81243961,0,0,0.81243961,80.906748,49.332864)"
     style="opacity:0.1"
     id="g158">
    <path
       style="fill:url(#1873546a-7082-44d0-8613-2894044f6770)"
       id="path156"
       transform="translate(-21.14,-37.01)"
       d="m 555.19,462.79 c 0.73,-0.81 9.23,-1.1 10,-0.8 0.77,0.3 10.51,1.25 11,1.23 0.16,0 12.8,2.44 16.67,3.2 v 0.18 c -5.62,-1.1 -16.34,-3.17 -16.63,-3.19 -0.05,0 -10.19,-0.9 -11.09,-1.25 -0.9,-0.35 -9.22,0.14 -9.78,0.75 z" />
  </g>
  <g
     transform="matrix(0.81243961,0,0,0.81243961,80.906748,49.332864)"
     style="opacity:0.1"
     id="g162">
    <path
       style="fill:url(#bdd8dd2b-0953-4002-9214-f67ecfc20577)"
       id="path160"
       transform="translate(-21.14,-37.01)"
       d="m 549.8,471.54 c 2.61,-4.44 17.34,-5.76 17.48,-5.77 1.57,-0.13 24,4.12 24.92,4.3 v 0.18 c -0.23,0 -23.32,-4.43 -24.86,-4.29 -4.1,0.35 -15.21,2.05 -17.33,5.68 z" />
  </g>
  <g
     transform="matrix(0.81243961,0,0,0.81243961,80.906748,49.332864)"
     style="opacity:0.1"
     id="g166">
    <path
       style="fill:url(#a5b44cbd-acf7-4c5e-bca9-9655f59a73e4)"
       id="path164"
       transform="translate(-21.14,-37.01)"
       d="m 548.8,476.69 c 4.16,-4.67 17.36,-4.35 17.49,-4.34 1,0 23.44,3.36 24.39,3.5 v 0.18 c -0.23,0 -23.39,-3.45 -24.37,-3.49 -0.13,0 -13.23,-0.33 -17.33,4.27 z" />
  </g>
  <g
     transform="matrix(0.81243961,0,0,0.81243961,80.906748,49.332864)"
     style="opacity:0.1"
     id="g170">
    <path
       style="fill:url(#1b791299-4efa-4eee-b585-14c9478af84e)"
       id="path168"
       transform="translate(-21.14,-37.01)"
       d="m 544.87,481.86 c 1.56,-2.91 5.94,-5 13,-6.19 a 72.7,72.7 0 0 1 10.37,-0.93 l 22.86,2.61 v 0.19 l -22.84,-2.61 c -0.19,0 -19.79,0.15 -23.29,7.16 l -0.17,-0.08 z" />
  </g>
  <g
     transform="matrix(0.81243961,0,0,0.81243961,80.906748,49.332864)"
     style="opacity:0.1"
     id="g174">
    <path
       style="fill:url(#675b5daa-23af-4e11-b3fa-e46631febacd)"
       id="path172"
       transform="translate(-21.14,-37.01)"
       d="m 544.31,483.62 c 2.19,-2.4 10.76,-4.3 14.86,-4.79 3.85,-0.46 29.36,3.57 30.45,3.74 v 0.18 c -0.27,0 -26.57,-4.19 -30.4,-3.74 -3.83,0.45 -12.61,2.4 -14.74,4.73 z" />
  </g>
  <g
     transform="matrix(0.81243961,0,0,0.81243961,80.906748,49.332864)"
     style="opacity:0.1"
     id="g178">
    <path
       style="fill:url(#630057ce-9e1d-44ba-b046-d9f8db19c76f)"
       id="path176"
       transform="translate(-21.14,-37.01)"
       d="m 549.32,484.51 9.67,-1.6 a 25.82,25.82 0 0 1 7.5,-0.14 l 10.72,1.38 11.79,2.23 v 0.18 L 577.2,484.33 566.47,483 a 25.83,25.83 0 0 0 -7.45,0.13 l -9.67,1.61 z" />
  </g>
  <g
     transform="matrix(0.81243961,0,0,0.81243961,80.906748,49.332864)"
     style="opacity:0.1"
     id="g182">
    <path
       style="fill:url(#662f01a2-2aa8-423e-b0f2-c327d1d6aa86)"
       id="path180"
       transform="translate(-21.14,-37.01)"
       d="m 541.23,495.29 c 2,-3.72 10.9,-5.57 15.78,-6.59 1,-0.21 1.85,-0.38 2.33,-0.52 2.76,-0.77 28.52,1.82 29.61,1.93 v 0.19 c -0.27,0 -26.82,-2.7 -29.54,-1.94 -0.49,0.14 -1.31,0.31 -2.34,0.52 -4.67,1 -14.4,3 -15.84,6.92 l -0.18,-0.06 a 3,3 0 0 1 0.18,-0.45 z" />
  </g>
  <g
     transform="matrix(0.81243961,0,0,0.81243961,80.906748,49.332864)"
     style="opacity:0.1"
     id="g186">
    <path
       style="fill:url(#10d603f6-75bf-4960-8ede-b0e49c938813)"
       id="path184"
       transform="translate(-21.14,-37.01)"
       d="m 546.61,493.53 c 0,0 4.92,-1.55 6,-2.06 1.08,-0.51 13.85,-0.83 14.39,-0.85 l 21.87,1.38 v 0.19 L 567,490.81 c -0.12,0 -13.21,0.32 -14.31,0.82 -1.1,0.5 -5.86,2 -6.06,2.08 z" />
  </g>
  <g
     transform="matrix(0.81243961,0,0,0.81243961,80.906748,49.332864)"
     style="opacity:0.1"
     id="g190">
    <path
       style="fill:url(#16a76fc1-6006-4084-b7a4-1e8655cd3e2b)"
       id="path188"
       transform="translate(-21.14,-37.01)"
       d="m 539.21,501.93 c 4.81,-6.76 23.13,-9.38 24.77,-9.26 l 24.63,1.58 v 0.18 c -0.23,0 -23,-1.46 -24.62,-1.58 -1.62,-0.12 -19.84,2.49 -24.6,9.18 z" />
  </g>
  <g
     transform="matrix(0.81243961,0,0,0.81243961,80.906748,49.332864)"
     style="opacity:0.1"
     id="g194">
    <path
       style="fill:url(#906200ce-c2e1-4e69-aca6-6b0c300e8d97)"
       id="path192"
       transform="translate(-21.14,-37.01)"
       d="m 541.21,506.88 c 4.34,-8.1 23,-9.92 24.71,-9.85 l 21.78,1 v 0.18 l -21.78,-1 c -1.81,-0.08 -22.3,1.93 -25.09,11.1 l -0.18,-0.05 a 8,8 0 0 1 0.56,-1.38 z" />
  </g>
  <g
     transform="matrix(0.81243961,0,0,0.81243961,80.906748,49.332864)"
     style="opacity:0.1"
     id="g198">
    <path
       style="fill:url(#09ae5dbf-04ae-456f-b606-b78be7f557d4)"
       id="path196"
       transform="translate(-21.14,-37.01)"
       d="m 585,508.22 7.37,-46.52 2,0.38 -7.37,46.16 c -0.69,0 -1.37,0 -2,-0.02 z" />
  </g>
  <path
     style="fill:url(#ca582b94-4b90-4460-aa10-f094c60b8e01);stroke-width:0.81243956"
     id="path200"
     d="m 539.32582,432.9831 6.24766,-39.38708 7.6613,2.43733 5.60584,1.78736 c 0,0 3.91596,-0.81244 5.16711,2.03922 1.25116,2.85166 -2.73792,11.17918 -0.81244,12.99903 1.92549,1.81987 18.19865,3.24977 18.19865,3.24977 0,0 23.64199,6.2964 26.11182,6.67013 2.46981,0.37371 15.99693,8.26251 15.99693,8.26251 0.73932,1.86048 -8.34376,1.94173 -10.37486,2.49418 -2.03109,0.55246 -21.4159,-3.09539 -22.67519,-4.20843 -1.25928,-1.11304 -19.29543,-5.97956 -19.29543,-5.97956 -5.80895,-3.00603 -9.53805,-1.74674 -9.53805,-1.74674 a 44.757298,44.757298 0 0 1 -2.80292,11.37415 3.0872706,3.0872706 0 0 1 -3.24975,1.763 l -8.7581,-0.69058 z" />
  <g
     transform="matrix(0.81243961,0,0,0.81243961,80.906748,49.332864)"
     style="opacity:0.1"
     id="g204">
    <path
       style="fill:url(#d72adaae-db48-4891-8751-e69fb2eb4adc)"
       id="path202"
       transform="translate(-21.14,-37.01)"
       d="m 585.39,509.23 7.69,-48.48 9.43,3 C 601,468.44 592,498 594.6,510.51 Z" />
  </g>
  <path
     style="fill:url(#a1584201-eed1-4945-ad33-134cef0a8100);stroke-width:0.81243956"
     id="path206"
     d="m 506.84449,429.66022 -3.80222,2.56731 c 0,-1.7955 6.68637,-8.93684 6.68637,-8.93684 -1.73049,-0.97493 -7.85628,3.80222 -7.85628,3.80222 0.72307,-3.1279 6.13391,-6.91386 6.13391,-6.91386 -0.47121,-0.24373 -4.64716,1.86861 -4.64716,1.86861 1.36491,-2.88417 6.99512,-7.0601 6.99512,-7.0601 -0.6987,-0.44684 -4.81778,1.3324 -5.01276,1.41364 0.21935,-0.15436 7.07635,-4.96401 6.49951,-5.11024 -0.57683,-0.14624 -5.80081,0.9343 -5.80081,0.9343 -0.40622,-1.83611 8.12439,-10.48859 8.12439,-10.48859 0,0 1.0643,-1.50302 0.68246,-1.10492 -0.38186,0.3981 -4.33843,1.77112 -4.33843,1.77112 0.0568,-2.70543 8.30312,-6.89761 8.30312,-6.89761 l -3.75346,-0.14624 2.43732,-2.65668 c -0.11374,0.0894 -3.98096,3.05478 -4.0622,2.18547 -0.0813,-0.86932 3.63973,-4.36281 4.43592,-4.87465 0.79619,-0.51183 3.24976,-0.0975 3.24976,-0.0975 0,0 -1.07242,-3.09539 -1.27554,-3.54223 0.59309,0.48745 9.00996,4.06219 9.00996,4.06219 l 0.7312,0.13811 c -0.81244,0.61746 -1.55989,1.17804 -2.05547,1.62489 a 5.9876799,5.9876799 0 0 0 -1.7955,2.19358 4.452169,4.452169 0 0 0 0.56059,3.65598 c 0.62558,1.11304 1.48676,2.07985 2.10422,3.20102 a 2.1610893,2.1610893 0 0 1 0.34123,1.57613 2.7135482,2.7135482 0 0 1 -1.0643,1.22678 20.611592,20.611592 0 0 0 -6.7595,9.34305 2.5185627,2.5185627 0 0 0 -0.20311,1.13742 3.794093,3.794093 0 0 0 0.66619,1.42177 5.126494,5.126494 0 0 1 -0.65807,5.90644 c -0.6662,0.73119 -1.62488,1.37302 -1.67362,2.35607 a 3.1685144,3.1685144 0 0 0 0.48747,1.55988 q 0.99929,1.86049 1.98234,3.74535 c -1.88486,-0.3656 -3.42037,-0.68245 -4.17594,-0.85305 -3.01415,-0.70683 -6.77574,1.62487 -7.63693,1.62487 -0.86118,0 -6.04455,4.30593 -6.04455,4.30593 0.13812,-0.86931 3.18477,-4.93963 3.18477,-4.93963 z" />
  <path
     style="fill:#9d9cb5;stroke-width:0.81243956"
     id="path470"
     d="m 524.0357,387.92519 c 0,0 -0.0162,-0.0487 0,0 z" />
  <path
     style="fill:#e4e3f9;stroke-width:0.81243956"
     id="path472"
     d="m 511.27228,431.00887 -3.72098,2.55106 c 0,-1.78737 6.54015,-8.88809 6.54015,-8.88809 -1.698,-0.97493 -7.68569,3.77785 -7.68569,3.77785 0.70683,-3.11165 6.00394,-6.87325 6.00394,-6.87325 -0.47122,-0.24372 -4.54967,1.85236 -4.54967,1.85236 1.34053,-2.85978 6.84075,-7.0276 6.84075,-7.0276 -0.68246,-0.43872 -4.71215,1.33241 -4.87464,1.41365 0.21123,-0.15437 6.91386,-4.93963 6.32078,-5.08587 -0.59309,-0.14625 -5.68708,0.92618 -5.68708,0.92618 -0.3981,-1.81987 7.95379,-10.43173 7.95379,-10.43173 0,0 1.03991,-1.49489 0.6662,-1.10492 -0.37373,0.38997 -4.24907,1.77112 -4.24907,1.77112 0.0569,-2.69729 8.1244,-6.87324 8.1244,-6.87324 l -3.67222,-0.13811 2.43731,-2.64043 c -0.11374,0.0813 -3.89971,3.0304 -3.94845,2.16921 -0.0487,-0.86118 3.55848,-4.33842 4.33842,-4.87463 0.77994,-0.53622 3.20101,-0.10562 3.20101,-0.10562 0,0 -1.03991,-3.07915 -1.24303,-3.51786 0.57683,0.47934 8.80685,4.01345 8.80685,4.01345 l 0.71495,0.13811 c 1.92548,0.38997 7.11696,1.4624 7.9294,2.02298 0.81244,0.56059 4.73652,1.34053 7.05199,1.79549 l 1.62487,0.30872 -5.84956,37.30724 c -0.54433,0 -1.08867,0 -1.62489,0 -0.94242,0 -1.88485,-0.0813 -2.82728,-0.1625 -1.47052,-0.12999 -2.94103,-0.34122 -4.40343,-0.61744 -2.94103,-0.56059 -6.80012,-1.29991 -9.74927,-1.88487 -1.84424,-0.3656 -3.34725,-0.68244 -4.0622,-0.85306 -2.94916,-0.6987 -6.62951,1.62487 -7.47444,1.62487 -0.84494,0 -5.90644,4.28969 -5.90644,4.28969 -0.008,-0.83681 2.97353,-4.88276 2.97353,-4.88276 z" />
  <path
     style="opacity:0.1;stroke-width:0.81243956"
     id="path474"
     d="m 511.23978,430.93574 c 0.0568,0 5.77645,-2.38044 7.6938,-3.13601 1.91736,-0.75557 24.77129,0.90993 25.74622,0.97493 v 0.15436 c -0.23562,0 -23.78011,-1.74674 -25.6731,-0.99117 -1.89298,0.75557 -7.63693,3.11976 -7.6938,3.13601 z" />
  <path
     style="fill:none;stroke-width:0.81243956"
     id="path476"
     d="m 524.0357,387.92519 c 0,0 -0.0162,-0.0487 0,0 z" />
  <path
     style="opacity:0.1;stroke-width:0.81243956"
     id="path478"
     d="m 517.69056,396.35019 a 47.535842,47.535842 0 0 1 4.87463,-3.49348 c 1.30803,-0.7312 3.85097,-0.21124 5.68708,0.1706 a 12.495321,12.495321 0 0 0 1.62488,0.27624 c 1.14554,0 7.3607,1.79549 7.62069,1.87673 0.0649,0 6.80011,1.62488 7.65317,1.56801 a 25.372488,25.372488 0 0 1 4.01345,0.73931 v 0.14625 a 25.884326,25.884326 0 0 0 -3.97282,-0.73932 c -0.87744,0.0487 -7.41758,-1.50301 -7.6938,-1.56801 -0.0732,0 -6.49952,-1.86861 -7.58819,-1.87674 a 10.911064,10.911064 0 0 1 -1.67363,-0.27623 c -1.73862,-0.34934 -4.35467,-0.88555 -5.61396,-0.18685 a 47.608961,47.608961 0 0 0 -4.87463,3.47723 z" />
  <path
     style="opacity:0.1;stroke-width:0.81243956"
     id="path480"
     d="m 519.0392,396.77266 c 0.57684,-0.64994 7.31196,-0.88556 7.93754,-0.64994 0.62557,0.2356 8.34376,1.00741 8.74997,0.9993 0.12999,0 10.17174,1.97422 13.24277,2.58355 v 0.14624 c -4.47654,-0.88557 -12.99904,-2.56731 -13.2184,-2.57544 -0.0406,0 -8.1244,-0.73119 -8.80684,-1.01555 -0.68245,-0.28435 -7.31196,0.11374 -7.76693,0.60934 z" />
  <path
     style="opacity:0.1;stroke-width:0.81243956"
     id="path482"
     d="m 514.75765,403.84902 c 2.07984,-3.59911 13.81147,-4.65529 13.89272,-4.66341 1.24302,-0.11374 19.02733,3.32287 19.79102,3.46911 v 0.14624 c -0.18686,0 -18.52362,-3.57473 -19.75041,-3.46912 -3.24975,0.28436 -12.08098,1.66551 -13.81147,4.59029 z" />
  <path
     style="opacity:0.1;stroke-width:0.81243956"
     id="path484"
     d="m 513.96958,408.0087 c 3.29851,-3.77784 13.81147,-3.50974 13.88459,-3.50974 0.81244,0 18.62112,2.71355 19.38481,2.8273 v 0.14624 c -0.18686,0 -18.58861,-2.78668 -19.36044,-2.81917 -0.10562,0 -10.51297,-0.26811 -13.77085,3.45287 z" />
  <path
     style="opacity:0.1;stroke-width:0.81243956"
     id="path486"
     d="m 510.84168,412.19276 c 1.24304,-2.35607 4.72028,-4.06219 10.35049,-5.00462 a 56.562046,56.562046 0 0 1 8.23814,-0.75557 l 18.15802,2.11234 v 0.14624 l -18.14991,-2.10422 c -0.14623,0 -15.7207,0.12187 -18.49924,5.78457 l -0.13811,-0.0649 c 0,0 0.0243,-0.0813 0.0406,-0.11374 z" />
  <path
     style="opacity:0.1;stroke-width:0.81243956"
     id="path488"
     d="m 510.39484,413.60641 c 1.73863,-1.9336 8.54687,-3.47724 11.80475,-3.86721 3.0629,-0.37372 23.32515,2.88416 24.18633,3.02227 v 0.14625 c -0.20311,0 -21.12343,-3.38788 -24.1457,-3.02228 -3.02228,0.3656 -10.01738,1.94172 -11.70726,3.81846 z" />
  <path
     style="opacity:0.1;stroke-width:0.81243956"
     id="path490"
     d="m 514.37579,414.32949 7.67756,-1.29179 a 20.099756,20.099756 0 0 1 5.96332,-0.11374 l 8.55498,1.11304 9.37556,1.80361 v 0.14625 l -9.36744,-1.80362 -8.51436,-1.10491 a 19.823527,19.823527 0 0 0 -5.92269,0.10562 l -7.67756,1.29179 z" />
  <path
     style="opacity:0.1;stroke-width:0.81243956"
     id="path492"
     d="m 507.9494,423.04696 c 1.62488,-3.00603 8.6606,-4.50091 12.53594,-5.32148 0.81244,-0.17061 1.47052,-0.30873 1.85237,-0.42247 2.18546,-0.62557 22.65081,1.47051 23.52013,1.55988 v 0.15437 c -0.21124,0 -21.30218,-2.18546 -23.46326,-1.56801 -0.38997,0.11374 -1.03993,0.25186 -1.86049,0.42247 -3.71285,0.81244 -11.43915,2.43731 -12.58469,5.59771 l -0.14624,-0.0569 a 3.5991075,3.5991075 0 0 1 0.14624,-0.3656 z" />
  <path
     style="opacity:0.1;stroke-width:0.81243956"
     id="path494"
     d="m 512.19847,421.61706 c 0.0406,0 3.90782,-1.25115 4.79339,-1.6655 0.88555,-0.41434 11.00855,-0.6662 11.43915,-0.68244 l 17.33746,1.08054 v 0.15436 l -17.32122,-1.08054 c -0.0975,0 -10.49672,0.25998 -11.37415,0.6662 -0.87744,0.40622 -4.65528,1.62488 -4.81776,1.67362 z" />
  <path
     style="opacity:0.1;stroke-width:0.81243956"
     id="path496"
     d="m 506.34889,428.40906 c 3.81035,-5.45959 18.36927,-7.58006 19.67729,-7.4907 1.30803,0.0894 19.37669,1.26741 19.55543,1.28367 v 0.14623 l -19.57168,-1.27553 c -1.29177,-0.0975 -15.7532,2.00673 -19.49855,7.41757 z" />
  <path
     style="opacity:0.1;stroke-width:0.81243956"
     id="path498"
     d="m 507.93315,432.41438 c 3.44475,-6.54826 18.25552,-8.0269 19.62855,-7.9619 l 17.30495,0.81244 v 0.14623 l -17.30495,-0.81244 c -1.43803,-0.0731 -17.71119,1.55177 -19.92915,8.93684 h -0.14623 a 6.1176702,6.1176702 0 0 1 0.44683,-1.12117 z" />
  <path
     style="opacity:0.1;stroke-width:0.81243956"
     id="path500"
     d="m 542.6812,433.49494 5.85769,-37.59971 1.62487,0.30873 -5.84956,37.30722 c -0.55246,0 -1.0968,0 -1.633,-0.0162 z" />
  <path
     style="fill:#535461;stroke-width:0.81243956"
     id="path502"
     d="m 543.07117,434.3155 6.10955,-39.19209 7.49068,2.43732 5.47585,1.77924 c 0,0 3.83471,-0.81244 5.05338,2.0311 1.21865,2.84354 -2.67294,11.12229 -0.81244,12.90966 1.86048,1.78737 17.79242,3.24976 17.79242,3.24976 0,0 23.07329,6.25579 25.5106,6.62139 2.43732,0.36559 15.62322,8.22189 15.62322,8.22189 0.72307,1.85235 -8.1244,1.94173 -10.14737,2.48606 -2.02297,0.54433 -20.93657,-3.07915 -22.17148,-4.18406 -1.23491,-1.10492 -18.86485,-5.95519 -18.86485,-5.95519 -5.68708,-2.98978 -9.3268,-1.73049 -9.3268,-1.73049 a 44.887288,44.887288 0 0 1 -2.73792,11.28479 3.014151,3.014151 0 0 1 -3.17664,1.76298 l -8.50624,-0.69868 z" />
  <path
     style="opacity:0.1;stroke-width:0.81243956"
     id="path504"
     d="m 543.07117,434.3155 6.10955,-39.19209 7.49068,2.43732 c -1.16991,3.77784 -8.38437,27.62295 -6.28016,37.77845 z" />
  <path
     style="fill:#6c63ff;stroke-width:0.81243956"
     id="path506"
     d="m 511.27228,431.00887 -3.72098,2.55106 c 0,-1.78737 6.54015,-8.88809 6.54015,-8.88809 -1.68988,-0.97493 -7.68569,3.77785 -7.68569,3.77785 0.70683,-3.11165 6.00394,-6.87325 6.00394,-6.87325 -0.47122,-0.25185 -4.54967,1.85236 -4.54967,1.85236 1.34053,-2.86791 6.84075,-7.0276 6.84075,-7.0276 -0.68246,-0.43872 -4.71215,1.33241 -4.87464,1.41365 0.21123,-0.15437 6.91386,-4.93963 6.32078,-5.08587 -0.59309,-0.14625 -5.68708,0.92618 -5.68708,0.92618 -0.3981,-1.828 7.95379,-10.43985 7.95379,-10.43985 0,0 1.03991,-1.48677 0.6662,-1.0968 -0.37373,0.38997 -4.24907,1.763 -4.24907,1.763 0.0569,-2.68917 8.1244,-6.86512 8.1244,-6.86512 l -3.6641,-0.13811 2.43732,-2.64043 c -0.11374,0.0813 -3.89971,3.0304 -3.94845,2.16921 -0.0488,-0.86118 3.55848,-4.33842 4.33842,-4.87463 0.77994,-0.53622 3.20101,-0.10562 3.20101,-0.10562 0,0 -1.03993,-3.07915 -1.24303,-3.51786 0.57683,0.47934 8.80684,4.01345 8.80684,4.01345 l 0.71495,0.13811 c -0.75557,0.61746 -1.51926,1.16991 -2.00673,1.62488 a 5.9958043,5.9958043 0 0 0 -1.75487,2.18546 4.5009155,4.5009155 0 0 0 0.54434,3.63973 c 0.61746,1.10492 1.45427,2.07173 2.0636,3.18477 a 2.1773382,2.1773382 0 0 1 0.3331,1.56801 2.6810507,2.6810507 0 0 1 -1.04805,1.22678 20.465354,20.465354 0 0 0 -6.60514,9.2943 2.5998067,2.5998067 0 0 0 -0.20311,1.1293 3.8672125,3.8672125 0 0 0 0.65808,1.41364 5.1914891,5.1914891 0 0 1 -0.64182,5.88206 c -0.65809,0.72307 -1.57614,1.3649 -1.62489,2.33171 a 3.014151,3.014151 0 0 0 0.47122,1.55988 c 0.64995,1.23492 1.29178,2.47794 1.94173,3.7291 -1.84423,-0.37373 -3.34725,-0.68244 -4.0622,-0.85306 -2.94915,-0.6987 -6.6295,1.62487 -7.46632,1.62487 -0.83681,0 -5.91456,4.28969 -5.91456,4.28969 0.008,-0.83681 2.98978,-4.88276 2.98978,-4.88276 z" />
  <path
     style="fill:#534d72;stroke-width:0.70073086"
     id="path674"
     d="m 348.59789,561.45036 c -0.2873,1.00905 -1.58366,1.82891 -3.45461,2.48759 -7.18249,2.55066 -22.87185,2.84497 -22.87185,2.84497 L 292.67956,566.08219 278.03429,563.98 a 61.32096,61.32096 0 0 1 -6.95125,-2.43154 c -1.74482,-0.7708 -3.20935,-1.61869 -3.50366,-2.40351 0,0 20.81872,-8.99738 43.44532,-7.2876 22.6266,1.70979 38.96063,4.73694 37.57319,9.59301 z" />
  <path
     style="opacity:0.1;stroke-width:0.70073086"
     id="path676"
     d="m 348.59789,561.45036 c -0.2873,1.00905 -1.58366,1.82891 -3.45461,2.48759 -7.18249,2.55066 -22.87185,2.84497 -22.87185,2.84497 L 292.67956,566.08219 278.03429,563.98 a 61.32096,61.32096 0 0 1 -6.95125,-2.43154 c -1.74482,-0.7708 -3.20935,-1.61869 -3.50366,-2.40351 0,0 20.81872,-8.99738 43.44532,-7.2876 22.6266,1.70979 38.96063,4.73694 37.57319,9.59301 z" />
  <path
     style="fill:#534d72;stroke-width:0.70073086"
     id="path678"
     d="m 348.14942,563.65766 -0.87591,18.48528 -0.39241,8.28264 -1.29636,27.3285 -0.35036,7.49782 -0.953,20.01989 c -22.75273,11.28877 -71.67776,0 -71.67776,0 l -0.75679,-20.01989 -0.37138,-9.81023 v 0 l -0.94599,-25.03711 -0.3854,-10.21666 -0.65869,-17.59535 c 27.51069,9.09549 78.66405,1.06511 78.66405,1.06511 z" />
  <path
     style="opacity:0.1;stroke-width:0.70073086"
     id="path680"
     d="m 347.27351,582.14294 -0.39241,8.28264 h -76.37967 l -0.3854,-10.21666 c 9.85928,3.08322 51.13233,14.72236 77.15748,1.93402 z" />
  <path
     style="opacity:0.1;stroke-width:0.70073086"
     id="path682"
     d="m 345.58474,617.7681 -0.35036,7.49782 h -73.38755 l -0.37138,-9.81023 c 11.52702,3.48964 49.0932,13.34892 74.10929,2.31241 z" />
  <ellipse
     style="opacity:0.1;stroke-width:0.70073086"
     id="ellipse684"
     ry="7.7921271"
     rx="18.415209"
     cy="587.94495"
     cx="308.81732" />
  <ellipse
     style="fill:#6c63ff;stroke-width:0.70073086"
     id="ellipse686"
     ry="7.7921271"
     rx="18.415209"
     cy="587.49652"
     cx="308.81732" />
  <ellipse
     style="opacity:0.1;stroke-width:0.70073086"
     id="ellipse688"
     ry="3.4966469"
     rx="27.657848"
     cy="563.73474"
     cx="310.82141" />
  <ellipse
     style="fill:#6c63ff;stroke-width:0.70073086"
     id="ellipse690"
     ry="3.4966469"
     rx="27.657848"
     cy="564.02905"
     cx="310.97559" />
  <path
     style="opacity:0.1;stroke-width:0.70073086"
     id="path692"
     d="m 348.59789,561.75167 c -0.2873,1.00205 -1.58366,1.8219 -3.45461,2.4876 -4.85606,-12.80936 -36.30486,-9.35476 -36.30486,-9.35476 -22.66865,-1.40146 -34.48998,4.90512 -37.73436,7.00731 -1.74482,-0.7638 -3.20935,-1.61869 -3.50366,-2.3965 0,0 20.81872,-8.99739 43.44532,-7.2876 22.6266,1.70978 38.93961,4.68088 37.55217,9.54395 z" />
  <path
     style="fill:#534d72;stroke-width:0.70073086"
     id="path694"
     d="m 348.59789,561.45036 c -0.2873,1.00905 -1.58366,1.82891 -3.45461,2.48759 -4.85606,-12.80936 -36.30486,-9.35475 -36.30486,-9.35475 -22.66865,-1.40147 -34.48998,4.90511 -37.73436,7.0073 -1.74482,-0.7708 -3.20935,-1.61868 -3.50366,-2.4035 0,0 20.81872,-8.99739 43.44532,-7.2876 22.6266,1.70978 38.93961,4.69489 37.55217,9.55096 z" />
  <path
     style="opacity:0.1;stroke-width:0.70073086"
     id="path696"
     d="m 272.46348,641.20755 c 0,0 -4.84205,2.23533 -0.30132,5.9492 4.54074,3.71388 34.64414,6.08935 42.23305,4.68789 0,0 27.58778,-1.48555 31.18953,-5.43066 0,0 0.0841,-2.66278 -1.24029,-2.74687 0,0 -10.65812,4.71592 -34.18866,4.3095 -23.53054,-0.40643 -38.87655,-2.01811 -37.69231,-6.76906 z" />
  <path
     style="fill:#534d72;stroke-width:0.70073086"
     id="path698"
     d="m 272.46348,641.50185 c 0,0 -4.84205,2.23534 -0.30132,5.95622 4.54074,3.72088 34.64414,6.09636 42.23305,4.68088 0,0 27.58778,-1.48555 31.18953,-5.42366 0,0 0.0841,-2.66978 -1.24029,-2.74686 0,0 -10.65812,4.70891 -34.18866,4.30248 -23.53054,-0.40642 -38.87655,-2.03212 -37.69231,-6.76906 z" />
  <path
     style="fill:#534d72;stroke-width:0.70073086"
     id="path700"
     d="m 271.58056,617.74007 c -2.91505,-0.81986 -14.21783,-5.31154 -8.55593,-24.52558 0,0 6.09636,-20.60149 9.81023,-25.50661 0,0 -0.64467,-1.14919 -1.55562,0 -0.91095,1.1492 -3.6438,7.96031 -3.6438,7.96031 0,0 -11.82834,22.37433 -5.87913,35.23975 2.05314,4.44264 5.753,7.00731 9.71914,8.40877" />
  <path
     style="opacity:0.1;stroke-width:0.70073086"
     id="path702"
     d="m 267.55135,559.49532 c 0,0 -0.37138,3.27942 1.96906,4.46365 2.34044,1.18424 68.37031,9.66308 78.62901,2.1022 0,0 1.48555,-4.61081 0,-4.46366 -1.48555,0.14715 -59.18373,10.09053 -80.59807,-2.10219 z" />
  <path
     style="fill:#534d72;stroke-width:0.70073086"
     id="path704"
     d="m 267.55135,559.194 c 0,0 -0.37138,3.27942 1.96906,4.47067 2.34044,1.19124 68.37031,9.65607 78.62901,2.10219 0,0 1.48555,-4.61081 0,-4.46366 -1.48555,0.14716 -59.18373,10.09053 -80.59807,-2.1092 z" />
  <circle
     r="3.3845301"
     style="opacity:0.1;stroke-width:0.70073086"
     id="circle706"
     cy="568.22644"
     cx="272.79276" />
  <circle
     r="3.3845301"
     style="fill:#534d72;stroke-width:0.70073086"
     id="circle708"
     cy="567.70789"
     cx="272.31625" />
  <path
     style="fill:#534d72;stroke-width:0.70073086"
     id="path710"
     d="m 184.80905,561.04393 c 0.17518,0.60263 0.96,1.10015 2.10219,1.49957 4.34453,1.54161 13.83243,1.71679 13.83243,1.71679 l 17.90367,-0.39942 8.85724,-1.26131 a 37.538153,37.538153 0 0 0 4.20439,-1.47154 c 1.05109,-0.46248 1.94102,-0.98102 2.13723,-1.45051 0,0 -12.61316,-5.44468 -26.2634,-4.4076 -13.65023,1.03708 -23.59361,2.83095 -22.77375,5.77402 z" />
  <path
     style="opacity:0.1;stroke-width:0.70073086"
     id="path712"
     d="m 184.80905,561.04393 c 0.17518,0.60263 0.96,1.10015 2.10219,1.49957 4.34453,1.54161 13.83243,1.71679 13.83243,1.71679 l 17.90367,-0.39942 8.85724,-1.26131 a 37.538153,37.538153 0 0 0 4.20439,-1.47154 c 1.05109,-0.46248 1.94102,-0.98102 2.13723,-1.45051 0,0 -12.61316,-5.44468 -26.2634,-4.4076 -13.65023,1.03708 -23.59361,2.83095 -22.77375,5.77402 z" />
  <path
     style="fill:#534d72;stroke-width:0.70073086"
     id="path714"
     d="m 185.10336,562.37532 0.52555,11.17666 0.23824,5.01023 0.78482,16.53724 0.21723,4.54074 0.56759,12.10863 c 13.76236,6.82512 43.36123,0 43.36123,0 l 0.45547,-12.10863 0.22424,-5.92818 v 0 l 0.5746,-15.1428 0.23124,-6.17344 0.39941,-10.6441 c -16.64235,5.47972 -47.57962,0.62365 -47.57962,0.62365 z" />
  <path
     style="opacity:0.1;stroke-width:0.70073086"
     id="path716"
     d="m 185.62891,573.55198 0.23824,5.01023 h 46.18518 l 0.23124,-6.17344 c -5.94921,1.86394 -30.90924,8.90629 -46.65466,1.16321 z" />
  <path
     style="opacity:0.1;stroke-width:0.70073086"
     id="path718"
     d="m 186.65197,595.08544 0.21723,4.54074 h 44.38429 l 0.22424,-5.92819 c -6.97228,2.08818 -29.68997,8.08644 -44.82576,1.38745 z" />
  <ellipse
     style="opacity:0.1;stroke-width:0.70073086"
     id="ellipse720"
     ry="4.7089114"
     rx="11.141621"
     cy="577.06262"
     cx="208.89319" />
  <ellipse
     style="fill:#6c63ff;stroke-width:0.70073086"
     id="ellipse722"
     ry="4.7089114"
     rx="11.141621"
     cy="576.79639"
     cx="208.89319" />
  <ellipse
     style="opacity:0.5;fill:#ffffff;stroke-width:0.70073086"
     id="ellipse724"
     ry="4.7089114"
     rx="11.141621"
     cy="576.79639"
     cx="208.89319" />
  <ellipse
     style="opacity:0.1;stroke-width:0.70073086"
     id="ellipse726"
     ry="2.1162074"
     rx="16.733454"
     cy="562.41736"
     cx="207.68092" />
  <ellipse
     style="fill:#6c63ff;stroke-width:0.70073086"
     id="ellipse728"
     ry="2.1162074"
     rx="16.733454"
     cy="562.59955"
     cx="207.58981" />
  <ellipse
     style="opacity:0.5;fill:#ffffff;stroke-width:0.70073086"
     id="ellipse730"
     ry="2.1162074"
     rx="16.733454"
     cy="562.62054"
     cx="207.68092" />
  <path
     style="opacity:0.1;stroke-width:0.70073086"
     id="path732"
     d="m 184.80905,561.21912 c 0.17518,0.60963 0.96,1.10715 2.10219,1.50657 2.94307,-7.75009 21.97492,-5.6549 21.97492,-5.6549 13.71331,-0.83387 20.86076,2.97811 22.82281,4.20439 1.05109,-0.46949 1.94102,-0.98103 2.13723,-1.45753 0,0 -12.61316,-5.43767 -26.2634,-4.40759 -13.65023,1.03007 -23.59361,2.87299 -22.77375,5.80906 z" />
  <path
     style="fill:#534d72;stroke-width:0.70073086"
     id="path734"
     d="m 184.80905,561.04393 c 0.17518,0.60263 0.96,1.10015 2.10219,1.49957 2.94307,-7.75009 21.97492,-5.6549 21.97492,-5.6549 13.71331,-0.82686 20.86076,2.97811 22.82281,4.20439 1.05109,-0.46249 1.94102,-0.98103 2.13723,-1.45052 0,0 -12.61316,-5.44468 -26.2634,-4.4076 -13.65023,1.03709 -23.59361,2.86599 -22.77375,5.80906 z" />
  <path
     style="opacity:0.1;stroke-width:0.70073086"
     id="path736"
     d="m 230.88211,609.28225 c 0,0 2.92905,1.35241 0.18219,3.60175 -2.74687,2.24935 -20.95887,3.68585 -25.54165,2.80293 0,0 -16.6914,-0.89694 -18.87068,-3.28643 0,0 -0.049,-1.61168 0.74978,-1.66073 0,0 6.44673,2.85197 20.67857,2.60672 14.23185,-0.24526 23.51653,-1.19125 22.80179,-4.06424 z" />
  <path
     style="fill:#534d72;stroke-width:0.70073086"
     id="path738"
     d="m 230.88211,609.45743 c 0,0 2.92905,1.35241 0.18219,3.60176 -2.74687,2.24934 -20.95887,3.69285 -25.54165,2.83796 0,0 -16.6914,-0.90395 -18.87068,-3.28643 0,0 -0.049,-1.61168 0.74978,-1.66073 0,0 6.44673,2.85197 20.67857,2.60672 14.23185,-0.24526 23.51653,-1.21928 22.80179,-4.09928 z" />
  <path
     style="fill:#534d72;stroke-width:0.70073086"
     id="path740"
     d="m 231.41466,595.08544 c 1.76584,-0.49752 8.59797,-3.20935 5.1784,-14.83447 0,0 -3.69285,-12.459 -5.93519,-15.41608 0,0 0.39241,-0.70073 0.93898,0 0.54657,0.70073 2.2073,4.80701 2.2073,4.80701 0,0 7.14746,13.53112 3.55972,21.31624 a 9.8522762,9.8522762 0 0 1 -5.87914,5.0873" />
  <path
     style="opacity:0.1;stroke-width:0.70073086"
     id="path742"
     d="m 233.86021,559.85269 c 0,0 0.22424,1.99008 -1.19124,2.70482 -1.41548,0.71475 -41.34312,5.8441 -47.55861,1.25431 0,0 -0.90394,-2.80292 0,-2.69781 0.90395,0.10511 35.79334,6.11738 48.74985,-1.26132 z" />
  <path
     style="fill:#534d72;stroke-width:0.70073086"
     id="path744"
     d="m 233.86021,559.67751 c 0,0 0.22424,1.98307 -1.19124,2.69781 -1.41548,0.71475 -41.34312,5.8441 -47.55861,1.26132 0,0 -0.90394,-2.80293 0,-2.69782 0.90395,0.10511 35.79334,6.11738 48.74985,-1.26131 z" />
  <circle
     r="2.0461342"
     style="opacity:0.1;stroke-width:0.70073086"
     id="circle746"
     cy="565.13623"
     cx="230.67891" />
  <circle
     r="2.0461342"
     style="fill:#534d72;stroke-width:0.70073086"
     id="circle748"
     cy="564.82788"
     cx="230.97321" />
  <path
     style="fill:#534d72;stroke-width:0.70073086"
     id="path750"
     d="m 696.67194,563.66467 c 0.17518,0.60963 0.96,1.10014 2.10219,1.50657 4.34453,1.5346 13.83243,1.71679 13.83243,1.71679 l 17.89666,-0.40642 8.85724,-1.26132 a 37.019613,37.019613 0 0 0 4.20439,-1.47153 c 1.0581,-0.46249 1.94102,-0.97402 2.10219,-1.45052 0,0 -12.61315,-5.43767 -26.26339,-4.4076 -13.65024,1.03008 -23.56558,2.85899 -22.73171,5.77403 z" />
  <path
     style="opacity:0.1;stroke-width:0.70073086"
     id="path752"
     d="m 696.67194,563.66467 c 0.17518,0.60963 0.96,1.10014 2.10219,1.50657 4.34453,1.5346 13.83243,1.71679 13.83243,1.71679 l 17.89666,-0.40642 8.85724,-1.26132 a 37.019613,37.019613 0 0 0 4.20439,-1.47153 c 1.0581,-0.46249 1.94102,-0.97402 2.10219,-1.45052 0,0 -12.61315,-5.43767 -26.26339,-4.4076 -13.65024,1.03008 -23.56558,2.85899 -22.73171,5.77403 z" />
  <path
     style="fill:#534d72;stroke-width:0.70073086"
     id="path754"
     d="m 696.94522,564.99606 0.53256,11.21169 0.23825,5.01023 0.77781,16.53724 0.21722,4.53373 0.5746,12.10863 c 13.76236,6.83213 43.35422,0 43.35422,0 l 0.45548,-12.10863 0.22423,-5.92818 v 0 l 0.5746,-15.14279 0.23124,-6.18045 0.40643,-10.6441 c -16.65638,5.4657 -47.58664,0.60263 -47.58664,0.60263 z" />
  <path
     style="opacity:0.1;stroke-width:0.70073086"
     id="path756"
     d="m 697.47778,576.16571 0.23825,5.01022 h 46.17816 l 0.23124,-6.18044 c -5.94219,1.87095 -30.90924,8.9203 -46.64765,1.17022 z" />
  <path
     style="opacity:0.1;stroke-width:0.70073086"
     id="path758"
     d="m 698.49384,597.7272 0.21722,4.53372 h 44.3843 l 0.22423,-5.92818 c -6.96526,2.1092 -29.68996,8.07242 -44.82575,1.39446 z" />
  <ellipse
     style="opacity:0.1;stroke-width:0.70073086"
     id="ellipse760"
     ry="4.7089114"
     rx="11.141621"
     cy="579.69043"
     cx="720.73511" />
  <ellipse
     style="fill:#6c63ff;stroke-width:0.70073086"
     id="ellipse762"
     ry="4.7089114"
     rx="11.141621"
     cy="579.41711"
     cx="720.73511" />
  <ellipse
     style="opacity:0.2;stroke-width:0.70073086"
     id="ellipse764"
     ry="4.7089114"
     rx="11.141621"
     cy="579.41711"
     cx="720.73511" />
  <ellipse
     style="opacity:0.1;stroke-width:0.70073086"
     id="ellipse766"
     ry="2.1162074"
     rx="16.733454"
     cy="565.0451"
     cx="719.52289" />
  <ellipse
     style="fill:#6c63ff;stroke-width:0.70073086"
     id="ellipse768"
     ry="2.1162074"
     rx="16.733454"
     cy="565.22028"
     cx="719.43176" />
  <ellipse
     style="opacity:0.2;stroke-width:0.70073086"
     id="ellipse770"
     ry="2.1162074"
     rx="16.733454"
     cy="565.0451"
     cx="720.15356" />
  <path
     style="opacity:0.1;stroke-width:0.70073086"
     id="path772"
     d="m 696.67194,563.84686 c 0.17518,0.60263 0.96,1.10014 2.10219,1.49956 2.93606,-7.75008 21.96791,-5.6549 21.96791,-5.6549 13.71331,-0.82686 20.86076,2.97811 22.82281,4.20439 1.0581,-0.46248 1.94102,-0.98102 2.10219,-1.45051 0,0 -12.61315,-5.44468 -26.26339,-4.4076 -13.65024,1.03708 -23.56558,2.86599 -22.73171,5.80906 z" />
  <path
     style="fill:#534d72;stroke-width:0.70073086"
     id="path774"
     d="m 696.67194,563.66467 c 0.17518,0.60963 0.96,1.10014 2.10219,1.50657 2.93606,-7.75008 21.96791,-5.66191 21.96791,-5.66191 13.71331,-0.82686 20.86076,2.97811 22.82281,4.20439 1.0581,-0.46248 1.94102,-0.97402 2.10219,-1.45051 0,0 -12.61315,-5.43768 -26.26339,-4.4076 -13.65024,1.03007 -23.56558,2.89402 -22.73171,5.80906 z" />
  <path
     style="fill:#9d9cb5;stroke-width:0.70073086"
     id="path776"
     d="m 713.46145,561.45036 v 0 c 0,0 -0.028,0 0,0 z" />
  <path
     style="fill:#e4e3f9;stroke-width:0.70073086"
     id="path778"
     d="m 727.67227,572.76015 0.3854,1.77986 c -0.70073,-0.27328 -2.33343,-3.79796 -2.33343,-3.79796 -0.62365,0.49051 0.25226,3.4546 0.25226,3.4546 -1.06511,-0.73576 -1.66774,-3.29343 -1.66774,-3.29343 a 8.1775294,8.1775294 0 0 0 0,1.99007 c -0.87591,-0.93898 -1.59766,-3.62978 -1.59766,-3.62978 -0.26628,0.18919 -0.21723,1.96905 -0.21723,2.05314 0,-0.10511 -0.79883,-3.34249 -0.94599,-3.13928 a 18.092871,18.092871 0 0 0 -0.51153,2.26337 c -0.74277,-0.12614 -2.70482,-4.56176 -2.70482,-4.56176 0,0 -0.39942,-0.61665 -0.30832,-0.41343 a 12.767317,12.767317 0 0 1 0,1.85693 c -1.00205,-0.42744 -1.34541,-4.07825 -1.34541,-4.07825 l -0.60262,1.35241 -0.63066,-1.30336 c 0,0.0561 0.54657,1.92 0.21722,1.80789 -0.32934,-0.11212 -1.08613,-1.99008 -1.16321,-2.36147 -0.0771,-0.37138 0.44847,-1.21927 0.44847,-1.21927 0,0 -1.31037,-0.0701 -1.50657,-0.0631 0.26628,-0.14716 2.80292,-2.69081 2.80292,-2.69081 0,0 0.0561,-0.0981 0.16117,-0.25226 a 19.697545,19.697545 0 0 1 1.95504,-2.65577 16.270971,16.270971 0 0 0 1.73781,-2.37548 c 0.21723,-0.32935 0.35737,-0.56059 0.35737,-0.56059 l 13.15272,7.82717 -0.25226,0.60263 c -0.15416,0.35036 -0.31533,0.70073 -0.49051,1.03708 -0.27329,0.53255 -0.5746,1.05109 -0.89694,1.55562 -0.65168,1.01606 -1.51358,2.34745 -2.18628,3.37752 -0.41343,0.63066 -0.76379,1.1492 -0.93898,1.40146 -0.70073,0.99504 -0.39941,2.72585 -0.53255,3.04118 -0.13314,0.31533 0.70073,2.85898 0.70073,2.85898 a 12.395929,12.395929 0 0 1 -1.3384,-1.86395 z" />
  <path
     style="opacity:0.1;stroke-width:0.70073086"
     id="path780"
     d="m 727.63724,572.76015 c 0,0 0,-2.52263 0,-3.3565 0,-0.83387 4.09226,-9.14453 4.26745,-9.4949 h 0.0561 c -0.0491,0.0911 -4.25344,8.64702 -4.26045,9.47388 -0.007,0.82686 0,3.32847 0,3.3565 z" />
  <path
     style="fill:none;stroke-width:0.70073086"
     id="path782"
     d="m 713.46145,561.45036 v 0 c 0,0 -0.028,0 0,0 z" />
  <path
     style="opacity:0.1;stroke-width:0.70073086"
     id="path784"
     d="m 715.65474,565.10817 a 18.968785,18.968785 0 0 1 -0.5746,-2.34745 c -0.0701,-0.60262 0.51153,-1.47854 0.93197,-2.10219 a 4.3165022,4.3165022 0 0 0 0.35037,-0.5816 31.007342,31.007342 0 0 1 1.85693,-2.57169 c 0,0 1.63271,-2.29839 1.74482,-2.62774 a 10.917387,10.917387 0 0 1 0.88292,-1.40146 h 0.0491 a 10.223664,10.223664 0 0 0 -0.87591,1.40146 c -0.11212,0.33635 -1.68175,2.55066 -1.75183,2.64876 -0.0701,0.0981 -1.67474,2.13723 -1.84993,2.55767 a 3.6227787,3.6227787 0 0 1 -0.35737,0.58161 c -0.39241,0.59562 -0.98803,1.49956 -0.91796,2.10219 a 20.811707,20.811707 0 0 0 0.5676,2.33344 z" />
  <path
     style="opacity:0.1;stroke-width:0.70073086"
     id="path786"
     d="m 716.01912,564.66671 c -0.15416,-0.31533 0.77781,-2.88 0.96,-3.0692 0.18219,-0.1892 1.63971,-2.9781 1.69577,-3.12526 0.0561,-0.14715 2.27737,-3.50365 2.9711,-4.57577 h 0.049 c -1.00905,1.54161 -2.92205,4.47767 -2.96409,4.56176 -0.0421,0.0841 -1.49957,2.91504 -1.70979,3.14628 a 10.342788,10.342788 0 0 0 -0.94598,2.99913 z" />
  <path
     style="opacity:0.1;stroke-width:0.70073086"
     id="path788"
     d="m 718.02321,567.3435 c -1.03708,-1.32438 0.33635,-5.86511 0.35036,-5.91416 0.14716,-0.4765 4.12731,-6.62191 4.29548,-6.88819 l 0.049,0.035 c -0.035,0.0631 -4.14131,6.39767 -4.28847,6.87417 -0.3854,1.26131 -1.20526,4.77898 -0.35737,5.8511 z" />
  <path
     style="opacity:0.1;stroke-width:0.70073086"
     id="path790"
     d="m 719.46671,568.26847 c -0.91795,-1.80789 0.77081,-5.69694 0.78482,-5.73198 0.13314,-0.29431 3.84001,-6.56585 3.99417,-6.83213 h 0.0561 c -0.042,0.0631 -3.86103,6.53782 -3.99417,6.82512 0,0.0421 -1.68876,3.89607 -0.78482,5.68293 z" />
  <path
     style="opacity:0.1;stroke-width:0.70073086"
     id="path792"
     d="m 720.55285,570.06935 c -0.70073,-0.81986 -0.79884,-2.37548 -0.30833,-4.63183 a 22.80879,22.80879 0 0 1 0.96701,-3.20234 l 3.50366,-6.48176 h 0.049 l -3.50366,6.48176 c 0,0.056 -2.33343,5.90716 -0.63065,7.80614 l -0.049,0.042 z" />
  <path
     style="opacity:0.1;stroke-width:0.70073086"
     id="path794"
     d="m 721.01533,570.45475 c -0.46248,-0.94599 0,-3.72789 0.33635,-5.01023 0.33635,-1.28233 4.61081,-8.30366 4.793,-8.60497 l 0.0561,0.035 c -0.049,0.0701 -4.46366,7.39271 -4.78599,8.58395 -0.32234,1.19124 -0.79183,4.05022 -0.34336,4.96818 z" />
  <path
     style="opacity:0.1;stroke-width:0.70073086"
     id="path796"
     d="m 721.89124,569.07431 0.70073,-3.07621 a 8.0233686,8.0233686 0 0 1 0.85489,-2.24934 l 1.70979,-3.02716 2.10219,-3.23738 h 0.0491 l -2.10219,3.23738 -1.70278,3.02015 a 8.2405952,8.2405952 0 0 0 -0.85489,2.23533 l -0.70073,3.07621 z" />
  <path
     style="opacity:0.1;stroke-width:0.70073086"
     id="path798"
     d="m 724.18263,572.79519 c -0.88993,-1.04409 -0.37839,-3.92409 -0.0981,-5.50074 0.0561,-0.32934 0.10511,-0.59562 0.11912,-0.75679 0.0981,-0.91095 3.98016,-8.26161 4.14833,-8.57694 h 0.049 c 0,0.0771 -4.03621,7.65198 -4.13431,8.55592 0,0.16117 -0.0631,0.42745 -0.12613,0.7638 -0.26628,1.50657 -0.81986,4.64584 0.1962,5.55679 l -0.042,0.0491 a 0.90394284,0.90394284 0 0 1 -0.11212,-0.0911 z" />
  <path
     style="opacity:0.1;stroke-width:0.70073086"
     id="path800"
     d="m 724.29475,570.9803 c 0,0 0.11912,-1.65373 0.10511,-2.04614 a 45.225171,45.225171 0 0 1 1.47153,-4.38657 l 3.02716,-6.30658 h 0.0561 l -3.02716,6.30658 c 0,0 -1.49255,3.97314 -1.47153,4.35854 0.021,0.38541 -0.0911,1.99008 -0.0981,2.06015 z" />
  <path
     style="opacity:0.1;stroke-width:0.70073086"
     id="path802"
     d="m 725.94847,574.21067 c -1.46452,-2.25636 -0.0561,-8.03038 0.17519,-8.50688 0.23124,-0.47649 3.40555,-7.07037 3.44059,-7.13344 h 0.049 c 0,0.0631 -3.20234,6.66395 -3.43358,7.13344 -0.23125,0.46949 -1.63271,6.20848 -0.18219,8.40877 z" />
  <path
     style="opacity:0.1;stroke-width:0.70073086"
     id="path804"
     d="m 727.69329,574.22468 c -1.93401,-2.28438 -0.24525,-8.0584 0,-8.56293 l 2.92205,-6.35563 h 0.0561 l -2.92205,6.36264 c -0.24525,0.52555 -2.10219,6.87417 0.34336,8.8222 v 0.0491 a 2.2773754,2.2773754 0 0 1 -0.39942,-0.31533 z" />
  <path
     style="opacity:0.1;stroke-width:0.70073086"
     id="path806"
     d="m 733.3552,561.36627 -13.18776,-7.88322 c 0.21723,-0.32935 0.35738,-0.56059 0.35738,-0.56059 l 13.08264,7.82717 z" />
  <path
     style="fill:#535461;stroke-width:0.70073086"
     id="path808"
     d="m 733.71257,561.35926 -13.75534,-8.21957 2.04613,-2.43854 1.49256,-1.77986 c 0,0 0.27328,-1.56263 1.52759,-1.59066 1.25431,-0.028 3.76292,2.69081 4.71592,2.24935 0.95299,-0.44146 3.91008,-6.17344 3.91008,-6.17344 0,0 5.84409,-7.70804 6.34862,-8.56293 0.50452,-0.8549 5.44468,-4.61081 5.44468,-4.61081 0.80584,0 -0.51154,3.34949 -0.60964,4.20438 -0.0981,0.85489 -4.3165,7.3787 -4.90511,7.70804 -0.58862,0.32935 -5.08731,6.16643 -5.08731,6.16643 -1.97606,1.67475 -2.06015,3.23037 -2.06015,3.23037 a 18.401193,18.401193 0 0 1 3.81898,2.73986 1.2192717,1.2192717 0 0 1 0.17519,1.45051 l -1.55563,3.10424 z" />
  <path
     style="opacity:0.1;stroke-width:0.70073086"
     id="path810"
     d="m 733.71257,561.35926 -13.75534,-8.21957 2.04613,-2.43854 c 1.23329,1.00905 9.1095,7.32964 13.20177,8.07242 z" />
  <path
     style="fill:#6c63ff;stroke-width:0.70073086"
     id="path812"
     d="m 727.67227,572.76015 0.3854,1.77986 c -0.70073,-0.27328 -2.33343,-3.79796 -2.33343,-3.79796 -0.62365,0.49051 0.25226,3.4546 0.25226,3.4546 -1.06511,-0.73576 -1.66774,-3.29343 -1.66774,-3.29343 -0.16817,0.14014 0,1.99007 0,1.99007 -0.87591,-0.93898 -1.59766,-3.62978 -1.59766,-3.62978 -0.27329,0.18919 -0.21723,1.96204 -0.21723,2.05314 0,-0.10511 -0.79883,-3.34249 -0.94599,-3.13928 a 18.092871,18.092871 0 0 0 -0.51153,2.26337 c -0.74277,-0.12614 -2.70482,-4.56176 -2.70482,-4.56176 0,0 -0.39942,-0.61665 -0.30832,-0.41343 a 12.767317,12.767317 0 0 1 0,1.85693 c -1.00205,-0.42744 -1.34541,-4.07825 -1.34541,-4.07825 l -0.60262,1.35241 -0.63066,-1.30336 c 0,0.0491 0.54657,1.92 0.21722,1.80789 -0.32934,-0.11212 -1.08613,-1.99008 -1.16321,-2.36147 -0.0771,-0.37138 0.44847,-1.21927 0.44847,-1.21927 0,0 -1.31037,-0.0701 -1.50657,-0.0631 0.26628,-0.14716 2.80292,-2.69081 2.80292,-2.69081 l 0.16117,-0.25226 c 0.11912,0.37839 0.21022,0.74978 0.30131,1.00204 a 2.382485,2.382485 0 0 0 0.55358,0.98102 1.7868638,1.7868638 0 0 0 1.44351,0.35037 c 0.51153,-0.0631 1.00204,-0.23124 1.50657,-0.2873 a 0.83386975,0.83386975 0 0 1 0.63766,0.11212 1.0651109,1.0651109 0 0 1 0.30132,0.5746 8.2686244,8.2686244 0 0 0 2.48059,3.88204 1.0300744,1.0300744 0 0 0 0.39941,0.24526 1.5696372,1.5696372 0 0 0 0.62365,0 2.1021926,2.1021926 0 0 1 2.10219,1.12818 c 0.16818,0.35036 0.27329,0.79182 0.62366,0.96701 a 1.3033594,1.3033594 0 0 0 0.65868,0.056 l 1.68876,-0.16116 c -0.41343,0.63065 -0.76379,1.1492 -0.93898,1.40146 -0.70073,0.99504 -0.39941,2.72584 -0.53255,3.04117 -0.13314,0.31533 0.70073,2.85898 0.70073,2.85898 a 12.395929,12.395929 0 0 1 -1.28234,-1.90599 z" />
  <path
     style="opacity:0.2;stroke-width:0.70073086"
     id="path814"
     d="m 727.74235,572.76015 0.3924,1.77986 c -0.66569,-0.27328 -2.33343,-3.79796 -2.33343,-3.79796 -0.62365,0.49051 0.25226,3.4546 0.25226,3.4546 -1.06511,-0.73576 -1.66774,-3.29343 -1.66774,-3.29343 -0.16817,0.14014 0,1.99007 0,1.99007 -0.87591,-0.93898 -1.59766,-3.62978 -1.59766,-3.62978 -0.27329,0.18919 -0.21723,1.96204 -0.21723,2.05314 0,-0.10511 -0.79883,-3.34249 -0.94599,-3.13928 a 18.092871,18.092871 0 0 0 -0.51153,2.26337 c -0.74277,-0.12614 -2.70482,-4.56176 -2.70482,-4.56176 0,0 -0.40642,-0.61665 -0.31533,-0.41343 a 12.872426,12.872426 0 0 1 0,1.85693 c -1.00204,-0.42744 -1.3454,-4.07825 -1.3454,-4.07825 l -0.60964,1.35241 -0.62365,-1.30336 c 0,0.0491 0.54657,1.92 0.21723,1.80789 -0.32935,-0.11212 -1.08613,-1.99008 -1.16322,-2.36147 -0.0771,-0.37138 0.44847,-1.21927 0.44847,-1.21927 0,0 -1.31737,-0.0701 -1.50657,-0.0631 0.25927,-0.14716 2.80292,-2.69081 2.80292,-2.69081 l 0.16117,-0.25226 c 0.11913,0.37839 0.21022,0.74978 0.30132,1.00204 a 2.382485,2.382485 0 0 0 0.55357,0.98102 1.7868638,1.7868638 0 0 0 1.44351,0.35037 c 0.51153,-0.0631 0.99504,-0.23124 1.50657,-0.2873 a 0.84087706,0.84087706 0 0 1 0.63767,0.11212 1.0651109,1.0651109 0 0 1 0.30131,0.5746 8.2686244,8.2686244 0 0 0 2.48059,3.88204 1.0581036,1.0581036 0 0 0 0.39241,0.24526 1.6046737,1.6046737 0 0 0 0.63066,0 2.1021926,2.1021926 0 0 1 2.10219,1.12818 c 0.16817,0.35036 0.27328,0.79182 0.62365,0.96701 a 1.3033594,1.3033594 0 0 0 0.65869,0.056 l 1.68876,-0.16116 c -0.42044,0.63065 -0.7638,1.1492 -0.93898,1.40146 -0.70073,0.99504 -0.39942,2.72584 -0.53256,3.04117 -0.13314,0.31533 0.70073,2.85898 0.70073,2.85898 a 12.024542,12.024542 0 0 1 -1.28233,-1.90599 z" />
  <path
     style="opacity:0.1;stroke-width:0.70073086"
     id="path816"
     d="m 742.72397,611.90298 c 0,0 2.92906,1.35241 0.18219,3.60176 -2.74686,2.24934 -20.95185,3.68584 -25.54164,2.80292 0,0 -16.69141,-0.89693 -18.87068,-3.27942 0,0 -0.049,-1.61168 0.74978,-1.66073 0,0 6.45373,2.84497 20.68558,2.59971 14.23184,-0.24526 23.51652,-1.19124 22.79477,-4.06424 z" />
  <rect
     style="fill:#534d72;stroke-width:0.70073086"
     id="rect818"
     height="7.9813251"
     width="22.773754"
     y="566.57971"
     x="710.43439" />
  <path
     style="fill:#534d72;stroke-width:0.70073086"
     id="path820"
     d="m 742.72397,612.08517 c 0,0 2.92906,1.35241 0.18219,3.60176 -2.74686,2.24934 -20.95185,3.68584 -25.54164,2.80292 0,0 -16.69141,-0.89693 -18.87068,-3.28643 0,0 -0.049,-1.61168 0.74978,-1.66073 0,0 6.45373,2.85198 20.68558,2.60672 14.23184,-0.24526 23.51652,-1.19124 22.79477,-4.06424 z" />
  <path
     style="fill:#534d72;stroke-width:0.70073086"
     id="path822"
     d="m 743.29156,597.70617 c 1.76585,-0.49752 8.60498,-3.20934 5.1784,-14.83447 0,0 -3.68584,-12.45899 -5.93519,-15.41608 0,0 0.39241,-0.70073 0.94599,0 0.55358,0.70073 2.2003,4.81402 2.2003,4.81402 0,0 7.15446,13.53812 3.5527,21.31624 a 9.8102324,9.8102324 0 0 1 -5.87913,5.0873" />
  <path
     style="opacity:0.1;stroke-width:0.70073086"
     id="path824"
     d="m 745.69507,562.48043 c 0,0 0.22423,1.98307 -1.19124,2.69782 -1.41548,0.71474 -41.34312,5.84409 -47.55861,1.26131 0,0 -0.89693,-2.80292 0,-2.70482 0.89694,0.0981 35.83538,6.12439 48.74985,-1.25431 z" />
  <path
     style="fill:#534d72;stroke-width:0.70073086"
     id="path826"
     d="m 745.69507,562.29824 c 0,0 0.22423,1.98307 -1.19124,2.70482 -1.41548,0.72176 -41.34312,5.8441 -47.55861,1.25431 0,0 -0.89693,-2.80292 0,-2.69781 0.89694,0.10511 35.83538,6.11738 48.74985,-1.26132 z" />
  <circle
     r="2.0461342"
     style="opacity:0.1;stroke-width:0.70073086"
     id="circle828"
     cy="567.76392"
     cx="742.52789" />
  <circle
     r="2.0461342"
     style="fill:#534d72;stroke-width:0.70073086"
     id="circle830"
     cy="567.44861"
     cx="742.81519" />
  <ellipse
     style="opacity:0.1;fill:#6c63ff;stroke-width:0.70073086"
     id="ellipse832"
     ry="3.1883256"
     rx="18.870684"
     cy="662.22247"
     cx="89.201302" />
  <path
     style="fill:#6c63ff;stroke-width:0.70073086"
     id="path834"
     d="m 761.86093,691.00148 a 8.1705221,8.1705221 0 0 0 2.6838,-4.05022 c 0.35037,-1.61168 -0.33635,-3.5457 -1.87095,-4.13431 -1.7238,-0.65869 -3.56672,0.53956 -4.96818,1.74482 -1.40146,1.20525 -2.99212,2.58569 -4.82103,2.32642 a 7.3366523,7.3366523 0 0 0 2.27037,-6.87417 2.8870112,2.8870112 0 0 0 -0.63066,-1.40146 c -0.96,-1.02307 -2.69081,-0.58161 -3.84001,0.22424 -3.6438,2.55766 -4.65986,7.51183 -4.68088,11.96147 -0.36438,-1.60467 -0.0561,-3.27942 -0.0631,-4.90511 -0.007,-1.6257 -0.46249,-3.50366 -1.84993,-4.35855 a 5.6058471,5.6058471 0 0 0 -2.80293,-0.70073 c -1.63971,-0.0631 -3.46161,0.10511 -4.58278,1.30336 -1.40146,1.48555 -1.03007,3.98716 0.18219,5.60584 1.21227,1.61869 3.04818,2.66979 4.73694,3.79797 a 10.510963,10.510963 0 0 1 3.39154,3.23737 3.6367933,3.6367933 0 0 1 0.25226,0.5746 h 10.26571 a 28.568798,28.568798 0 0 0 6.3276,-4.35154 z" />
  <path
     style="fill:#a8a8a8;stroke-width:0.70073086"
     id="path836"
     d="m 76.532094,647.395 c 0,0 10.763226,-0.32934 14.01462,-2.64175 3.251394,-2.31242 16.551286,-5.06629 17.357126,-1.35942 0.80584,3.70686 16.17286,18.42221 4.02219,18.52031 -12.150674,0.0981 -28.232466,-1.89197 -31.469843,-3.86803 C 77.21881,656.07005 76.532094,647.395 76.532094,647.395 Z" />
  <path
     style="opacity:0.2;stroke-width:0.70073086"
     id="path838"
     d="m 112.13625,660.6248 c -12.150674,0.0981 -28.232467,-1.89197 -31.469844,-3.86803 -2.466573,-1.49957 -3.447596,-6.88819 -3.776939,-9.37578 h -0.357373 c 0,0 0.700731,8.68205 3.917086,10.65111 3.216354,1.96905 19.319166,3.96613 31.46984,3.86803 3.50366,0 4.72293,-1.27533 4.65286,-3.12526 -0.48351,1.12818 -1.83592,1.82891 -4.43563,1.84993 z" />
  <path
     style="opacity:0.5;fill:#6c63ff;stroke-width:0.81243956"
     id="path840"
     d="m 281.95307,362.56083 c 0,0 3.24977,8.93683 1.99861,16.65502 -1.25116,7.71817 0.43059,2.29919 1.44614,5.64645 1.01555,3.34725 1.02367,14.8189 1.02367,14.8189 v -7.86442 c 0,0 -0.37372,-11.98349 0,-15.54197 0.37373,-3.55848 -4.46842,-13.71398 -4.46842,-13.71398 z" />
  <path
     style="opacity:0.5;fill:#6c63ff;stroke-width:0.81243956"
     id="path842"
     d="m 311.61525,349.24494 c 0,0 3.24975,8.93684 1.9986,16.65502 -1.25116,7.71817 0.43059,2.29921 1.44614,5.63833 1.01555,3.33912 1.02368,14.82702 1.02368,14.82702 v -7.87253 c 0,0 -0.37373,-11.98349 0,-15.53386 0.37371,-3.55035 -4.46842,-13.71398 -4.46842,-13.71398 z" />
  <path
     style="opacity:0.5;fill:#ffffff;stroke-width:0.81243956"
     id="path844"
     d="m 298.16124,260.02283 c 0,0 6.43452,8.93683 3.99721,16.65501 -2.43732,7.71818 -4.06219,11.99974 -2.0311,15.34699 2.0311,3.34725 6.97073,5.11836 6.97073,5.11836 v -7.86441 c 0,0 -0.74744,-11.98348 0,-15.54197 0.74745,-3.55849 -8.93684,-13.71398 -8.93684,-13.71398 z" />
  <path
     style="opacity:0.5;fill:#ffffff;stroke-width:0.81243956"
     id="path846"
     d="m 449.42938,251.69532 c 0,0 -1.14554,10.93543 -8.1244,15.08701 -6.97886,4.15156 -10.99231,6.28015 -11.70725,10.123 -0.71496,3.84283 1.77924,8.43311 1.77924,8.43311 l 5.22399,-5.87393 c 0,0 7.40944,-9.44867 10.33422,-11.60977 2.92478,-2.16108 2.4942,-16.15942 2.4942,-16.15942 z" />
  <path
     style="fill:#6c63ff;stroke-width:0.81243956"
     id="path848"
     d="m 511.71912,448.34633 a 23.910098,23.910098 0 0 0 -0.92618,3.42036 3.4122464,3.4122464 0 0 0 1.13741,3.18477 1.1536642,1.1536642 0 0 0 0.89369,0.24374 c 0.64995,-0.13813 0.81244,-0.97493 0.81244,-1.62488 0,-1.30803 0,-2.61606 -0.0813,-3.93221 a 10.212366,10.212366 0 0 0 -0.3331,-2.63231 3.0547729,3.0547729 0 0 0 -1.3324,-1.87674 c -0.3006,0.66621 0.0813,2.24234 -0.17062,3.21727 z" />
  <path
     style="fill:#6c63ff;stroke-width:0.81243956"
     id="path850"
     d="m 526.10743,456.35698 a 24.462557,24.462557 0 0 0 -0.91806,3.42037 3.3797488,3.3797488 0 0 0 1.13742,3.18477 1.1455398,1.1455398 0 0 0 0.88555,0.25185 c 0.65808,-0.13811 0.81244,-0.97492 0.81244,-1.62488 0,-1.30803 0,-2.61605 -0.0732,-3.92408 a 10.69983,10.69983 0 0 0 -0.34123,-2.64042 3.0303998,3.0303998 0 0 0 -1.32427,-1.86862 c -0.27623,0.67433 0.0813,2.23421 -0.17874,3.20101 z" />
  <path
     style="fill:#6c63ff;stroke-width:0.81243956"
     id="path852"
     d="m 519.25044,445.87652 a 9.7980216,9.7980216 0 0 0 0.38997,-1.4299 1.4298938,1.4298938 0 0 0 -0.47934,-1.3324 0.45496618,0.45496618 0 0 0 -0.37373,-0.10563 c -0.27623,0.0569 -0.34934,0.40622 -0.35747,0.69058 0,0.54433 0,1.09678 0,1.62487 a 4.2084372,4.2084372 0 0 0 0.14624,1.10492 1.2349082,1.2349082 0 0 0 0.55246,0.81244 c 0.17061,-0.30061 0.0162,-0.95055 0.12187,-1.36489 z" />
  <path
     style="fill:#6c63ff;stroke-width:0.81243956"
     id="path854"
     d="m 596.84655,290.70055 a 9.9036389,9.9036389 0 0 0 0.38997,-1.43802 1.4217693,1.4217693 0 0 0 -0.47934,-1.33241 0.51996136,0.51996136 0 0 0 -0.37373,-0.10562 c -0.27623,0.0568 -0.34934,0.41434 -0.34934,0.69057 0,0.55246 0,1.0968 0,1.62488 a 3.9240834,3.9240834 0 0 0 0.13811,1.10492 1.3080277,1.3080277 0 0 0 0.55246,0.81244 c 0.17874,-0.3006 0.0162,-0.95056 0.12187,-1.35677 z" />
  <ellipse
     style="fill:#6c63ff;stroke-width:0.70073086"
     id="ellipse856"
     ry="0.85489172"
     rx="5.2765036"
     cy="633.50653"
     cx="392.05716" />
  <ellipse
     style="fill:#6c63ff;stroke-width:0.70073086"
     id="ellipse858"
     ry="0.85489172"
     rx="5.2765036"
     cy="634.01105"
     cx="396.46472" />
  <ellipse
     style="fill:#6c63ff;stroke-width:0.70073086"
     id="ellipse860"
     ry="0.85489172"
     rx="5.2765036"
     cy="631.90186"
     cx="398.30069" />
  <ellipse
     style="fill:#6c63ff;stroke-width:0.70073086"
     id="ellipse862"
     ry="0.85489172"
     rx="5.2765036"
     cy="634.36841"
     cx="401.74124" />
  <polygon
     transform="matrix(0.81243961,0,0,0.81243961,80.906748,49.332864)"
     style="opacity:0.5;fill:#6c63ff"
     id="polygon864"
     points="300.02,251.23 301.05,256.71 303.01,249.03 " />
  <path
     style="opacity:0.5;fill:#6c63ff;stroke-width:0.81243956"
     id="path866"
     d="m 318.49661,200.51162 9.22931,48.60827 3.97284,-15.5501 h -0.47935 l 6.75138,-37.51846 q -6.84075,1.31615 -13.43775,2.91666 l 1.42177,12.95028 -3.32288,-12.48719 q -2.08797,0.54434 -4.13532,1.08054 z" />
  <path
     style="opacity:0.8;fill:#6c63ff;stroke-width:0.81243956"
     id="path868"
     d="m 581.86516,259.37287 -1.14554,6.57265 1.14554,6.57263 c 1.57613,-2.16109 3.03039,-4.35468 4.38718,-6.57263 -1.35679,-2.2261 -2.81105,-4.41155 -4.38718,-6.57265 z" />
  <polygon
     transform="matrix(0.81243961,0,0,0.81243961,80.906748,49.332864)"
     style="opacity:0.5;fill:#6c63ff"
     id="polygon870"
     points="286.73,266.62 286.89,272.37 295.45,278.65 298.52,266.62 295.45,254.59 286.89,260.87 " />
  <polygon
     transform="matrix(0.81243961,0,0,0.81243961,80.906748,49.332864)"
     style="opacity:0.5;fill:#6c63ff"
     id="polygon872"
     points="301.05,276.53 300.02,282.01 303.01,284.21 " />
  <path
     style="opacity:0.5;fill:#6c63ff;stroke-width:0.81243956"
     id="path874"
     d="m 245.71827,281.28438 -3.84284,-11.24417 -5.61396,20.73345 c 1.62488,1.42177 10.50485,2.81917 12.24346,4.19219 1.27554,-4.65527 -4.41155,-9.44867 -2.78666,-13.68147 z" />
  <path
     style="opacity:0.5;fill:#6c63ff;stroke-width:0.81243956"
     id="path876"
     d="m 300.15172,286.0859 4.41155,-20.14038 6.0608,-41.1907 c -4.0622,1.41365 -11.54477,-5.43522 -15.43635,-3.85908 l -4.30593,12.12159 -6.75138,-20.86344 c -3.24975,1.36489 -14.76203,18.85672 -17.82492,20.31099 l 5.18336,33.47251 8.1244,34.97552 c 3.06289,1.47052 1.34052,17.4512 4.55779,18.8161 l 6.75137,-20.86345 -3.58286,22.17148 c 3.87534,1.58426 8.74997,-36.3648 12.81217,-34.95114 z" />
  <path
     style="opacity:0.5;fill:#6c63ff;stroke-width:0.81243956"
     id="path878"
     d="m 337.97079,335.8072 -6.75138,-37.51847 h 0.47935 l -3.97284,-15.55821 -9.22931,48.60826 q 2.04735,0.55245 4.13532,1.05617 l 3.32288,-12.4872 -1.4299,12.95841 c 4.41155,1.08055 8.88809,2.0636 13.44588,2.94104 z" />
  <path
     style="opacity:0.5;fill:#6c63ff;stroke-width:0.81243956"
     id="path880"
     d="m 241.27423,236.92517 q -2.59168,2.0636 -5.04525,4.19219 l 5.61395,20.72534 3.87534,-11.24417 c -1.62489,-4.23282 -3.1279,-9.01808 -4.44404,-13.67336 z" />
  <path
     style="opacity:0.5;fill:#6c63ff;stroke-width:0.81243956"
     id="path882"
     d="m 232.27239,244.70834 -2.85166,41.7919 c 0.21936,0.21936 3.30663,1.10491 3.53411,1.31614 l 7.48258,-21.87086 -7.48258,-21.87901 c -0.23561,0.24373 -0.46308,0.42247 -0.68245,0.64183 z" />
  <path
     style="opacity:0.8;fill:#6c63ff;stroke-width:0.81243956"
     id="path884"
     d="m 272.64252,300.92104 -14.94889,-95.46166 q -4.97213,2.68105 -9.62741,5.53272 c 2.02298,13.99021 12.99903,52.19924 6.88949,52.85732 -2.80292,0.30873 -5.73582,-4.46842 -8.43313,-11.11418 l -3.57473,13.21028 3.57473,13.21026 c 2.69731,-6.64576 5.63021,-11.42291 8.43313,-11.12229 6.13391,0.65807 -2.6323,8.53874 -4.65528,22.52894 3.09539,1.90924 19.01921,8.57936 22.34209,10.35861 z" />
  <path
     style="opacity:0.5;fill:#6c63ff;stroke-width:0.81243956"
     id="path886"
     d="m 341.01744,336.37591 q 8.82309,1.62487 17.98741,2.75416 l -4.16782,-33.26939 -0.60933,11.56913 -0.7312,-22.26084 -0.41434,-3.24977 -1.74674,16.04569 -3.94033,-6.30453 4.71214,-17.71119 -1.11304,-8.76622 -2.09609,-1.55989 0.95868,-7.67754 -0.95868,-7.67756 2.12047,-1.55988 1.09679,-8.77436 -4.71215,-17.71118 3.94033,-6.2964 1.76299,16.0863 0.41435,-3.24976 0.73119,-22.26897 0.60933,11.56914 7.37696,-5.35398 c -4.54154,3.63974 16.1188,31.41704 -21.19655,-25.18563 l -1.62488,37.51034 -6.27203,0.44684 -6.13392,32.49759 6.13392,32.49758 6.27203,0.44684 z" />
  <path
     style="opacity:0.5;fill:#6c63ff;stroke-width:0.81243956"
     id="path888"
     d="m 532.26572,214.24998 c -1.73863,-0.81244 -3.50161,-1.55177 -5.28086,-2.29921 l -5.22398,11.54477 12.09722,2.12859 z" />
  <path
     style="opacity:0.5;fill:#6c63ff;stroke-width:0.81243956"
     id="path890"
     d="m 503.79784,274.59799 c -1.763,-0.70682 1.80361,-44.61105 0,-45.29351 l 6.6945,-5.97143 -2.48607,38.50965 z" />
  <path
     style="opacity:0.95;fill:#6c63ff;stroke-width:0.81243956"
     id="path892"
     d="m 227.34901,268.84593 2.07172,-2.90041 -1.49489,-16.90687 a 99.247623,99.247623 0 0 0 -13.08028,16.90687 c 3.56661,5.8658 7.36883,-2.47795 12.50345,2.90041 z" />
  <path
     style="opacity:0.5;fill:#6c63ff;stroke-width:0.81243956"
     id="path894"
     d="m 524.90502,305.13759 c 2.24233,-1.20241 14.38017,3.63161 16.52502,2.37233 l 6.88136,-41.5644 -2.89228,-30.96208 c -2.14485,-1.26741 -10.83795,-0.95868 -13.08029,-2.16109 l -4.78526,23.1464 -3.73722,-26.66427 -6.15829,36.64104 -4.28968,29.08533 14.18519,-19.11671 z" />
  <path
     style="opacity:0.5;fill:#6c63ff;stroke-width:0.81243956"
     id="path896"
     d="m 496.45338,327.33345 -17.2156,-60.01492 -4.31405,12.29222 3.96471,-13.66523 -3.92409,-13.66525 4.31406,12.29222 17.2156,-60.01492 c -3.13602,-1.00741 -6.31266,-1.9661 -9.5543,-2.87604 v 31.92076 L 477.41793,213.99 c -5.16712,-1.34866 -7.14136,-0.41435 -12.53595,-1.50302 v 0 l -3.48537,12.50345 q -5.43522,-0.99118 -10.94356,-1.80362 l 1.97422,-11.21167 -4.87463,10.78108 c -1.85236,-0.25998 -3.70472,-0.51184 -5.57333,-0.73932 l 10.91106,41.88939 1.88486,-8.1244 -1.568,10.19612 1.568,10.19612 -1.88486,-22.74832 -10.94356,71.16159 q 2.80292,21.57839 5.57333,-0.73931 l 4.87465,-18.46676 -1.94174,17.97116 c 3.68035,14.07146 7.31196,-1.16178 10.91919,-1.82798 l 3.48537,-2.12047 1.31615,1.17804 c 5.39459,-1.0968 10.68358,12.30845 15.85069,10.95981 l 4.87465,-33.25316 v 31.92076 c 3.24162,-0.90994 6.41826,-1.87674 9.55428,-2.87604 z" />
  <path
     style="opacity:0.5;fill:#6c63ff;stroke-width:0.81243956"
     id="path898"
     d="m 479.70088,289.66062 -6.65389,-23.18702 -1.62488,4.75277 1.51114,-5.28085 -1.51114,-5.28086 1.62488,4.74464 6.65389,-23.1789 c -1.21054,-0.38997 -2.43732,-0.76369 -3.68848,-1.11304 v 12.33284 l -1.89298,-12.85281 q -2.99791,-0.81244 -6.1258,-1.41364 l -0.47933,6.10142 -1.34866,-6.49952 c -1.38927,-0.25997 -2.80292,-0.48746 -4.22469,-0.70681 l 0.7637,6.97073 -1.89298,-7.13323 -2.15297,-0.28434 4.22469,27.49295 0.73119,-3.15227 -0.60933,3.94034 0.60933,3.94032 -0.73119,-3.15226 -4.22469,27.49296 2.15297,-0.28436 1.89298,-7.13321 -0.7637,6.9626 c 1.42177,-0.21123 2.83542,-0.44684 4.22469,-0.70683 l 1.34866,-6.49951 0.5037,6.10954 q 3.13602,-0.6337 6.1258,-1.42177 l 1.89298,-12.78779 v 12.33284 c 1.22679,-0.34123 2.47794,-0.71496 3.66411,-1.10493 z" />
  <path
     style="opacity:0.5;fill:#6c63ff;stroke-width:0.81243956"
     id="path900"
     d="m 549.68443,239.58185 -1.25117,25.61621 0.23561,-1.40551 -0.17061,2.15297 0.17061,2.15295 -0.23561,-1.41364 -0.12186,30.17401 c 4.50904,-2.81104 15.65572,-10.33423 19.65291,-13.40525 l -15.50947,12.85279 2.85979,-30.36899 6.55639,-13.77086 -3.78596,-16.59813 c -3.99721,-3.05478 -3.89972,6.83262 -8.40063,4.01345 z" />
  <path
     style="opacity:0.6;fill:#6c63ff;stroke-width:0.81243956"
     id="path902"
     d="m 377.85345,329.15331 c 0.90181,-0.18686 27.71232,12.30846 28.61412,12.1216 l 2.47794,-75.32939 -8.57123,-43.34367 c -3.81035,-0.81243 -12.18661,-5.80081 -16.02132,-6.597 l 2.63231,11.60976 1.27553,11.65851 -2.43732,-9.20494 -6.86512,14.33956 1.40552,12.82842 -2.69729,-10.13112 -7.31196,15.33073 -0.4306,3.50975 0.4306,3.50973 7.31196,15.32261 2.69729,-10.123 -1.40552,12.82031 6.83263,14.34767 2.43731,-9.20494 -1.27553,11.65851 z" />
  <polygon
     transform="matrix(0.81243961,0,0,0.81243961,80.906748,49.332864)"
     style="opacity:0.5;fill:#6c63ff"
     id="polygon904"
     points="281.27,268.23 281.35,266.62 281.27,265.01 279.07,266.62 " />
  <path
     style="opacity:0.5;fill:#6c63ff;stroke-width:0.81243956"
     id="path906"
     d="m 499.41066,265.94552 -3.37162,-45.19602 6.64576,1.17804 1.11304,-14.90827 c -1.00743,-0.35748 -2.01485,-0.70683 -3.03041,-1.04805 l -21.06655,59.9743 21.04218,59.95804 3.03041,-1.05617 -1.11306,-14.90828 -6.64574,1.18617 z" />
  <path
     style="opacity:0.5;fill:#6c63ff;stroke-width:0.81243956"
     id="path908"
     d="m 432.93685,327.44719 11.33354,-61.50167 -13.62462,-38.18466 c -2.77041,-0.35749 -5.57333,-0.65809 -8.3925,-0.90994 l 1.49489,-18.60487 -3.67223,18.43425 q -3.14414,-0.24373 -6.3289,-0.40621 l -1.67363,39.68767 1.3324,59.95804 c 2.12047,-0.10562 4.57403,15.22513 6.67013,15.06263 l 3.67223,-17.30496 8.12439,15.43635 c 2.8273,-0.2356 -1.73049,-11.30915 1.0643,-11.66663 z" />
  <polygon
     transform="matrix(0.81243961,0,0,0.81243961,80.906748,49.332864)"
     style="fill:#6c63ff"
     id="polygon910"
     points="247.46,268.31 261.86,249.08 267.41,239.7 257.92,274.71 251.7,290.5 236,254.59 236,231.81 " />
</svg>
