<svg version="1.1" viewBox="0 0 805.09 805.09" height="805.09003" width="805.09003" data-name="Layer 1" id="f9eb83fe-2109-496c-8de2-d29751931755">
  <title
     id="title11">authentication</title>
  <path
     style="opacity:0.1;fill:#6c63ff;stroke-width:0.67938387"
     id="path13"
     d="m 455.37187,194.46537 c -50.78394,0.0679 -99.66561,-14.32821 -146.42081,-30.3209 -46.7552,-15.9927 -93.15032,-33.90125 -142.98992,-41.48997 -32.05333,-4.87798 -68.502261,-4.42959 -93.557942,13.28195 -24.118127,17.03895 -31.102193,45.24017 -34.471937,71.29454 -2.534102,19.60022 -3.702642,40.17197 5.788351,58.10091 6.590023,12.44631 17.867795,22.70501 25.816586,34.56705 27.746041,41.26577 11.060369,93.97917 -15.904376,136.20287 -12.643334,19.81084 -27.453902,38.79962 -37.012833,59.74502 -9.55893,20.94541 -13.4789751,44.69667 -3.729817,65.37032 9.660839,20.49021 31.482648,35.36193 54.90101,45.51871 47.556858,20.66686 102.926648,25.09644 156.808578,26.8017 119.27263,3.78417 238.77625,-3.93363 357.96056,-11.65144 44.1056,-2.85341 88.40822,-5.7272 131.60345,-13.9953 23.98225,-4.58584 48.67785,-11.39327 65.68283,-26.31254 21.58403,-18.94122 26.00002,-49.86678 10.29267,-72.09622 -26.33971,-37.28458 -95.79313,-44.3162 -114.68,-84.65802 -10.41495,-22.20906 -1.4335,-47.67916 11.79411,-69.08654 28.37107,-45.93315 77.20518,-87.07663 78.02723,-138.45164 0.56389,-35.2804 -24.83148,-69.69799 -62.76148,-85.03168 -39.75754,-16.06063 -93.96558,-11.92998 -121.82032,18.00367 -28.64282,30.83724 -80.4866,44.15995 -125.32594,44.20751 z" />
  <path
     style="fill:#6c63ff;stroke-width:0.67938387"
     id="path25"
     d="m 717.19282,522.43793 c 0,0 -2.60204,-15.34728 -21.58402,-10.77503 0,0 -0.0679,13.26837 18.48603,14.43011 z" />
  <path
     style="fill:#6c63ff;stroke-width:0.67938387"
     id="path27"
     d="m 726.3645,506.63546 c 0,0 -4.36164,-14.94645 -23.16698,-10.4761 0,0 4.47713,13.44501 21.91692,13.2344 z" />
  <path
     style="fill:#6c63ff;stroke-width:0.67938387"
     id="path29"
     d="m 735.07421,491.19986 c 0,0 -4.25974,-15.51034 -22.41967,-10.87014 0,0 6.0601,14.73583 21.21716,13.49256 z" />
  <path
     style="fill:#6c63ff;stroke-width:0.67938387"
     id="path31"
     d="m 740.68592,476.53875 c 0,0 -3.27463,-18.96839 -20.20488,-14.7698 0,0 4.91874,17.25635 18.9616,17.5349 z" />
  <path
     style="fill:#6c63ff;stroke-width:0.67938387"
     id="path33"
     d="m 745.95114,458.82722 c 0,0 -3.93363,-19.11787 -21.0609,-13.58768 0,0 6.71231,18.07161 19.8448,16.2033 z" />
  <path
     style="fill:#6c63ff;stroke-width:0.67938387"
     id="path35"
     d="m 749.18501,442.34536 c 0,0 -6.24354,-19.12465 -19.48473,-18.60832 0,0 6.37941,20.19808 18.37733,22.41967 z" />
  <path
     style="fill:#6c63ff;stroke-width:0.67938387"
     id="path37"
     d="m 751.27751,426.25755 c 0,0 -6.79384,-23.01752 -17.56887,-21.24433 0,0 4.70134,17.59604 17.18842,24.83148 z" />
  <path
     style="fill:#6c63ff;stroke-width:0.67938387"
     id="path39"
     d="m 752.45964,407.06496 c 0,0 -6.37262,-19.17901 -16.9846,-19.94671 0,0 4.33447,18.87328 16.77399,24.93339 z" />
  <path
     style="fill:#6c63ff;stroke-width:0.67938387"
     id="path41"
     d="m 753.74367,389.1564 c 0,0 -7.94199,-19.19939 -14.94644,-19.63419 0,0 3.45127,18.90725 14.26706,22.78653 z" />
  <path
     style="fill:#6c63ff;stroke-width:0.67938387"
     id="path43"
     d="m 754.62008,372.49791 c 0,0 -4.88477,-20.85029 -11.90281,-22.58272 0,0 0.95794,17.05933 11.19625,24.1453 z" />
  <path
     style="fill:#6c63ff;stroke-width:0.67938387"
     id="path45"
     d="m 757.26968,350.6761 c 0,0 -5.13615,-16.62452 -10.82259,-19.15862 0,0 1.12099,19.60022 9.51138,23.22134 z" />
  <path
     style="fill:#6c63ff;stroke-width:0.67938387"
     id="path47"
     d="m 759.46409,336.40904 1.03266,-29.30862 c 0,0 -10.63236,22.09356 -1.80037,34.45155 z" />
  <path
     style="fill:#6c63ff;stroke-width:0.67938387"
     id="path49"
     d="m 767.67104,307.25668 c 0,0 7.65666,-21.40059 9.51138,-22.59631 0,0 -15.01439,13.88661 -13.54692,31.74761 z" />
  <path
     style="fill:#6c63ff;stroke-width:0.67938387"
     id="path51"
     d="m 705.16093,537.62216 c 0,0 13.46539,-1.75961 13.06456,17.26993 0,0 -12.16777,1.98381 -16.14216,-13.75752 z" />
  <path
     style="fill:#6c63ff;stroke-width:0.67938387"
     id="path53"
     d="m 717.83144,521.9216 c 0,0 15.55789,-0.0476 14.26706,19.43037 0,0 -13.06455,2.33708 -17.37184,-15.74811 z" />
  <path
     style="fill:#6c63ff;stroke-width:0.67938387"
     id="path55"
     d="m 726.51397,507.89232 c 0,0 14.12439,-6.62399 23.1602,10.4761 0,0 -13.04418,5.51659 -24.41027,-7.71101 z" />
  <path
     style="fill:#6c63ff;stroke-width:0.67938387"
     id="path57"
     d="m 735.38672,491.34253 c 0,0 14.46408,-7.04521 22.95638,9.65404 0,0 -15.06873,5.1905 -24.15209,-7.01124 z" />
  <path
     style="fill:#6c63ff;stroke-width:0.67938387"
     id="path59"
     d="m 740.50248,476.95318 c 0,0 13.92058,-13.29554 25.0285,0.14946 0,0 -14.2195,10.94488 -25.66712,2.81265 z" />
  <path
     style="fill:#6c63ff;stroke-width:0.67938387"
     id="path61"
     d="m 745.16306,458.37203 c 0,0 14.0021,-13.58768 25.0217,0.62503 0,0 -15.71414,11.16228 -25.52445,2.22838 z" />
  <path
     style="fill:#6c63ff;stroke-width:0.67938387"
     id="path63"
     d="m 747.77868,441.80186 c 0,0 10.78862,-16.9846 23.4931,-13.19364 0,0 -11.19625,17.98329 -23.37081,17.18162 z" />
  <path
     style="fill:#6c63ff;stroke-width:0.67938387"
     id="path65"
     d="m 750.9582,426.14885 c 0,0 10.87014,-21.387 21.15601,-17.66398 0,0 -7.84009,16.44109 -21.43456,21.27151 z" />
  <path
     style="fill:#6c63ff;stroke-width:0.67938387"
     id="path67"
     d="m 751.71232,405.95077 c 0,0 11.17586,-16.83513 21.64517,-14.7766 0,0 -9.13772,17.07292 -22.73219,19.64778 z" />
  <path
     style="fill:#6c63ff;stroke-width:0.67938387"
     id="path69"
     d="m 752.58193,388.78274 c 0,0 8.66214,-18.89366 15.70056,-19.02275 0,0 -4.15783,18.75779 -15.11629,22.22944 z" />
  <path
     style="fill:#6c63ff;stroke-width:0.67938387"
     id="path71"
     d="m 754.28039,372.09028 c 0,0 9.62687,-19.13145 16.86231,-19.17221 0,0 -4.92554,16.35956 -16.543,20.85029 z" />
  <path
     style="fill:#6c63ff;stroke-width:0.67938387"
     id="path73"
     d="m 755.72748,351.87182 c 0,0 7.20146,-15.82965 13.16645,-17.62322 0,0 -3.60073,19.2945 -12.37158,21.82181 z" />
  <path
     style="fill:#6c63ff;stroke-width:0.67938387"
     id="path75"
     d="m 760.32011,335.83156 16.0946,-24.51896 c 0,0 -4.12386,24.18606 -18.44527,29.21351 z" />
  <path
     style="fill:#6c63ff;stroke-width:0.67938387"
     id="path77"
     d="m 771.36689,309.23368 c 0,0 18.70344,-12.90829 19.38282,-14.994 0,0 -9.51137,18.07841 -27.17535,21.27151 z" />
  <path
     style="fill:#6c63ff;stroke-width:0.67938387"
     id="path79"
     d="m 772.48788,303.42495 c 0,0 21.47532,-20.64647 26.95795,-20.62609 0,0 -17.71154,0.80847 -27.47429,19.52549 z" />
  <path
     style="fill:#444053;stroke-width:0.67938387"
     id="path81"
     d="m 755.93808,354.93584 0.7813,0.1019 c 4.03554,-31.58455 9.919,-50.2744 16.56337,-52.56392 l -0.25816,-0.74733 c -7.04521,2.44578 -12.96944,20.85029 -17.08651,53.20935 z" />
  <path
     style="fill:#444053;stroke-width:0.67938387"
     id="path83"
     d="m 750.00027,430.46973 1.18213,0.0951 c 0.25137,-2.94853 0.4416,-5.96499 0.57068,-8.97466 1.12778,-26.14269 2.87379,-50.15212 5.17011,-68.149 l -0.67938,-0.84923 c -2.30311,18.03764 -4.54508,42.76722 -5.67286,68.95067 -0.12908,2.98929 -0.31931,5.99217 -0.57068,8.9271 z" />
  <path
     style="fill:#444053;stroke-width:0.67938387"
     id="path85"
     d="m 659.50634,573.51401 c 0.20381,-0.0883 21.01334,-9.3823 42.61095,-31.5438 a 171.3542,171.3542 0 0 0 31.14975,-44.15995 c 9.98695,-20.33396 16.07423,-45.32169 18.11238,-69.59608 l -1.22969,0.57748 c -4.58584,54.48658 -29.39014,91.71682 -49.11266,111.99643 -21.387,21.96448 -41.96554,31.16333 -42.16935,31.25165 z" />
  <path
     style="fill:#3f3d56;stroke-width:0.67938387"
     id="path87"
     d="M 713.38827,177.90199 H 60.581919 a 5.8155258,5.8155258 0 0 0 -5.815526,5.81553 v 16.94383 H 719.2038 v -16.94383 a 5.8155258,5.8155258 0 0 0 -5.81553,-5.81553 z" />
  <path
     style="fill:#ffffff;stroke-width:0.67938387"
     id="path89"
     d="m 54.766393,200.66135 v 381.2974 a 11.726165,11.726165 0 0 0 11.726166,11.72616 H 707.47763 a 11.726165,11.726165 0 0 0 11.72617,-11.72616 v -381.2974 z" />
  <circle
     style="opacity:0.8;fill:#fa5959;stroke-width:0.67938387"
     id="circle91"
     r="2.7175355"
     cy="189.11182"
     cx="65.290047" />
  <circle
     style="opacity:0.8;fill:#fed253;stroke-width:0.67938387"
     id="circle93"
     r="2.7175355"
     cy="189.11182"
     cx="72.763275" />
  <circle
     style="opacity:0.8;fill:#8ccf4d;stroke-width:0.67938387"
     id="circle95"
     r="2.7175355"
     cy="189.11182"
     cx="80.236496" />
  <rect
     style="opacity:0.05;stroke-width:0.67938387"
     id="rect97"
     height="234.80864"
     width="533.99573"
     y="264.2381"
     x="116.52917" />
  <rect
     style="fill:#3f3d56;stroke-width:0.67938387"
     id="rect99"
     height="229.63174"
     width="525.84308"
     y="266.01807"
     x="120.60545" />
  <path
     style="fill:#6c63ff;stroke-width:0.67938387"
     id="path101"
     d="m 263.95547,325.11768 a 52.312557,52.312557 0 1 0 52.31256,52.31256 52.312557,52.312557 0 0 0 -52.31256,-52.31256 z m 9.38229,53.56942 v 24.77033 H 254.84493 V 378.6871 a 15.320106,15.320106 0 1 1 18.49283,0 z" />
  <path
     style="opacity:0.05;stroke-width:0.67938387"
     id="path103"
     d="m 263.95547,325.11768 a 52.312557,52.312557 0 1 0 52.31256,52.31256 52.312557,52.312557 0 0 0 -52.31256,-52.31256 z m 9.38229,53.56942 v 24.77033 H 254.84493 V 378.6871 a 15.320106,15.320106 0 1 1 18.49283,0 z" />
  <path
     style="fill:#6c63ff;stroke-width:0.67938387"
     id="path105"
     d="m 263.95547,310.17123 a 67.259002,67.259002 0 1 0 67.259,67.25901 67.259002,67.259002 0 0 0 -67.259,-67.25901 z m 12.05906,68.87594 v 31.84272 H 252.2361 v -31.84272 a 19.702132,19.702132 0 1 1 23.77843,0 z" />
  <rect
     style="fill:#ffffff;stroke-width:0.67938387"
     id="rect107"
     height="23.099051"
     width="217.40283"
     y="368.60504"
     x="359.06924" />
  <rect
     style="fill:#6c63ff;stroke-width:0.67938387"
     id="rect109"
     height="23.099051"
     width="46.877487"
     y="410.72684"
     x="529.5946" />
  <path
     style="fill:#6c63ff;stroke-width:0.67938387"
     id="path111"
     d="m 380.4698,379.80808 h -3.93363 l 3.49882,-3.49203 a 0.34648577,0.34648577 0 0 0 0,-0.48237 0.33969193,0.33969193 0 0 0 -0.48236,0 l -3.49882,3.49883 v -3.94043 a 0.33969193,0.33969193 0 0 0 -0.3397,-0.33969 0.34648577,0.34648577 0 0 0 -0.33969,0.33969 v 3.94043 l -3.49203,-3.51921 a 0.33969193,0.33969193 0 0 0 -0.48236,0 0.34648577,0.34648577 0 0 0 0,0.48237 l 3.49882,3.49203 h -3.94042 a 0.34648577,0.34648577 0 0 0 -0.3397,0.33969 0.33969193,0.33969193 0 0 0 0.3397,0.33969 h 3.94042 l -3.49882,3.49883 a 0.34648577,0.34648577 0 0 0 0,0.48236 0.35327961,0.35327961 0 0 0 0.48236,0 l 3.49203,-3.49883 v 3.93364 a 0.33969193,0.33969193 0 0 0 0.33969,0.33969 0.33969193,0.33969193 0 0 0 0.3397,-0.33969 v -3.93364 l 3.49882,3.49883 a 0.35327961,0.35327961 0 0 0 0.48236,0 0.34648577,0.34648577 0 0 0 0,-0.48236 l -3.49882,-3.49883 h 3.93363 a 0.33969193,0.33969193 0 0 0 0.33969,-0.33969 0.33969193,0.33969193 0 0 0 -0.33969,-0.31931 z" />
  <path
     style="fill:#6c63ff;stroke-width:0.67938387"
     id="path113"
     d="m 394.73686,379.80808 h -3.93363 l 3.49883,-3.49203 a 0.34648577,0.34648577 0 0 0 0,-0.48237 0.33969193,0.33969193 0 0 0 -0.48237,0 l -3.49882,3.49883 v -3.94043 a 0.33969193,0.33969193 0 0 0 -0.3397,-0.33969 0.34648577,0.34648577 0 0 0 -0.33969,0.33969 v 3.94043 l -3.49203,-3.51921 a 0.33969193,0.33969193 0 0 0 -0.48236,0 0.34648577,0.34648577 0 0 0 0,0.48237 l 3.49882,3.49203 h -3.94042 a 0.34648577,0.34648577 0 0 0 -0.33969,0.33969 0.33969193,0.33969193 0 0 0 0.33969,0.33969 h 3.94042 l -3.49882,3.49883 a 0.34648577,0.34648577 0 0 0 0,0.48236 0.35327961,0.35327961 0 0 0 0.48236,0 l 3.49203,-3.49883 v 3.93364 a 0.33969193,0.33969193 0 0 0 0.33969,0.33969 0.33969193,0.33969193 0 0 0 0.3397,-0.33969 v -3.93364 l 3.49882,3.49883 a 0.35327961,0.35327961 0 0 0 0.48237,0 0.34648577,0.34648577 0 0 0 0,-0.48236 l -3.49883,-3.49883 h 3.93363 a 0.33969193,0.33969193 0 0 0 0.33969,-0.33969 0.33969193,0.33969193 0 0 0 -0.33969,-0.31931 z" />
  <path
     style="fill:#6c63ff;stroke-width:0.67938387"
     id="path115"
     d="m 409.00392,379.80808 h -3.93363 l 3.49883,-3.49203 a 0.34648577,0.34648577 0 0 0 0,-0.48237 0.33969193,0.33969193 0 0 0 -0.48237,0 l -3.49882,3.49883 v -3.94043 a 0.33969193,0.33969193 0 0 0 -0.33969,-0.33969 0.34648577,0.34648577 0 0 0 -0.3397,0.33969 v 3.94043 l -3.49203,-3.51921 a 0.33969193,0.33969193 0 0 0 -0.48236,0 0.34648577,0.34648577 0 0 0 0,0.48237 l 3.49882,3.49203 h -3.94042 a 0.34648577,0.34648577 0 0 0 -0.33969,0.33969 0.33969193,0.33969193 0 0 0 0.33969,0.33969 h 3.94042 l -3.49882,3.49883 a 0.34648577,0.34648577 0 0 0 0,0.48236 0.35327961,0.35327961 0 0 0 0.48236,0 l 3.49203,-3.49883 v 3.93364 a 0.33969193,0.33969193 0 0 0 0.3397,0.33969 0.33969193,0.33969193 0 0 0 0.33969,-0.33969 v -3.93364 l 3.49882,3.49883 a 0.35327961,0.35327961 0 0 0 0.48237,0 0.34648577,0.34648577 0 0 0 0,-0.48236 l -3.49883,-3.49883 h 3.93363 a 0.33969193,0.33969193 0 0 0 0.33969,-0.33969 0.33969193,0.33969193 0 0 0 -0.33969,-0.31931 z" />
  <path
     style="fill:#6c63ff;stroke-width:0.67938387"
     id="path117"
     d="m 423.27098,379.80808 h -3.93363 l 3.49883,-3.49203 a 0.34648577,0.34648577 0 0 0 0,-0.48237 0.33969193,0.33969193 0 0 0 -0.48236,0 l -3.49883,3.49883 v -3.94043 a 0.33969193,0.33969193 0 0 0 -0.33969,-0.33969 0.34648577,0.34648577 0 0 0 -0.3397,0.33969 v 3.94043 l -3.49203,-3.51921 a 0.33969193,0.33969193 0 0 0 -0.48236,0 0.34648577,0.34648577 0 0 0 0,0.48237 l 3.49883,3.49203 h -3.94043 a 0.34648577,0.34648577 0 0 0 -0.33969,0.33969 0.33969193,0.33969193 0 0 0 0.33969,0.33969 h 3.94043 l -3.49883,3.49883 a 0.34648577,0.34648577 0 0 0 0,0.48236 0.35327961,0.35327961 0 0 0 0.48236,0 l 3.49203,-3.49883 v 3.93364 a 0.33969193,0.33969193 0 0 0 0.3397,0.33969 0.33969193,0.33969193 0 0 0 0.33969,-0.33969 v -3.93364 l 3.49883,3.49883 a 0.35327961,0.35327961 0 0 0 0.48236,0 0.34648577,0.34648577 0 0 0 0,-0.48236 l -3.49883,-3.49883 h 3.93363 a 0.33969193,0.33969193 0 0 0 0.3397,-0.33969 0.33969193,0.33969193 0 0 0 -0.3397,-0.31931 z" />
  <path
     style="fill:#6c63ff;stroke-width:0.67938387"
     id="path119"
     d="m 437.53804,379.80808 h -3.93363 l 3.49883,-3.49203 a 0.34648577,0.34648577 0 0 0 0,-0.48237 0.33969193,0.33969193 0 0 0 -0.48236,0 l -3.49883,3.49883 v -3.94043 a 0.33969193,0.33969193 0 0 0 -0.33969,-0.33969 0.34648577,0.34648577 0 0 0 -0.33969,0.33969 v 3.94043 l -3.49204,-3.51921 a 0.33969193,0.33969193 0 0 0 -0.48236,0 0.34648577,0.34648577 0 0 0 0,0.48237 l 3.49883,3.49203 h -3.94043 a 0.34648577,0.34648577 0 0 0 -0.33969,0.33969 0.33969193,0.33969193 0 0 0 0.33969,0.33969 h 3.94043 l -3.49883,3.49883 a 0.34648577,0.34648577 0 0 0 0,0.48236 0.35327961,0.35327961 0 0 0 0.48236,0 l 3.49204,-3.49883 v 3.93364 a 0.33969193,0.33969193 0 0 0 0.33969,0.33969 0.33969193,0.33969193 0 0 0 0.33969,-0.33969 v -3.93364 l 3.49883,3.49883 a 0.35327961,0.35327961 0 0 0 0.48236,0 0.34648577,0.34648577 0 0 0 0,-0.48236 l -3.49883,-3.49883 h 3.93363 a 0.33969193,0.33969193 0 0 0 0.3397,-0.33969 0.33969193,0.33969193 0 0 0 -0.3397,-0.31931 z" />
  <path
     style="fill:#6c63ff;stroke-width:0.67938387"
     id="path121"
     d="m 451.80511,379.80808 h -3.93364 l 3.49883,-3.49203 a 0.34648577,0.34648577 0 0 0 0,-0.48237 0.33969193,0.33969193 0 0 0 -0.48236,0 l -3.49883,3.49883 v -3.94043 a 0.33969193,0.33969193 0 0 0 -0.33969,-0.33969 0.34648577,0.34648577 0 0 0 -0.33969,0.33969 v 3.94043 l -3.49204,-3.51921 a 0.33969193,0.33969193 0 0 0 -0.48236,0 0.34648577,0.34648577 0 0 0 0,0.48237 l 3.49883,3.49203 h -3.94043 a 0.34648577,0.34648577 0 0 0 -0.33969,0.33969 0.33969193,0.33969193 0 0 0 0.33969,0.33969 h 3.94043 l -3.49883,3.49883 a 0.34648577,0.34648577 0 0 0 0,0.48236 0.35327961,0.35327961 0 0 0 0.48236,0 l 3.49204,-3.49883 v 3.93364 a 0.33969193,0.33969193 0 0 0 0.33969,0.33969 0.33969193,0.33969193 0 0 0 0.33969,-0.33969 v -3.93364 l 3.49883,3.49883 a 0.35327961,0.35327961 0 0 0 0.48236,0 0.34648577,0.34648577 0 0 0 0,-0.48236 l -3.49883,-3.49883 h 3.93364 a 0.33969193,0.33969193 0 0 0 0.33969,-0.33969 0.33969193,0.33969193 0 0 0 -0.33969,-0.31931 z" />
  <path
     style="fill:#6c63ff;stroke-width:0.67938387"
     id="path123"
     d="m 466.07217,379.80808 h -3.93364 l 3.49883,-3.49203 a 0.34648577,0.34648577 0 0 0 0,-0.48237 0.33969193,0.33969193 0 0 0 -0.48236,0 l -3.49883,3.49883 v -3.94043 a 0.33969193,0.33969193 0 0 0 -0.33969,-0.33969 0.34648577,0.34648577 0 0 0 -0.33969,0.33969 v 3.94043 l -3.49204,-3.51921 a 0.33969193,0.33969193 0 0 0 -0.48236,0 0.34648577,0.34648577 0 0 0 0,0.48237 l 3.49883,3.49203 h -3.94043 a 0.34648577,0.34648577 0 0 0 -0.33969,0.33969 0.33969193,0.33969193 0 0 0 0.33969,0.33969 h 3.94043 l -3.49883,3.49883 a 0.34648577,0.34648577 0 0 0 0,0.48236 0.35327961,0.35327961 0 0 0 0.48236,0 l 3.49204,-3.49883 v 3.93364 a 0.33969193,0.33969193 0 0 0 0.33969,0.33969 0.33969193,0.33969193 0 0 0 0.33969,-0.33969 v -3.93364 l 3.49883,3.49883 a 0.35327961,0.35327961 0 0 0 0.48236,0 0.34648577,0.34648577 0 0 0 0,-0.48236 l -3.49883,-3.49883 h 3.93364 a 0.33969193,0.33969193 0 0 0 0.33969,-0.33969 0.33969193,0.33969193 0 0 0 -0.33969,-0.31931 z" />
  <path
     style="fill:#6c63ff;stroke-width:0.67938387"
     id="path125"
     d="m 480.33923,379.80808 h -3.93363 l 3.49882,-3.49203 a 0.34648577,0.34648577 0 0 0 0,-0.48237 0.33969193,0.33969193 0 0 0 -0.48236,0 l -3.49883,3.49883 v -3.94043 a 0.33969193,0.33969193 0 0 0 -0.33969,-0.33969 0.34648577,0.34648577 0 0 0 -0.33969,0.33969 v 3.94043 l -3.49203,-3.51921 a 0.33969193,0.33969193 0 0 0 -0.48237,0 0.34648577,0.34648577 0 0 0 0,0.48237 l 3.49883,3.49203 h -3.94043 a 0.34648577,0.34648577 0 0 0 -0.33969,0.33969 0.33969193,0.33969193 0 0 0 0.33969,0.33969 h 3.94043 l -3.49883,3.49883 a 0.34648577,0.34648577 0 0 0 0,0.48236 0.35327961,0.35327961 0 0 0 0.48237,0 l 3.49203,-3.49883 v 3.93364 a 0.33969193,0.33969193 0 0 0 0.33969,0.33969 0.33969193,0.33969193 0 0 0 0.33969,-0.33969 v -3.93364 l 3.49883,3.49883 a 0.35327961,0.35327961 0 0 0 0.48236,0 0.34648577,0.34648577 0 0 0 0,-0.48236 l -3.49882,-3.49883 h 3.93363 a 0.33969193,0.33969193 0 0 0 0.33969,-0.33969 0.33969193,0.33969193 0 0 0 -0.33969,-0.31931 z" />
  <path
     style="fill:#6c63ff;stroke-width:0.67938387"
     id="path127"
     d="m 494.60629,379.80808 h -3.93363 l 3.49882,-3.49203 a 0.34648577,0.34648577 0 0 0 0,-0.48237 0.33969193,0.33969193 0 0 0 -0.48236,0 l -3.49883,3.49883 v -3.94043 a 0.33969193,0.33969193 0 0 0 -0.33969,-0.33969 0.34648577,0.34648577 0 0 0 -0.33969,0.33969 v 3.94043 l -3.49203,-3.51921 a 0.33969193,0.33969193 0 0 0 -0.48237,0 0.34648577,0.34648577 0 0 0 0,0.48237 l 3.49883,3.49203 h -3.94043 a 0.34648577,0.34648577 0 0 0 -0.33969,0.33969 0.33969193,0.33969193 0 0 0 0.33969,0.33969 h 3.94043 l -3.49883,3.49883 a 0.34648577,0.34648577 0 0 0 0,0.48236 0.35327961,0.35327961 0 0 0 0.48237,0 l 3.49203,-3.49883 v 3.93364 a 0.33969193,0.33969193 0 0 0 0.33969,0.33969 0.33969193,0.33969193 0 0 0 0.33969,-0.33969 v -3.93364 l 3.49883,3.49883 a 0.35327961,0.35327961 0 0 0 0.48236,0 0.34648577,0.34648577 0 0 0 0,-0.48236 l -3.49882,-3.49883 h 3.93363 a 0.33969193,0.33969193 0 0 0 0.33969,-0.33969 0.33969193,0.33969193 0 0 0 -0.33969,-0.31931 z" />
  <path
     style="fill:#6c63ff;stroke-width:0.67938387"
     id="path129"
     d="m 508.87335,379.80808 h -3.93363 l 3.49882,-3.49203 a 0.34648577,0.34648577 0 0 0 0,-0.48237 0.33969193,0.33969193 0 0 0 -0.48236,0 l -3.49883,3.49883 v -3.94043 a 0.33969193,0.33969193 0 0 0 -0.33969,-0.33969 0.34648577,0.34648577 0 0 0 -0.33969,0.33969 v 3.94043 l -3.49203,-3.51921 a 0.33969193,0.33969193 0 0 0 -0.48236,0 0.34648577,0.34648577 0 0 0 0,0.48237 l 3.49882,3.49203 h -3.94042 a 0.34648577,0.34648577 0 0 0 -0.3397,0.33969 0.33969193,0.33969193 0 0 0 0.3397,0.33969 h 3.94042 l -3.49882,3.49883 a 0.34648577,0.34648577 0 0 0 0,0.48236 0.35327961,0.35327961 0 0 0 0.48236,0 l 3.49203,-3.49883 v 3.93364 a 0.33969193,0.33969193 0 0 0 0.33969,0.33969 0.33969193,0.33969193 0 0 0 0.33969,-0.33969 v -3.93364 l 3.49883,3.49883 a 0.35327961,0.35327961 0 0 0 0.48236,0 0.34648577,0.34648577 0 0 0 0,-0.48236 l -3.49882,-3.49883 h 3.93363 a 0.33969193,0.33969193 0 0 0 0.33969,-0.33969 0.33969193,0.33969193 0 0 0 -0.33969,-0.31931 z" />
  <path
     style="fill:#6c63ff;stroke-width:0.67938387"
     id="path131"
     d="m 523.14041,379.80808 h -3.93363 l 3.49883,-3.49203 a 0.34648577,0.34648577 0 0 0 0,-0.48237 0.33969193,0.33969193 0 0 0 -0.48237,0 l -3.49882,3.49883 v -3.94043 a 0.33969193,0.33969193 0 0 0 -0.3397,-0.33969 0.34648577,0.34648577 0 0 0 -0.33969,0.33969 v 3.94043 L 514.553,375.8133 a 0.33969193,0.33969193 0 0 0 -0.48236,0 0.34648577,0.34648577 0 0 0 0,0.48237 l 3.49882,3.49203 h -3.94042 a 0.34648577,0.34648577 0 0 0 -0.3397,0.33969 0.33969193,0.33969193 0 0 0 0.3397,0.33969 h 3.94042 l -3.49882,3.49883 a 0.34648577,0.34648577 0 0 0 0,0.48236 0.35327961,0.35327961 0 0 0 0.48236,0 l 3.49203,-3.49883 v 3.93364 a 0.33969193,0.33969193 0 0 0 0.33969,0.33969 0.33969193,0.33969193 0 0 0 0.3397,-0.33969 v -3.93364 l 3.49882,3.49883 a 0.35327961,0.35327961 0 0 0 0.48237,0 0.34648577,0.34648577 0 0 0 0,-0.48236 l -3.49883,-3.49883 h 3.93363 a 0.33969193,0.33969193 0 0 0 0.33969,-0.33969 0.33969193,0.33969193 0 0 0 -0.33969,-0.31931 z" />
</svg>
