<svg
   xmlns:dc="http://purl.org/dc/elements/1.1/"
   xmlns:cc="http://creativecommons.org/ns#"
   xmlns:rdf="http://www.w3.org/1999/02/22-rdf-syntax-ns#"
   xmlns:svg="http://www.w3.org/2000/svg"
   xmlns="http://www.w3.org/2000/svg"
   version="1.1"
   viewBox="0 0 784.41 784.41"
   height="784.40997"
   width="784.40997"
   data-name="Layer 1"
   id="b43bf247-fd00-4c66-86de-2f4e4870ba29">
  <metadata
     id="metadata142">
    <rdf:RDF>
      <cc:Work
         rdf:about="">
        <dc:format>image/svg+xml</dc:format>
        <dc:type
           rdf:resource="http://purl.org/dc/dcmitype/StillImage" />
        <dc:title>visual data</dc:title>
      </cc:Work>
    </rdf:RDF>
  </metadata>
  <defs
     id="defs9">
    <linearGradient
       gradientUnits="userSpaceOnUse"
       gradientTransform="matrix(-1,0,0,1,2040,0)"
       y2="609.54999"
       x2="1147.3199"
       y1="609.54999"
       x1="990.77002"
       id="e697e668-bf6d-4d5c-9412-9fae30629717">
      <stop
         id="stop2"
         stop-opacity="0.25"
         stop-color="gray"
         offset="0" />
      <stop
         id="stop4"
         stop-opacity="0.12"
         stop-color="gray"
         offset="0.54" />
      <stop
         id="stop6"
         stop-opacity="0.1"
         stop-color="gray"
         offset="1" />
    </linearGradient>
  </defs>
  <title
     id="title11">visual data</title>
  <ellipse
     style="opacity:0.1;fill:#6c63ff;stroke-width:0.6853224"
     id="ellipse13"
     ry="11.643627"
     rx="43.860634"
     cy="646.03882"
     cx="675.43866" />
  <path
     style="opacity:0.1;fill:#6c63ff;stroke-width:0.6853224"
     id="path15"
     d="m 747.77432,596.33238 c -16.68759,13.84351 -40.43402,19.5728 -63.39917,23.19131 l -3.86522,0.58937 c -23.98629,3.57738 -48.23984,5.48258 -72.57564,6.64078 -13.02112,0.6305 -26.04225,1.07595 -39.06337,1.47344 l -10.20446,0.30154 q -19.87434,0.58938 -39.82408,1.15819 -19.53169,0.55512 -39.06337,1.0417 -25.01427,0.60993 -50.02853,1.01428 -19.53169,0.30838 -39.06339,0.42489 -25.02112,0.14392 -50.02853,-0.0959 -19.5454,-0.19873 -39.06338,-0.68532 -25.02797,-0.6442 -50.02853,-1.88463 -16.96857,-0.82925 -33.9166,-1.99429 l -5.14677,-0.36323 c -48.50027,-3.49518 -97.87089,-9.76587 -140.312898,-29.5854 l -1.144489,-0.5414 c -0.568817,-0.26728 -1.137634,-0.53456 -1.706451,-0.81553 A 153.58759,153.58759 0 0 1 47.025344,583.11936 C 34.477092,574.16905 24.115018,563.24502 18.639292,550.28556 10.059056,529.95891 14.59589,507.11026 24.396,487.2359 c 9.80011,-19.87434 24.513981,-37.81608 37.240418,-56.53224 3.728153,-5.48258 7.264417,-11.17075 10.553964,-17.00284 20.559672,-36.57566 30.757268,-78.90116 9.20388,-114.14731 a 156.65099,156.65099 0 0 0 -9.20388,-13.02111 c -5.256423,-6.85322 -10.601937,-13.70646 -14.213586,-21.29297 -8.422611,-17.6539 -6.613361,-37.5077 -3.543117,-56.36777 4.111935,-25.07595 11.65048,-52.08449 35.211864,-67.75097 24.445447,-16.26956 59.143307,-15.44716 89.482537,-9.59452 47.17074,9.03941 90.70926,27.96116 134.659,45.02569 43.94972,17.06453 89.98967,32.66932 138.31176,34.34836 a 220.73548,220.73548 0 0 0 31.09992,-1.13078 v 0 a 197.24264,197.24264 0 0 0 40.51627,-8.53226 c 19.01769,-6.26385 36.32208,-15.68705 49.15131,-28.78355 27.5157,-27.99541 79.22327,-30.11307 116.50481,-13.20616 35.57508,16.13248 58.58136,50.27526 56.88176,84.3769 -1.93261,37.95999 -30.35979,69.16958 -56.4089,101.18099 -3.15933,3.87893 -6.27754,7.77156 -9.31352,11.6916 q -2.54255,3.28269 -4.98915,6.5791 v 0 c -2.85779,3.87892 -5.61964,7.77841 -8.22387,11.72586 -13.30895,20.23757 -22.71843,44.54595 -13.55567,66.39403 5.13992,12.23301 14.94688,21.56709 26.76869,29.71558 26.48771,18.25013 63.04965,30.53111 79.4974,56.07993 14.17246,22.01941 8.92289,51.74183 -12.25357,69.34092 z" />
  <g
     transform="matrix(0.68532237,0,0,0.68532237,14.102458,120.10871)"
     style="opacity:0.1"
     id="g31">
    <path
       style="fill:#3f3d56"
       id="path17"
       transform="translate(-43.21,-57.79)"
       d="m 598.71,607.14 q 0.06,1.41 0.21,2.76 11.67,-4.65 22.91,-10 a 18.57,18.57 0 0 0 10.59,-5.18 c 2.19,-1.1 4.37,-2.25 6.53,-3.4 a 26.82,26.82 0 0 0 -1.66,-3 c -4.21,-6.65 -10.61,-10.81 -17.66,-10.58 -7.05,0.23 -13.15,4.8 -16.92,11.69 a 34.46,34.46 0 0 0 -4,17.71 z" />
    <path
       style="fill:#3f3d56"
       id="path19"
       transform="translate(-43.21,-57.79)"
       d="m 597.56,572.17 a 34.57,34.57 0 0 0 5.15,17.32 c 4.22,6.63 10.62,10.79 17.67,10.56 0.49,0 1,-0.07 1.45,-0.11 a 18.57,18.57 0 0 0 10.59,-5.18 25.47,25.47 0 0 0 4.87,-6.38 35.82,35.82 0 0 0 -1.14,-35 c -4.22,-6.65 -10.62,-10.81 -17.67,-10.58 -7.05,0.23 -13.14,4.8 -16.91,11.69 a 34.47,34.47 0 0 0 -4.01,17.68 z" />
    <ellipse
       style="fill:#3f3d56"
       id="ellipse21"
       transform="rotate(-1.88,-1164.7725,1824.1323)"
       ry="28.629999"
       rx="21.870001"
       cy="536.47998"
       cx="618.28003" />
    <ellipse
       style="fill:#3f3d56"
       id="ellipse23"
       transform="rotate(-1.88,-1165.7212,1789.0625)"
       ry="28.629999"
       rx="21.870001"
       cy="501.51001"
       cx="617.13" />
    <ellipse
       style="fill:#3f3d56"
       id="ellipse25"
       transform="rotate(-1.88,-1166.9796,1754.2924)"
       ry="28.629999"
       rx="21.870001"
       cy="466.54001"
       cx="615.98999" />
    <path
       style="fill:#6c63ff"
       id="path27"
       transform="translate(-43.21,-57.79)"
       d="m 690,224.56 a 104.08,104.08 0 0 0 7.74,-12.25 l -57.74,-7.54 62.12,-1.58 a 104.89,104.89 0 0 0 -0.72,-83 l -81.91,45.95 75,-59 A 104.75,104.75 0 1 0 525.38,230 105.16,105.16 0 0 0 514.07,249.48 l 75.81,36.28 -80.36,-24.06 A 104.8,104.8 0 0 0 529.63,359.45 104.74,104.74 0 1 0 694.19,354 104.77,104.77 0 0 0 690,224.56 Z" />
    <path
       style="opacity:0.1"
       id="path29"
       transform="translate(-43.21,-57.79)"
       d="m 505.1,295.42 a 104.26,104.26 0 0 0 24.53,64 A 104.74,104.74 0 1 0 694.19,354 C 707.64,335.74 504.72,283.67 505.1,295.42 Z" />
  </g>
  <g
     transform="matrix(0.68532237,0,0,0.68532237,14.102458,120.10871)"
     style="opacity:0.1"
     id="g47">
    <path
       style="fill:#3f3d56"
       id="path33"
       transform="translate(-43.21,-57.79)"
       d="m 369.39,791.35 c 0,0.66 -0.07,1.32 -0.15,2 q -8.3,-3.3 -16.31,-7.07 a 13.21,13.21 0 0 1 -7.54,-3.67 q -2.34,-1.19 -4.65,-2.42 a 18.9,18.9 0 0 1 1.18,-2.12 c 3,-4.74 7.54,-7.7 12.56,-7.54 5.02,0.16 9.36,3.4 12,8.3 a 24.5,24.5 0 0 1 2.91,12.52 z" />
    <path
       style="fill:#3f3d56"
       id="path35"
       transform="translate(-43.21,-57.79)"
       d="m 370.17,766.46 a 24.59,24.59 0 0 1 -3.64,12.33 c -3,4.72 -7.55,7.69 -12.56,7.53 l -1,-0.08 a 13.21,13.21 0 0 1 -7.54,-3.67 18,18 0 0 1 -3.47,-4.54 25.53,25.53 0 0 1 0.78,-24.89 c 3,-4.74 7.55,-7.7 12.56,-7.54 5.01,0.16 9.36,3.4 12.05,8.3 a 24.5,24.5 0 0 1 2.82,12.56 z" />
    <ellipse
       style="fill:#3f3d56"
       id="ellipse37"
       transform="rotate(-88.19,304.00824,734.49254)"
       ry="15.56"
       rx="20.370001"
       cy="741.08002"
       cx="355.39999" />
    <ellipse
       style="fill:#3f3d56"
       id="ellipse39"
       transform="rotate(-88.19,304.78895,709.60618)"
       ry="15.56"
       rx="20.370001"
       cy="716.19"
       cx="356.17999" />
    <ellipse
       style="fill:#3f3d56"
       id="ellipse41"
       transform="rotate(-88.19,305.57466,684.71465)"
       ry="15.56"
       rx="20.370001"
       cy="691.29999"
       cx="356.97" />
    <path
       style="fill:#6c63ff"
       id="path43"
       transform="translate(-43.21,-57.79)"
       d="m 304.12,519.17 a 75.81,75.81 0 0 1 -5.53,-8.71 l 41.08,-5.46 -44.21,-1 a 74.64,74.64 0 0 1 0.44,-59.08 l 58.33,32.63 -53.42,-41.95 a 74.54,74.54 0 1 1 120.42,87.26 74.43,74.43 0 0 1 8.07,13.86 l -53.92,25.88 57.17,-17.2 a 74.65,74.65 0 0 1 -14.22,69.6 74.54,74.54 0 1 1 -117.12,-3.7 74.54,74.54 0 0 1 2.91,-92.12 z" />
    <path
       style="opacity:0.1"
       id="path45"
       transform="translate(-43.21,-57.79)"
       d="M 435.72,569.43 A 74.27,74.27 0 0 1 418.33,615 74.54,74.54 0 1 1 301.21,611.3 c -9.59,-13 134.79,-50.24 134.51,-41.87 z" />
  </g>
  <g
     transform="matrix(0.68532237,0,0,0.68532237,14.102458,120.10871)"
     style="opacity:0.1"
     id="g63">
    <path
       style="fill:#3f3d56"
       id="path49"
       transform="translate(-43.21,-57.79)"
       d="m 890.16,661.3 c 0,0.67 -0.07,1.32 -0.14,2 q -8.31,-3.3 -16.31,-7.07 a 13.26,13.26 0 0 1 -7.55,-3.67 c -1.55,-0.79 -3.11,-1.6 -4.65,-2.42 a 20.63,20.63 0 0 1 1.18,-2.12 c 3,-4.74 7.54,-7.7 12.56,-7.54 5.02,0.16 9.36,3.4 12,8.3 a 24.5,24.5 0 0 1 2.91,12.52 z" />
    <path
       style="fill:#3f3d56"
       id="path51"
       transform="translate(-43.21,-57.79)"
       d="m 891,636.41 a 24.59,24.59 0 0 1 -3.65,12.33 c -3,4.72 -7.54,7.69 -12.56,7.53 l -1,-0.08 a 13.26,13.26 0 0 1 -7.55,-3.67 18.32,18.32 0 0 1 -3.47,-4.54 25.53,25.53 0 0 1 0.78,-24.89 c 3,-4.73 7.55,-7.7 12.56,-7.54 5.01,0.16 9.37,3.4 12.05,8.3 a 24.5,24.5 0 0 1 2.84,12.56 z" />
    <ellipse
       style="fill:#3f3d56"
       id="ellipse53"
       transform="rotate(-88.19,824.79096,604.42133)"
       ry="15.56"
       rx="20.370001"
       cy="611.03003"
       cx="876.16998" />
    <ellipse
       style="fill:#3f3d56"
       id="ellipse55"
       transform="rotate(-88.19,825.58183,579.53481)"
       ry="15.56"
       rx="20.370001"
       cy="586.14001"
       cx="876.96002" />
    <ellipse
       style="fill:#3f3d56"
       id="ellipse57"
       transform="rotate(-88.19,826.36254,554.64845)"
       ry="15.56"
       rx="20.370001"
       cy="561.26001"
       cx="877.73999" />
    <path
       style="fill:#6c63ff"
       id="path59"
       transform="translate(-43.21,-57.79)"
       d="m 824.89,389.12 a 73.57,73.57 0 0 1 -5.52,-8.71 l 41.08,-5.41 -44.21,-1.07 a 74.7,74.7 0 0 1 0.43,-59.08 L 875,347.48 821.58,305.55 a 74.55,74.55 0 1 1 120.42,87.26 74.39,74.39 0 0 1 8.06,13.86 l -53.92,25.88 57.17,-17.2 a 74.57,74.57 0 0 1 -14.22,69.59 74.53,74.53 0 1 1 -117.09,-3.7 74.54,74.54 0 0 1 2.91,-92.12 z" />
    <path
       style="opacity:0.1"
       id="path61"
       transform="translate(-43.21,-57.79)"
       d="M 956.5,439.38 A 74.2,74.2 0 0 1 939.1,484.94 74.53,74.53 0 1 1 822,481.24 C 812.4,468.25 956.76,431 956.5,439.38 Z" />
  </g>
  <ellipse
     style="fill:#6c63ff;stroke-width:0.6853224"
     id="ellipse65"
     ry="7.5111327"
     rx="39.070229"
     cy="634.71045"
     cx="146.71236" />
  <ellipse
     style="fill:#3f3d56;stroke-width:0.6853224"
     id="ellipse67"
     ry="5.9554515"
     rx="4.5505404"
     cy="631.51685"
     cx="146.06133" />
  <ellipse
     style="fill:#3f3d56;stroke-width:0.6853224"
     id="ellipse69"
     ry="5.9554515"
     rx="4.5505404"
     cy="624.23871"
     cx="146.06133" />
  <ellipse
     style="fill:#3f3d56;stroke-width:0.6853224"
     id="ellipse71"
     ry="5.9554515"
     rx="4.5505404"
     cy="616.96057"
     cx="146.06133" />
  <ellipse
     style="fill:#3f3d56;stroke-width:0.6853224"
     id="ellipse73"
     ry="5.9554515"
     rx="4.5505404"
     cy="609.68243"
     cx="146.06133" />
  <ellipse
     style="fill:#3f3d56;stroke-width:0.6853224"
     id="ellipse75"
     ry="5.9554515"
     rx="4.5505404"
     cy="602.4043"
     cx="146.06133" />
  <ellipse
     style="fill:#3f3d56;stroke-width:0.6853224"
     id="ellipse77"
     ry="5.9554515"
     rx="4.5505404"
     cy="595.12616"
     cx="146.06133" />
  <ellipse
     style="fill:#3f3d56;stroke-width:0.6853224"
     id="ellipse79"
     ry="5.9554515"
     rx="4.5505404"
     cy="587.84808"
     cx="146.06133" />
  <path
     style="fill:#6c63ff;stroke-width:0.6853224"
     id="path81"
     d="m 163.09153,538.03885 a 22.149619,22.149619 0 0 0 1.69275,-2.49457 l -11.95201,-1.96688 12.92518,0.1028 a 21.85493,21.85493 0 0 0 0.41804,-17.27013 l -17.34551,8.99829 15.99542,-11.78069 a 21.793252,21.793252 0 1 0 -35.99312,24.39062 21.930316,21.930316 0 0 0 -2.48087,3.97487 l 15.51569,8.05939 -16.54368,-5.5511 a 21.806957,21.806957 0 0 0 3.50886,20.46372 21.793252,21.793252 0 1 0 34.26611,0 21.806957,21.806957 0 0 0 0,-26.94688 z" />
  <path
     style="opacity:0.1;stroke-width:0.6853224"
     id="path83"
     d="m 124.17208,551.5123 a 21.704159,21.704159 0 0 0 4.6602,13.47343 21.793252,21.793252 0 1 0 34.26611,0 c 2.91261,-3.7076 -38.92631,-15.92004 -38.92631,-13.47343 z" />
  <path
     style="fill:#3f3d56;stroke-width:0.6853224"
     id="path85"
     d="m 251.56665,474.56429 v 154.88286 q -16.96857,-0.82924 -33.9166,-1.99429 l -5.14677,-0.36322 V 474.56429 a 6.0445434,6.0445434 0 0 1 6.04454,-6.04454 h 26.97428 a 6.0445434,6.0445434 0 0 1 6.04455,6.04454 z" />
  <path
     style="fill:#3f3d56;stroke-width:0.6853224"
     id="path87"
     d="M 301.59518,631.37291 V 371.08062 a 6.0445434,6.0445434 0 0 1 6.04455,-6.04455 h 26.97429 a 6.0445434,6.0445434 0 0 1 6.04454,6.04455 v 260.97075 z" />
  <path
     style="fill:#3f3d56;stroke-width:0.6853224"
     id="path89"
     d="M 390.68709,632.18844 V 425.22108 a 6.0445434,6.0445434 0 0 1 6.04455,-6.04454 h 26.97429 a 6.0445434,6.0445434 0 0 1 6.04455,6.04454 v 206.5219 z" />
  <path
     style="fill:#3f3d56;stroke-width:0.6853224"
     id="path91"
     d="m 518.84238,271.70887 v 357.97814 q -19.53169,0.55512 -39.06337,1.04169 V 271.70887 a 6.0445434,6.0445434 0 0 1 6.04454,-6.04454 h 26.97429 a 6.0445434,6.0445434 0 0 1 6.04454,6.04454 z" />
  <path
     style="fill:#3f3d56;stroke-width:0.6853224"
     id="path93"
     d="m 607.93429,343.66773 v 283.03814 c -13.02112,0.63049 -26.04225,1.07596 -39.06337,1.47343 V 343.66773 a 6.0445434,6.0445434 0 0 1 6.04454,-6.04455 h 26.97429 a 6.0445434,6.0445434 0 0 1 6.04454,6.04455 z" />
  <polyline
     transform="matrix(0.68532237,0,0,0.68532237,14.102458,120.10871)"
     style="fill:none;stroke:#3f3d56;stroke-width:7;stroke-linecap:round;stroke-miterlimit:10"
     id="polyline95"
     stroke-miterlimit="10"
     points="318.5 385.41 448.5 240.41 578.5 313.41 708.5 89.41 838.5 196.41" />
  <circle
     style="fill:#6c63ff;stroke-width:0.6853224"
     id="circle97"
     r="19.189026"
     cy="384.23883"
     cx="232.035" />
  <circle
     style="fill:#6c63ff;stroke-width:0.6853224"
     id="circle99"
     r="19.189026"
     cy="284.86707"
     cx="321.1268" />
  <circle
     style="fill:#6c63ff;stroke-width:0.6853224"
     id="circle101"
     r="19.189026"
     cy="334.89563"
     cx="410.21872" />
  <circle
     style="fill:#6c63ff;stroke-width:0.6853224"
     id="circle103"
     r="19.189026"
     cy="181.38339"
     cx="499.31064" />
  <circle
     style="fill:#6c63ff;stroke-width:0.6853224"
     id="circle105"
     r="19.189026"
     cy="255.90231"
     cx="588.49634" />
  <ellipse
     style="opacity:0.1;fill:#6c63ff;stroke-width:0.6853224"
     id="ellipse107"
     ry="2.1656189"
     rx="12.801822"
     cy="615.32947"
     cx="174.24861" />
  <path
     style="fill:#a8a8a8;stroke-width:0.6853224"
     id="path109"
     d="m 165.65464,605.27583 c 0,0 7.29868,-0.22615 9.49857,-1.79554 2.19989,-1.56939 11.23244,-3.42661 11.78069,-0.92519 0.54826,2.50143 10.96516,12.50028 2.74129,12.56882 -8.22387,0.0686 -19.15476,-1.28841 -21.34779,-2.62479 -2.19303,-1.33638 -2.67276,-7.2233 -2.67276,-7.2233 z" />
  <path
     style="opacity:0.2;stroke-width:0.6853224"
     id="path111"
     d="m 189.8054,614.2467 c -8.22387,0.0686 -19.1479,-1.28155 -21.34779,-2.61792 -1.67218,-1.02114 -2.33694,-4.67391 -2.56311,-6.35981 h -0.23986 c 0,0 0.45917,5.88693 2.65906,7.2233 2.19988,1.33638 13.10335,2.69332 21.34778,2.62479 2.37807,0 3.20047,-0.86351 3.15249,-2.11764 -0.32896,0.7607 -1.23358,1.23357 -3.00857,1.24728 z" />
  <ellipse
     style="opacity:0.1;fill:#6c63ff;stroke-width:0.6853224"
     id="ellipse113"
     ry="3.97487"
     rx="23.513411"
     cy="633.69611"
     cx="743.14856" />
  <path
     style="fill:#a8a8a8;stroke-width:0.6853224"
     id="path115"
     d="m 727.37913,615.22671 c 0,0 13.41175,-0.41119 17.45516,-3.28955 4.0434,-2.87835 20.6282,-6.31181 21.62877,-1.6996 1.00057,4.61222 20.16218,22.9583 5.01656,23.08167 -15.14563,0.12335 -35.18445,-2.35752 -39.22099,-4.79726 -4.03656,-2.43975 -4.8795,-13.29526 -4.8795,-13.29526 z" />
  <path
     style="opacity:0.2;stroke-width:0.6853224"
     id="path117"
     d="m 771.7332,631.71557 c -15.14564,0.12335 -35.18447,-2.35751 -39.22101,-4.79726 -3.07024,-1.87092 -4.29698,-8.58708 -4.70816,-11.65048 h -0.44546 c 0,0 0.84979,10.82124 4.8795,13.2747 4.02969,2.45344 24.08222,4.94117 39.22099,4.79726 4.37235,0 5.88007,-1.58995 5.79783,-3.89264 -0.60994,1.37065 -2.27528,2.24101 -5.52369,2.26842 z" />
</svg>
