<svg
   version="1.1" viewBox="0 0 804.60998 804.61" height="804.60999" width="804.60999" data-name="Layer 1" id="e1a9485c-0f43-4303-9e0d-5e4a75181bc4">
  <title
     id="title13">gift1</title>
  <g
     transform="matrix(0.88200056,0,0,0.88200056,24.377466,58.769495)"
     style="opacity:0.5"
     id="g19">
    <rect
       style="fill:#47e6b1"
       id="rect15"
       height="18.870001"
       width="3.3299999"
       y="37.849998"
       x="107.3" />
    <rect
       style="fill:#47e6b1"
       id="rect17"
       transform="rotate(90,213.415,-17.485)"
       height="18.870001"
       width="3.3299999"
       y="77.529999"
       x="276.51999" />
  </g>
  <g
     transform="matrix(0.88200056,0,0,0.88200056,24.377466,58.769495)"
     style="opacity:0.5"
     id="g25">
    <rect
       style="fill:#47e6b1"
       id="rect21"
       height="18.870001"
       width="3.3299999"
       y="769.53003"
       x="811.65997" />
    <rect
       style="fill:#47e6b1"
       id="rect23"
       transform="rotate(90,917.78,714.19)"
       height="18.870001"
       width="3.3299999"
       y="809.21002"
       x="980.89001" />
  </g>
  <g
     transform="matrix(0.88200056,0,0,0.88200056,24.377466,58.769495)"
     style="opacity:0.5"
     id="g31">
    <rect
       style="fill:#47e6b1"
       id="rect27"
       height="18.870001"
       width="3.3299999"
       y="215.34"
       x="812.97998" />
    <rect
       style="fill:#47e6b1"
       id="rect29"
       transform="rotate(90,919.095,160.005)"
       height="18.870001"
       width="3.3299999"
       y="255.02"
       x="982.20001" />
  </g>
  <g
     transform="matrix(0.88200056,0,0,0.88200056,24.377466,58.769495)"
     style="opacity:0.5"
     id="g37">
    <rect
       style="fill:#47e6b1"
       id="rect33"
       height="18.870001"
       width="3.3299999"
       y="45.34"
       x="846.97998" />
    <rect
       style="fill:#47e6b1"
       id="rect35"
       transform="rotate(90,953.095,-9.995)"
       height="18.870001"
       width="3.3299999"
       y="85.019997"
       x="1016.2" />
  </g>
  <g
     transform="matrix(0.88200056,0,0,0.88200056,24.377466,58.769495)"
     style="opacity:0.5"
     id="g43">
    <rect
       style="fill:#47e6b1"
       id="rect39"
       height="18.870001"
       width="3.3299999"
       y="36.27"
       x="267.07999" />
    <rect
       style="fill:#47e6b1"
       id="rect41"
       transform="rotate(90,373.2,-19.07)"
       height="18.870001"
       width="3.3299999"
       y="75.959999"
       x="436.31" />
  </g>
  <path
     style="opacity:0.5;fill:#4d8af0;stroke-width:0.88200057"
     id="path45"
     d="m 78.364716,339.42207 a 3.5985623,3.5985623 0 0 1 -2.002135,-4.34826 1.7640011,1.7640011 0 0 0 0.07933,-0.39691 v 0 a 1.7640011,1.7640011 0 0 0 -3.236938,-1.19952 v 0 a 1.7640011,1.7640011 0 0 0 -0.202862,0.3528 3.5985623,3.5985623 0 0 1 -4.348259,2.00215 1.7640011,1.7640011 0 0 0 -0.396903,-0.0794 v 0 a 1.7640011,1.7640011 0 0 0 -1.199519,3.23695 v 0 a 1.7640011,1.7640011 0 0 0 0.352798,0.20286 3.5985623,3.5985623 0 0 1 2.002135,4.34826 1.7640011,1.7640011 0 0 0 -0.07943,0.3969 v 0 a 1.7640011,1.7640011 0 0 0 3.236949,1.19952 v 0 a 1.7640011,1.7640011 0 0 0 0.202852,-0.3528 3.5985623,3.5985623 0 0 1 4.348269,-2.00214 1.7640011,1.7640011 0 0 0 0.396893,0.0793 v 0 a 1.7640011,1.7640011 0 0 0 1.199529,-3.23694 v 0 a 1.7640011,1.7640011 0 0 0 -0.352808,-0.20286 z" />
  <path
     style="opacity:0.5;fill:#4d8af0;stroke-width:0.88200057"
     id="path47"
     d="m 132.59007,673.11816 a 3.5985623,3.5985623 0 0 1 -2.00214,-4.34826 1.7640011,1.7640011 0 0 0 0.0794,-0.3969 v 0 a 1.7640011,1.7640011 0 0 0 -3.23694,-1.19952 v 0 a 1.7640011,1.7640011 0 0 0 -0.20286,0.35279 3.5985623,3.5985623 0 0 1 -4.34827,2.00215 1.7640011,1.7640011 0 0 0 -0.39689,-0.0794 v 0 a 1.7640011,1.7640011 0 0 0 -1.19953,3.23694 v 0 a 1.7640011,1.7640011 0 0 0 0.35281,0.20286 3.5985623,3.5985623 0 0 1 2.00213,4.34826 1.7640011,1.7640011 0 0 0 -0.0794,0.3969 v 0 a 1.7640011,1.7640011 0 0 0 3.23694,1.19952 v 0 a 1.7640011,1.7640011 0 0 0 0.20286,-0.3528 3.5985623,3.5985623 0 0 1 4.34827,-2.00214 1.7640011,1.7640011 0 0 0 0.3969,0.0794 v 0 a 1.7640011,1.7640011 0 0 0 1.19952,-3.23695 v 0 a 1.7640011,1.7640011 0 0 0 -0.3528,-0.20286 z" />
  <path
     style="opacity:0.5;fill:#4d8af0;stroke-width:0.88200057"
     id="path49"
     d="m 625.62839,231.23588 a 3.5985623,3.5985623 0 0 1 -2.00215,-4.34827 1.7640011,1.7640011 0 0 0 0.0793,-0.39689 v 0 a 1.7640011,1.7640011 0 0 0 -3.23694,-1.19953 v 0 a 1.7640011,1.7640011 0 0 0 -0.20286,0.35281 3.5985623,3.5985623 0 0 1 -4.34826,2.00213 1.7640011,1.7640011 0 0 0 -0.3969,-0.0794 v 0 a 1.7640011,1.7640011 0 0 0 -1.19952,3.23694 v 0 a 1.7640011,1.7640011 0 0 0 0.3528,0.20286 3.5985623,3.5985623 0 0 1 2.00213,4.34827 1.7640011,1.7640011 0 0 0 -0.0794,0.3969 v 0 a 1.7640011,1.7640011 0 0 0 3.23695,1.19951 v 0 a 1.7640011,1.7640011 0 0 0 0.20285,-0.35279 3.5985623,3.5985623 0 0 1 4.34827,-2.00214 1.7640011,1.7640011 0 0 0 0.39691,0.0794 v 0 a 1.7640011,1.7640011 0 0 0 1.19952,-3.23694 v 0 a 1.7640011,1.7640011 0 0 0 -0.3528,-0.20286 z" />
  <path
     style="opacity:0.5;fill:#4d8af0;stroke-width:0.88200057"
     id="path51"
     d="m 619.05748,310.95991 a 3.5985623,3.5985623 0 0 1 -2.00214,-4.34826 1.7640011,1.7640011 0 0 0 0.0794,-0.39691 v 0 a 1.7640011,1.7640011 0 0 0 -3.23695,-1.19951 v 0 a 1.7640011,1.7640011 0 0 0 -0.20286,0.35279 3.5985623,3.5985623 0 0 1 -4.34826,2.00215 1.7640011,1.7640011 0 0 0 -0.39691,-0.0793 v 0 a 1.7640011,1.7640011 0 0 0 -1.19952,3.23694 v 0 a 1.7640011,1.7640011 0 0 0 0.3528,0.20286 3.5985623,3.5985623 0 0 1 2.00215,4.34826 1.7640011,1.7640011 0 0 0 -0.0794,0.39691 v 0 a 1.7640011,1.7640011 0 0 0 3.23694,1.19951 v 0 a 1.7640011,1.7640011 0 0 0 0.20286,-0.35279 3.5985623,3.5985623 0 0 1 4.34826,-2.00215 1.7640011,1.7640011 0 0 0 0.3969,0.0794 v 0 a 1.7640011,1.7640011 0 0 0 1.19952,-3.23694 v 0 a 1.7640011,1.7640011 0 0 0 -0.3528,-0.20286 z" />
  <path
     style="opacity:0.5;fill:#4d8af0;stroke-width:0.88200057"
     id="path53"
     d="m 619.52494,65.43742 a 3.5985623,3.5985623 0 0 1 -2.00214,-4.348263 1.7640011,1.7640011 0 0 0 0.0794,-0.396901 v 0 a 1.7640011,1.7640011 0 0 0 -3.23695,-1.19952 v 0 a 1.7640011,1.7640011 0 0 0 -0.20286,0.3528 3.5985623,3.5985623 0 0 1 -4.33944,2.010961 1.7640011,1.7640011 0 0 0 -0.39691,-0.07938 v 0 a 1.7640011,1.7640011 0 0 0 -1.19951,3.236942 v 0 a 1.7640011,1.7640011 0 0 0 0.35279,0.20286 3.5985623,3.5985623 0 0 1 2.00215,4.348264 1.7640011,1.7640011 0 0 0 -0.0794,0.3969 v 0 a 1.7640011,1.7640011 0 0 0 3.23694,1.199521 v 0 a 1.7640011,1.7640011 0 0 0 0.20286,-0.352801 3.5985623,3.5985623 0 0 1 4.31299,-2.05506 1.7640011,1.7640011 0 0 0 0.39689,0.07938 v 0 a 1.7640011,1.7640011 0 0 0 1.19952,-3.236942 v 0 a 1.7640011,1.7640011 0 0 0 -0.32634,-0.15876 z" />
  <path
     style="opacity:0.5;fill:#4d8af0;stroke-width:0.88200057"
     id="path55"
     d="m 767.84216,468.54695 a 3.5985623,3.5985623 0 0 1 -2.00214,-4.34826 1.7640011,1.7640011 0 0 0 0.0793,-0.3969 v 0 a 1.7640011,1.7640011 0 0 0 -3.23695,-1.19952 v 0 a 1.7640011,1.7640011 0 0 0 -0.20285,0.3528 3.5985623,3.5985623 0 0 1 -4.34827,2.00214 1.7640011,1.7640011 0 0 0 -0.3969,-0.0794 v 0 a 1.7640011,1.7640011 0 0 0 -1.19953,3.23695 v 0 a 1.7640011,1.7640011 0 0 0 0.35281,0.20286 3.5985623,3.5985623 0 0 1 1.99332,4.39236 1.7640011,1.7640011 0 0 0 -0.0793,0.3969 v 0 a 1.7640011,1.7640011 0 0 0 3.23694,1.19952 v 0 a 1.7640011,1.7640011 0 0 0 0.20286,-0.3528 3.5985623,3.5985623 0 0 1 4.34827,-2.00214 1.7640011,1.7640011 0 0 0 0.39689,0.0793 v 0 a 1.7640011,1.7640011 0 0 0 1.19953,-3.23695 v 0 a 1.7640011,1.7640011 0 0 0 -0.34398,-0.24695 z" />
  <circle
     r="5.8741236"
     style="opacity:0.5;fill:#f55f44;stroke-width:0.88200057"
     id="circle57"
     cy="205.28741"
     cx="78.858612" />
  <circle
     r="5.8741236"
     style="opacity:0.5;fill:#f55f44;stroke-width:0.88200057"
     id="circle59"
     cy="627.1571"
     cx="35.79055" />
  <circle
     r="5.8741236"
     style="opacity:0.5;fill:#f55f44;stroke-width:0.88200057"
     id="circle61"
     cy="99.05928"
     cx="412.15796" />
  <circle
     r="5.8741236"
     style="opacity:0.5;fill:#f55f44;stroke-width:0.88200057"
     id="circle63"
     cy="211.07333"
     cx="471.25201" />
  <circle
     r="5.8741236"
     style="opacity:0.5;fill:#f55f44;stroke-width:0.88200057"
     id="circle65"
     cy="480.96552"
     cx="30.251579" />
  <circle
     r="5.8741236"
     style="opacity:0.5;fill:#47e6b1;stroke-width:0.88200057"
     id="circle67"
     cy="195.77945"
     cx="260.31262" />
  <circle
     r="5.8741236"
     style="opacity:0.5;fill:#f55f44;stroke-width:0.88200057"
     id="circle69"
     cy="585.98529"
     cx="664.35687" />
  <g
     transform="matrix(0.88200056,0,0,0.88200056,24.377466,58.769495)"
     style="opacity:0.5"
     id="g73">
    <path
       style="fill:url(#linearGradient972)"
       id="path71"
       transform="translate(-169.23,-39.68)"
       d="m 713.77,253.75 c -12.9,-12.94 -31.71,-18.09 -53,-14.5 -19.89,3.36 -39.79,14.13 -56,30.33 A 65.49,65.49 0 0 0 593.05,285.66 65.64,65.64 0 0 0 581.43,269 v 0 c -16,-16.47 -35.67,-27.58 -55.5,-31.29 -21.19,-4 -40.08,0.86 -53.2,13.58 -13.12,12.72 -18.55,31.45 -15.25,52.71 3.08,20 13.52,40 29.52,56.49 33.58,34.64 100.59,21.11 103.43,20.51 l 0.84,-0.17 2.58,0.59 c 2.83,0.64 69.59,15.32 103.75,-18.73 16.25,-16.19 27.08,-36.06 30.51,-55.94 3.65,-21.23 -1.44,-40.06 -14.34,-53 z M 579.08,361 c -16.19,2.18 -56.55,5.14 -76.59,-15.53 -12.88,-13.29 -21.31,-29.19 -23.71,-44.75 -2.2,-14.2 1,-26.27 8.94,-34 a 29.93,29.93 0 0 1 10.92,-6.69 c 6.68,-2.37 14.63,-2.81 23.32,-1.18 15.48,2.89 31.1,11.81 44,25.1 20.04,20.72 15.8,60.97 13.12,77.05 z m 127.78,-57.93 c -2.67,15.52 -11.37,31.26 -24.48,44.33 -20.4,20.33 -60.7,16.67 -76.84,14.21 -2.41,-16.16 -5.94,-56.47 14.45,-76.8 13.11,-13.07 28.88,-21.71 44.41,-24.34 8.72,-1.47 16.66,-0.9 23.3,1.58 a 29.93,29.93 0 0 1 10.8,6.88 c 7.83,7.89 10.8,20.01 8.36,34.16 z" />
  </g>
  <path
     style="fill:#6c63ff;stroke-width:0.88200057"
     id="path75"
     d="m 401.59142,355.97722 -5.62716,1.1907 c -2.39022,0.50274 -58.9441,11.91582 -87.31806,-17.31367 -13.47696,-13.90034 -22.32344,-30.82592 -24.92534,-47.62803 -2.7783,-17.97517 1.764,-33.78945 12.85957,-44.52339 11.09558,-10.73395 27.0245,-14.79997 44.90265,-11.46601 16.75802,3.13111 33.3749,12.50677 46.84305,26.4071 v 0 c 28.32986,29.23832 15.15278,85.40412 14.57065,87.77669 z M 318.49815,255.08517 a 25.260496,25.260496 0 0 0 -9.21691,5.64481 c -6.72084,6.50916 -9.40212,16.69627 -7.54992,28.68265 2.02859,13.13299 9.13752,26.54823 20.01259,37.76727 16.90796,17.44597 50.97081,14.99401 64.633,13.10653 2.26675,-13.59163 5.83002,-47.56629 -11.07792,-65.01226 v 0 c -10.87507,-11.21905 -24.06098,-18.74251 -37.1234,-21.16801 -7.32061,-1.39356 -14.03264,-1.01431 -19.67744,0.97901 z" />
  <path
     style="fill:#6c63ff;stroke-width:0.88200057"
     id="path77"
     d="m 393.24769,356.22418 -1.27889,-5.60953 c -0.53802,-2.39022 -12.74491,-58.77652 16.08769,-87.51209 v 0 c 13.70629,-13.67101 30.5084,-22.75562 47.29287,-25.57802 17.93106,-3.03408 33.80708,1.31418 44.69979,12.23335 10.8927,10.91916 15.17923,26.81282 12.09222,44.73507 -2.89296,16.75801 -12.0393,33.51601 -25.74559,47.21349 -28.81496,28.69148 -85.15715,16.34346 -87.54738,15.79663 z m 84.822,-99.44557 c -5.60953,-2.09916 -12.34801,-2.58425 -19.65979,-1.34064 -13.10653,2.21383 -26.46002,9.50796 -37.48502,20.54179 v 0 c -17.20784,17.15491 -14.2355,51.15604 -12.19808,64.81822 13.62691,2.07271 47.62804,5.16853 64.85351,-11.9952 11.06911,-11.03383 18.40735,-24.31675 20.66527,-37.41446 2.06389,-11.95111 -0.441,-22.18232 -7.05601,-28.80614 a 25.260496,25.260496 0 0 0 -9.1287,-5.80357 z" />
  <g
     transform="matrix(0.88200056,0,0,0.88200056,24.377466,58.769495)"
     style="opacity:0.5"
     id="g81">
    <polygon
       style="fill:url(#07fe1e9f-5680-428a-971a-ff84304916dd)"
       id="polygon79"
       points="109.21,444.6 141.51,444.6 141.51,804.61 698.57,804.61 698.57,444.6 730.87,444.6 730.87,320.21 109.21,320.21 " />
  </g>
  <rect
     style="fill:#f5f5f5;stroke-width:0.88200057"
     id="rect83"
     height="388.6712"
     width="478.89105"
     y="374.36691"
     x="155.40744" />
  <rect
     style="fill:#6c63ff;stroke-width:0.88200057"
     id="rect85"
     height="319.26657"
     width="90.228661"
     y="443.77158"
     x="349.7388" />
  <rect
     style="opacity:0.1;stroke-width:0.88200057"
     id="rect87"
     height="97.169998"
     width="478.89105"
     y="353.54291"
     x="155.40744" />
  <rect
     style="fill:#f5f5f5;stroke-width:0.88200057"
     id="rect89"
     height="97.169998"
     width="534.41296"
     y="346.60153"
     x="127.64207" />
  <rect
     style="fill:#6c63ff;stroke-width:0.88200057"
     id="rect91"
     height="97.169998"
     width="90.228661"
     y="346.60153"
     x="349.7388" />
  <polygon
     transform="matrix(0.88200056,0,0,0.88200056,24.377466,58.769495)"
     style="opacity:0.1"
     id="polygon139"
     points="544.67,241.3 545.81,237.87 549.23,240.16 " />
  <path
     style="opacity:0.1;stroke-width:0.88200057"
     id="path141"
     d="m 570.13291,286.47558 c 0,0 -10.96327,5.292 -13.98853,10.29294" />
  <circle
     r="5.8741236"
     id="circle69-3"
     cy="327.22589"
     cx="695.22919"
     style="opacity:0.5;fill:#f55f44;stroke-width:0.88200057" />
</svg>
